<svg width="20" height="20" viewBox="0 0 20 20" fill="none" xmlns="http://www.w3.org/2000/svg">
<path fill-rule="evenodd" clip-rule="evenodd" d="M14.2533 0.684357C14.1664 0.44929 13.8339 0.44929 13.7469 0.684357L13.4292 1.54291C13.2773 1.95348 12.9536 2.2772 12.543 2.42913L11.6844 2.74682C11.4494 2.8338 11.4494 3.16628 11.6844 3.25326L12.543 3.57095C12.9536 3.72288 13.2773 4.0466 13.4292 4.45717L13.7469 5.31572C13.8339 5.55079 14.1664 5.55079 14.2533 5.31572L14.571 4.45718C14.723 4.0466 15.0467 3.72288 15.4573 3.57095L16.3158 3.25326C16.5509 3.16628 16.5509 2.8338 16.3158 2.74682L15.4573 2.42913C15.0467 2.2772 14.723 1.95348 14.571 1.54291L14.2533 0.684357ZM10.0168 17.2502C10.6379 17.2488 11.2396 17.1695 11.8132 17.0219C12.2143 16.9186 12.6232 17.1601 12.7264 17.5612C12.8297 17.9624 12.5882 18.3713 12.1871 18.4745C11.4872 18.6546 10.7542 18.7502 10 18.7502L9.98152 18.75C5.15753 18.74 1.25 14.8264 1.25 10C1.25 5.16755 5.16751 1.25004 10 1.25004C10.4142 1.25004 10.75 1.58583 10.75 2.00004C10.75 2.41425 10.4142 2.75004 10 2.75004C5.99594 2.75004 2.75 5.99598 2.75 10C2.75 14.0041 5.99594 17.25 10 17.25L10.0168 17.2502ZM17.561 12.7266C17.1599 12.6233 16.9184 12.2144 17.0216 11.8133C17.1706 11.2346 17.25 10.6273 17.25 10.0002C17.25 8.48704 16.7872 7.08418 15.9956 5.92264C15.7623 5.58036 15.8506 5.11378 16.1929 4.8805C16.5352 4.64722 17.0018 4.73558 17.2351 5.07785C18.1911 6.48052 18.75 8.17624 18.75 10.0002C18.75 10.7544 18.6544 11.4874 18.4743 12.1872C18.371 12.5883 17.9622 12.8298 17.561 12.7266ZM10.0001 7.75003C8.7575 7.75003 7.75014 8.75739 7.75014 10C7.75014 11.2427 8.7575 12.25 10.0001 12.25C11.2428 12.25 12.2501 11.2427 12.2501 10C12.2501 8.75739 11.2428 7.75003 10.0001 7.75003ZM6.25014 10C6.25014 7.92897 7.92907 6.25003 10.0001 6.25003C12.0712 6.25003 13.7501 7.92897 13.7501 10C13.7501 10.7644 13.5214 11.4754 13.1287 12.0683L17.0303 15.9699C17.3232 16.2628 17.3232 16.7377 17.0303 17.0306C16.7374 17.3235 16.2626 17.3235 15.9697 17.0306L12.068 13.1289C11.4752 13.5214 10.7644 13.75 10.0001 13.75C7.92907 13.75 6.25014 12.0711 6.25014 10Z" fill="url(#paint0_linear_3820_15852)"/>
<defs>
<linearGradient id="paint0_linear_3820_15852" x1="1.25012" y1="0.993354" x2="22.4433" y2="9.12547" gradientUnits="userSpaceOnUse">
<stop stop-color="#6745FE"/>
<stop offset="1" stop-color="#F44AC4"/>
</linearGradient>
</defs>
</svg>
