<svg width="20" height="20" viewBox="0 0 20 20" fill="none" xmlns="http://www.w3.org/2000/svg">
<path fill-rule="evenodd" clip-rule="evenodd" d="M10.6663 2.65543C10.5375 2.40639 10.2805 2.25 10.0002 2.25C9.71977 2.25 9.46281 2.40639 9.33399 2.65543L1.83399 17.1554C1.64369 17.5233 1.78768 17.9759 2.15559 18.1662C2.5235 18.3565 2.97602 18.2125 3.16632 17.8446L5.41192 13.5031L11.8048 15.2241C12.1254 15.3104 12.4646 15.1757 12.6385 14.8929L14.0884 12.5363L16.834 17.8446C17.0243 18.2125 17.4768 18.3565 17.8447 18.1662C18.2126 17.9759 18.3566 17.5233 18.1663 17.1554L10.6663 2.65543ZM13.284 10.9812L12.1246 8.73976L7.38532 9.68782L6.1172 12.1395L11.6542 13.6302L13.284 10.9812ZM8.26788 7.98156L11.4076 7.35348L10.0002 4.63248L8.26788 7.98156Z" fill="url(#paint0_linear_3820_15849)"/>
<defs>
<linearGradient id="paint0_linear_3820_15849" x1="7.5" y1="2" x2="16.5" y2="21" gradientUnits="userSpaceOnUse">
<stop stop-color="#F96262"/>
<stop offset="0.385" stop-color="#B06CF8"/>
<stop offset="0.68" stop-color="#3B8DF0"/>
<stop offset="1" stop-color="#2578F5"/>
</linearGradient>
</defs>
</svg>
