<svg t="1740626625761" class="icon" viewBox="0 0 1024 1024" version="1.1" xmlns="http://www.w3.org/2000/svg" p-id="2039" width="200" height="200"><path d="M890.88 143.36H261.12c-66.56 0-117.76 51.2-117.76 117.76v629.76c0 66.56 51.2 117.76 117.76 117.76h629.76c30.72 0 61.44-10.24 81.92-35.84 20.48-20.48 35.84-51.2 35.84-81.92V261.12c0-66.56-56.32-117.76-117.76-117.76z m15.36 747.52c0 5.12 0 10.24-5.12 10.24 0 0-5.12 5.12-10.24 5.12H261.12c-10.24 0-15.36-5.12-15.36-15.36V261.12c0-10.24 5.12-15.36 15.36-15.36h629.76c10.24 0 15.36 5.12 15.36 15.36v629.76zM814.08 66.56c0-30.72-20.48-51.2-51.2-51.2H133.12C66.56 15.36 15.36 66.56 15.36 133.12v629.76c0 30.72 20.48 51.2 51.2 51.2s51.2-20.48 51.2-51.2V133.12c0-10.24 5.12-15.36 15.36-15.36h629.76c30.72 0 51.2-20.48 51.2-51.2zM614.4 399.36c-10.24-10.24-25.6-15.36-35.84-15.36-15.36 0-25.6 5.12-35.84 15.36L409.6 527.36c-20.48 20.48-20.48 51.2 0 71.68 20.48 20.48 51.2 20.48 71.68 0l46.08-46.08v184.32c0 30.72 25.6 51.2 51.2 51.2s51.2-20.48 51.2-51.2v-184.32l46.08 46.08c20.48 20.48 51.2 20.48 71.68 0 20.48-20.48 20.48-51.2 0-71.68L614.4 399.36z" fill="" p-id="2040"></path></svg>