<svg width="24" height="24" viewBox="0 0 24 24" fill="none" xmlns="http://www.w3.org/2000/svg">
  <g id="icon_cut">
    <g id="icon_fill">
      <g id="Vector">
        <path fill-rule="evenodd" clip-rule="evenodd"
          d="M8.50156 15.6501C8.03212 15.6501 7.65156 16.0306 7.65156 16.5001C7.65156 16.9695 8.03212 17.3501 8.50156 17.3501C8.971 17.3501 9.35156 16.9695 9.35156 16.5001C9.35156 16.0306 8.971 15.6501 8.50156 15.6501ZM6.35156 16.5001C6.35156 15.3127 7.31415 14.3501 8.50156 14.3501C9.68897 14.3501 10.6516 15.3127 10.6516 16.5001C10.6516 17.6875 9.68897 18.6501 8.50156 18.6501C7.31415 18.6501 6.35156 17.6875 6.35156 16.5001Z"
          fill="currentColor" />
        <path fill-rule="evenodd" clip-rule="evenodd"
          d="M15.5016 15.6501C15.0321 15.6501 14.6516 16.0306 14.6516 16.5001C14.6516 16.9695 15.0321 17.3501 15.5016 17.3501C15.971 17.3501 16.3516 16.9695 16.3516 16.5001C16.3516 16.0306 15.971 15.6501 15.5016 15.6501ZM13.3516 16.5001C13.3516 15.3127 14.3141 14.3501 15.5016 14.3501C16.689 14.3501 17.6516 15.3127 17.6516 16.5001C17.6516 17.6875 16.689 18.6501 15.5016 18.6501C14.3141 18.6501 13.3516 17.6875 13.3516 16.5001Z"
          fill="currentColor" />
        <path
          d="M16.0337 6.11384C15.9563 5.90476 15.6606 5.90476 15.5832 6.11384L15.09 7.44664C15.0657 7.51238 15.0139 7.5642 14.9482 7.58853L13.6154 8.08171C13.4063 8.15907 13.4063 8.45479 13.6154 8.53216L14.9482 9.02534C15.0139 9.04966 15.0657 9.10149 15.09 9.16722L15.5832 10.5C15.6606 10.7091 15.9563 10.7091 16.0337 10.5L16.5269 9.16722C16.5512 9.10149 16.603 9.04966 16.6687 9.02534L18.0015 8.53216C18.2106 8.45479 18.2106 8.15907 18.0015 8.08171L16.6687 7.58853C16.603 7.5642 16.5512 7.51238 16.5269 7.44664L16.0337 6.11384Z"
          fill="currentColor" />
        <path fill-rule="evenodd" clip-rule="evenodd"
          d="M7.07586 7.00889C6.80458 7.244 6.77525 7.65451 7.01036 7.92579L13.5104 15.4258C13.7455 15.6971 14.156 15.7264 14.4273 15.4913C14.6985 15.2562 14.7279 14.8457 14.4928 14.5744L7.99276 7.07438C7.75765 6.8031 7.34714 6.77378 7.07586 7.00889Z"
          fill="currentColor" />
        <path fill-rule="evenodd" clip-rule="evenodd"
          d="M14.4898 9.82139C14.761 10.0565 14.7904 10.467 14.5553 10.7383L10.4928 15.4258C10.2577 15.6971 9.84714 15.7264 9.57586 15.4913C9.30458 15.2562 9.27525 14.8457 9.51036 14.5744L13.5729 9.88688C13.808 9.6156 14.2185 9.58628 14.4898 9.82139Z"
          fill="currentColor" />
      </g>
    </g>
  </g>
</svg>