<svg xmlns="http://www.w3.org/2000/svg" width="16" height="16" viewBox="0 0 16 16" fill="none">
  <g clip-path="url(#clip0_560_2818)">
    <path fill-rule="evenodd" clip-rule="evenodd"
      d="M1.5 15.097C1.08579 15.097 0.75 14.7612 0.75 14.347V6.69997C0.75 6.28576 1.08579 5.94997 1.5 5.94997C1.91421 5.94997 2.25 6.28576 2.25 6.69997V14.347C2.25 14.7612 1.91421 15.097 1.5 15.097ZM11.339 3.2966L11.0859 4.54997H13.2371C14.8008 4.54997 16 5.8478 16 7.34997V8.64997C16 9.0139 15.9306 9.35009 15.8137 9.65746L15.8054 9.67925L13.8918 14.2777C13.4838 15.2769 12.5079 16 11.3428 16H5.6598C4.09613 16 2.89692 14.7021 2.89692 13.2V6.69997C2.89692 5.95278 3.18777 5.24955 3.69886 4.73282L7.60971 0.70092C8.32716 -0.038742 9.5131 -0.0419996 10.2346 0.693705L10.6696 1.13727C11.1046 1.58504 11.3715 2.20408 11.3715 2.87147V2.93964L11.339 3.2966ZM4.76947 5.78347L8.68641 1.74529C8.81685 1.61081 9.03248 1.61022 9.16366 1.74398L9.59369 2.18247C9.76418 2.35797 9.87153 2.60497 9.87153 2.87147L9.85258 3.07947L9.55563 4.54997L9.31077 5.76247C9.28076 5.9111 9.39439 6.04997 9.54602 6.04997H13.2371C13.9317 6.04997 14.5 6.63497 14.5 7.34997V8.64997C14.5 8.81897 14.4684 8.97497 14.4116 9.12447L12.5046 13.707C12.3152 14.175 11.8669 14.5 11.3428 14.5H5.6598C4.96522 14.5 4.39692 13.915 4.39692 13.2V6.69997C4.39692 6.34247 4.53584 6.01747 4.76947 5.78347Z"
      fill="#1A2029" />
  </g>
  <defs>
    <clipPath id="clip0_560_2818">
      <rect width="16" height="16" fill="white" transform="matrix(-1 0 0 -1 16 16)" />
    </clipPath>
  </defs>
</svg>