<svg width="20" height="20" viewBox="0 0 20 20" fill="none" xmlns="http://www.w3.org/2000/svg">
<path d="M3.24297 2.97294C3.04771 2.77768 2.73113 2.77768 2.53586 2.97294C2.3406 3.1682 2.3406 3.48478 2.53586 3.68004L3.59652 4.7407C3.79179 4.93597 4.10837 4.93597 4.30363 4.7407C4.49889 4.54544 4.49889 4.22886 4.30363 4.0336L3.24297 2.97294Z" fill="currentColor"/>
<path d="M1.48047 6.00821C1.20433 6.00821 0.980469 6.23207 0.980469 6.50821C0.980469 6.78436 1.20433 7.00821 1.48047 7.00821L2.98047 7.00821C3.25661 7.00821 3.48047 6.78435 3.48047 6.50821C3.48047 6.23207 3.25661 6.00821 2.98047 6.00821H1.48047Z" fill="currentColor"/>
<path d="M6.22306 1.26562C5.94691 1.26563 5.72306 1.48948 5.72306 1.76563L5.72306 3.26563C5.72306 3.54177 5.94691 3.76562 6.22306 3.76563C6.4992 3.76562 6.72306 3.54177 6.72306 3.26562V1.76562C6.72306 1.48948 6.4992 1.26563 6.22306 1.26562Z" fill="currentColor"/>
<path d="M2.53586 9.3369C2.3406 9.53216 2.3406 9.84874 2.53586 10.044C2.73113 10.2393 3.04771 10.2393 3.24297 10.044L4.30363 8.98335C4.49889 8.78808 4.49889 8.4715 4.30363 8.27624C4.10837 8.08098 3.79179 8.08098 3.59652 8.27624L2.53586 9.3369Z" fill="currentColor"/>
<path d="M7.83916 4.7407C7.6439 4.54544 7.6439 4.22886 7.83916 4.0336L8.89982 2.97294C9.09509 2.77768 9.41167 2.77768 9.60693 2.97294C9.80219 3.1682 9.80219 3.48478 9.60693 3.68004L8.54627 4.7407C8.35101 4.93597 8.03443 4.93597 7.83916 4.7407Z" fill="currentColor"/>
<path fill-rule="evenodd" clip-rule="evenodd" d="M6.03165 6.53223C6.07965 6.7838 6.15538 7.11234 6.25417 7.49912C6.48297 8.39498 6.82591 9.56639 7.20041 10.7321C7.57517 11.8987 7.97812 13.049 8.32597 13.9049C8.50081 14.3351 8.65622 14.6772 8.7825 14.9067C8.7875 14.9158 8.79238 14.9246 8.79716 14.9331C8.81802 14.9117 8.8404 14.8876 8.86425 14.8604C9.03244 14.669 9.21765 14.3946 9.40071 14.0917C9.58151 13.7925 9.74823 13.4859 9.88348 13.2365L9.89142 13.2219C9.95468 13.1053 10.0129 12.998 10.0603 12.9147C10.085 12.8713 10.1099 12.8289 10.1333 12.7922C10.1494 12.7669 10.1887 12.7054 10.2416 12.6525C10.3836 12.5105 10.5594 12.4898 10.6756 12.5039C10.7766 12.5162 10.8525 12.5545 10.8893 12.575C10.9668 12.6181 11.0326 12.6755 11.0757 12.7153C11.1702 12.8025 11.2812 12.925 11.3944 13.0556C11.5341 13.2168 11.7029 13.421 11.8813 13.6368C11.9929 13.7717 12.1082 13.9112 12.2225 14.0476C12.5287 14.4128 12.8382 14.7689 13.107 15.0331C13.242 15.1658 13.355 15.2635 13.443 15.3256C13.4747 15.348 13.4973 15.3615 13.5117 15.3694C13.5273 15.3665 13.5479 15.3612 13.5736 15.3525C13.6313 15.3329 13.7037 15.2994 13.7881 15.2493C13.9577 15.1487 14.1462 14.9989 14.3224 14.8226C14.4987 14.6464 14.6485 14.4578 14.7491 14.2883C14.7992 14.2039 14.8327 14.1315 14.8523 14.0738C14.8611 14.048 14.8663 14.0274 14.8693 14.0118C14.8614 13.9975 14.8478 13.9748 14.8255 13.9432C14.7633 13.8552 14.6656 13.7422 14.5329 13.6072C14.2687 13.3384 13.9127 13.0289 13.5474 12.7227C13.4111 12.6085 13.2718 12.4933 13.137 12.3818C12.921 12.2033 12.7167 12.0343 12.5554 11.8946C12.4248 11.7814 12.3023 11.6703 12.2151 11.5758C12.1753 11.5327 12.1179 11.4669 12.0748 11.3893C12.0543 11.3525 12.016 11.2766 12.0037 11.1755C11.9897 11.0593 12.0105 10.8836 12.1523 10.7417C12.2052 10.6888 12.2668 10.6496 12.292 10.6335C12.3288 10.61 12.3712 10.5851 12.4146 10.5604C12.4979 10.5129 12.6053 10.4547 12.722 10.3914L12.7364 10.3836C12.9858 10.2483 13.2925 10.0816 13.5916 9.90079C13.8945 9.71773 14.1689 9.53252 14.3603 9.36432C14.3875 9.34047 14.4117 9.31808 14.433 9.29723C14.4245 9.29245 14.4158 9.28757 14.4067 9.28258C14.1772 9.15631 13.8351 9.00092 13.4048 8.8261C12.5489 8.47831 11.3985 8.07543 10.2319 7.70073C9.06604 7.32631 7.89455 6.98345 6.99864 6.7547C6.61182 6.65593 6.28324 6.58022 6.03165 6.53223ZM14.5628 9.13995C14.5629 9.13995 14.5626 9.14072 14.5618 9.1423C14.5624 9.14075 14.5628 9.13996 14.5628 9.13995ZM8.63989 15.0629C8.6399 15.0629 8.64069 15.0625 8.64224 15.0619C8.64066 15.0627 8.63989 15.0629 8.63989 15.0629ZM15.4268 8.81903C15.4747 8.88395 15.546 9.00216 15.5532 9.16195C15.5638 9.39769 15.4654 9.595 15.3726 9.73134C15.2761 9.87308 15.1494 10.0021 15.0204 10.1155C14.7616 10.3429 14.4268 10.5645 14.1088 10.7566C13.8233 10.9292 13.5344 11.0881 13.2997 11.2156C13.4349 11.3307 13.5901 11.4589 13.7585 11.5981C13.8948 11.7107 14.0397 11.8305 14.1898 11.9563C14.5571 12.2642 14.9454 12.6003 15.2461 12.9062C15.3958 13.0586 15.5357 13.2153 15.6424 13.3665C15.7353 13.4981 15.861 13.7035 15.8716 13.939C15.8856 14.2512 15.7516 14.5584 15.6092 14.7985C15.4577 15.0539 15.252 15.3073 15.0295 15.5297C14.8071 15.7522 14.5537 15.9578 14.2983 16.1093C14.0583 16.2517 13.751 16.3858 13.4389 16.3718C13.2033 16.3612 12.9979 16.2355 12.8663 16.1426C12.7151 16.0359 12.5584 15.896 12.406 15.7463C12.1001 15.4456 11.764 15.0573 11.4561 14.69C11.3302 14.5398 11.2104 14.3947 11.0977 14.2584C10.9586 14.0901 10.8305 13.935 10.7155 13.8C10.5879 14.0346 10.4291 14.3234 10.2566 14.6089C10.0644 14.9269 9.84287 15.2617 9.61543 15.5205C9.50206 15.6495 9.37301 15.7762 9.23127 15.8727C9.09493 15.9655 8.89761 16.0639 8.66185 16.0533C8.50207 16.0461 8.38387 15.9748 8.31897 15.9268C8.24944 15.8754 8.19337 15.8154 8.15045 15.7634C8.06422 15.659 7.98244 15.5271 7.90636 15.3888C7.75184 15.1079 7.57918 14.7234 7.39955 14.2814C7.03846 13.3929 6.62686 12.2163 6.24833 11.038C5.86952 9.8588 5.52041 8.66724 5.28527 7.74658C5.16811 7.28786 5.07683 6.88709 5.02496 6.5854C4.99938 6.43667 4.98067 6.2968 4.97586 6.17995C4.97351 6.12287 4.97358 6.05311 4.98397 5.98253C4.99067 5.93704 5.01495 5.77733 5.14583 5.64645C5.27671 5.51557 5.43642 5.49128 5.4819 5.48459C5.55248 5.4742 5.62223 5.47412 5.67932 5.47647C5.79617 5.48127 5.93604 5.49998 6.08478 5.52554C6.38648 5.5774 6.78728 5.66865 7.24603 5.78578C8.16674 6.02086 9.35838 6.3699 10.5376 6.74863C11.716 7.12709 12.8927 7.53862 13.7813 7.89966C14.2233 8.07927 14.6078 8.2519 14.8887 8.40641C15.027 8.48248 15.1589 8.56427 15.2633 8.65049C15.3153 8.69342 15.3754 8.74949 15.4268 8.81903ZM10.9845 13.3179C10.9845 13.318 10.9836 13.3193 10.9819 13.3216C10.9837 13.3189 10.9845 13.3178 10.9845 13.3179ZM12.8178 11.4846C12.8177 11.4846 12.8188 11.4838 12.8215 11.482C12.8192 11.4837 12.8179 11.4846 12.8178 11.4846Z" fill="currentColor"/>
</svg>