<svg width="24" height="24" viewBox="0 0 24 24" fill="none" xmlns="http://www.w3.org/2000/svg">
  <g filter="url(#filter0_dd_10_1521)">
    <rect x="4" y="2" width="16" height="16" rx="8" fill="#F7F7F7" shape-rendering="crispEdges" />
    <path
      d="M14.0453 7.08339C14.2405 6.88816 14.557 6.88824 14.7523 7.08339C14.9476 7.27865 14.9476 7.59516 14.7523 7.79042L12.6439 9.89784L14.7523 12.0062C14.9476 12.2015 14.9476 12.518 14.7523 12.7133C14.5571 12.9085 14.2406 12.9085 14.0453 12.7133L11.9369 10.6049L9.82947 12.7133C9.63421 12.9085 9.3177 12.9085 9.12244 12.7133C8.92729 12.518 8.92721 12.2015 9.12244 12.0062L11.2299 9.89784L9.12244 7.79042C8.92717 7.59516 8.92717 7.27865 9.12244 7.08339C9.3177 6.88813 9.63421 6.88813 9.82947 7.08339L11.9369 9.19081L14.0453 7.08339Z"
      fill="#7F848A" />
  </g>
  <defs>
    <filter id="filter0_dd_10_1521" x="0" y="0" width="24" height="24" filterUnits="userSpaceOnUse"
      color-interpolation-filters="sRGB">
      <feFlood flood-opacity="0" result="BackgroundImageFix" />
      <feColorMatrix in="SourceAlpha" type="matrix"
        values="0 0 0 0 0 0 0 0 0 0 0 0 0 0 0 0 0 0 127 0" result="hardAlpha" />
      <feOffset dy="2" />
      <feGaussianBlur stdDeviation="2" />
      <feComposite in2="hardAlpha" operator="out" />
      <feColorMatrix type="matrix" values="0 0 0 0 0 0 0 0 0 0 0 0 0 0 0 0 0 0 0.08 0" />
      <feBlend mode="normal" in2="BackgroundImageFix" result="effect1_dropShadow_10_1521" />
      <feColorMatrix in="SourceAlpha" type="matrix"
        values="0 0 0 0 0 0 0 0 0 0 0 0 0 0 0 0 0 0 127 0" result="hardAlpha" />
      <feOffset dy="1" />
      <feGaussianBlur stdDeviation="0.5" />
      <feComposite in2="hardAlpha" operator="out" />
      <feColorMatrix type="matrix" values="0 0 0 0 0 0 0 0 0 0 0 0 0 0 0 0 0 0 0.08 0" />
      <feBlend mode="normal" in2="effect1_dropShadow_10_1521" result="effect2_dropShadow_10_1521" />
      <feBlend mode="normal" in="SourceGraphic" in2="effect2_dropShadow_10_1521" result="shape" />
    </filter>
  </defs>
</svg>