<svg
  xmlns="http://www.w3.org/2000/svg"
  width="20"
  height="20"
  viewBox="0 0 20 20"
  fill="none"
>
  <path
    d="M10.5 2.12504C9.61057 2.12504 9.04245 2.11924 8.56152 2.24809C7.31088 2.58337 6.33326 3.56088 5.99804 4.81156C5.90097 5.17381 5.88124 5.5854 5.87695 6.14652C5.75511 6.15215 5.6387 6.15899 5.52832 6.16801C4.98978 6.21207 4.52792 6.3048 4.10449 6.52055C3.42256 6.8681 2.86799 7.42256 2.52051 8.10453C2.30474 8.52804 2.21201 8.98969 2.16797 9.52836C2.12454 10.0599 2.125 10.7202 2.125 11.5498V12.4502C2.125 13.2798 2.12455 13.9402 2.16797 14.4717C2.212 15.0103 2.30479 15.4721 2.52051 15.8955C2.86798 16.5775 3.42259 17.132 4.10449 17.4795C4.52792 17.6953 4.98979 17.788 5.52832 17.8321C6.05978 17.8755 6.72036 17.875 7.5498 17.875H8.45019C9.27962 17.875 9.94019 17.8755 10.4717 17.8321C11.0103 17.788 11.472 17.6952 11.8955 17.4795C12.5776 17.132 13.1319 16.5776 13.4795 15.8955C13.6953 15.472 13.788 15.0105 13.832 14.4717C13.8471 14.2873 13.856 14.0873 13.8623 13.8702C14.2339 13.864 14.5232 13.8469 14.7842 13.7891C16.1594 13.4842 17.234 12.4103 17.5391 11.0352C17.6063 10.7319 17.6218 10.3903 17.625 9.92582V7.54984C17.625 6.72025 17.6254 6.0599 17.582 5.52836C17.538 4.9897 17.4453 4.52805 17.2295 4.10453C16.882 3.42257 16.3275 2.86805 15.6455 2.52055C15.2221 2.30489 14.7602 2.21204 14.2217 2.16801C13.6902 2.12462 13.0296 2.12504 12.2002 2.12504H10.5ZM8.45019 7.37504C9.29999 7.37504 9.90039 7.37586 10.3691 7.4141C10.8304 7.45179 11.1101 7.52287 11.3281 7.63383C11.7749 7.86148 12.1385 8.22515 12.3662 8.67192C12.4773 8.88995 12.5482 9.16945 12.5859 9.6309C12.6242 10.0997 12.625 10.6998 12.625 11.5498V12.4502C12.625 13.3003 12.6242 13.9004 12.5859 14.3692C12.5482 14.8307 12.4773 15.1101 12.3662 15.3282C12.1385 15.775 11.775 16.1386 11.3281 16.3663C11.1101 16.4772 10.8304 16.5483 10.3691 16.586C9.90039 16.6242 9.29999 16.625 8.45019 16.625H7.5498C6.69997 16.625 6.09959 16.6243 5.63086 16.586C5.16962 16.5483 4.88986 16.4773 4.67187 16.3663C4.22518 16.1385 3.86142 15.7749 3.63379 15.3282C3.52278 15.1101 3.45175 14.8305 3.41406 14.3692C3.37579 13.9004 3.375 13.3002 3.375 12.4502V11.5498C3.375 10.6998 3.37578 10.0997 3.41406 9.6309C3.45176 9.16949 3.52275 8.88995 3.63379 8.67192C3.86143 8.22515 4.22515 7.86154 4.67187 7.63383C4.88986 7.52278 5.16961 7.45182 5.63086 7.4141C6.09959 7.37583 6.69997 7.37504 7.5498 7.37504H8.45019ZM12.2002 3.37504C13.05 3.37504 13.6504 3.37586 14.1191 3.4141C14.5804 3.45179 14.8601 3.52285 15.0781 3.63383C15.5249 3.86149 15.8885 4.22514 16.1162 4.67192C16.2273 4.88996 16.2982 5.16943 16.3359 5.6309C16.3742 6.0997 16.375 6.69981 16.375 7.54984V9.41703C16.375 10.2243 16.3708 10.5267 16.3184 10.7637C16.1186 11.6648 15.4147 12.3686 14.5137 12.5684C14.3639 12.6015 14.1879 12.6115 13.875 12.6172V11.5498C13.875 10.7202 13.8755 10.0599 13.832 9.52836C13.788 8.98967 13.6953 8.52806 13.4795 8.10453C13.1319 7.42257 12.5775 6.86804 11.8955 6.52055C11.4721 6.30489 11.0102 6.21204 10.4717 6.16801C9.94019 6.12462 9.27961 6.12504 8.45019 6.12504H7.5498C7.40437 6.12504 7.26414 6.12581 7.1289 6.12602C7.13402 5.60282 7.14945 5.34601 7.20605 5.13481C7.42574 4.31575 8.06575 3.67585 8.88476 3.45609C9.16671 3.38054 9.53012 3.37504 10.5 3.37504H12.2002Z"
    fill="currentColor"
  />
</svg>