<svg width="48" height="50" viewBox="0 0 48 50" fill="none" xmlns="http://www.w3.org/2000/svg">
<rect width="48" height="48" rx="6" fill="url(#paint0_linear_722_4481)"/>
<mask id="mask0_722_4481" style="mask-type:alpha" maskUnits="userSpaceOnUse" x="0" y="0" width="48" height="48">
<rect width="48" height="48" rx="6" fill="url(#paint1_linear_722_4481)"/>
</mask>
<g mask="url(#mask0_722_4481)">
<path d="M5 12.2857C5 11.0233 6.02334 10 7.2857 10H35.7139C36.9763 10 37.9996 11.0233 37.9996 12.2857V27.5715C37.9996 29.2283 39.3427 30.5714 40.9996 30.5714C42.6564 30.5714 43.9995 31.9146 43.9995 33.5714V46.5715C43.9995 48.465 42.4645 50 40.571 50H8.42855C6.53502 50 5 48.465 5 46.5714V12.2857Z" fill="url(#paint2_linear_722_4481)"/>
<path d="M10.0703 15.0713H12.0353V22.9314H10.0703V15.0713Z" fill="#323942"/>
<path d="M15.9653 15.0713H17.9303V22.9314H15.9653V15.0713Z" fill="#323942"/>
<path d="M10.0703 15.5625L12.0353 15.0713L17.9303 22.4401L15.9653 22.9314L10.0703 15.5625Z" fill="#323942"/>
<path d="M38 24H42.8571C43.4883 24 44 24.5117 44 25.1429V47C44 48.6569 42.6569 50 41 50C39.3431 50 38 48.6569 38 47V24Z" fill="#FDDBAC"/>
<path d="M21 15.5H33V17.2143H21V15.5Z" fill="#323942"/>
<path d="M21 20.5H33V22.2143H21V20.5Z" fill="#575D66"/>
<rect x="10" y="37" width="23" height="1" fill="#FDD194"/>
<rect x="10" y="41" width="19" height="1" fill="#FDD194"/>
<rect x="10" y="27" width="23" height="7" fill="#FDD194"/>
<g filter="url(#filter0_i_722_4481)">
<rect width="48" height="48" rx="6" fill="white" fill-opacity="0.01"/>
</g>
</g>
<defs>
<filter id="filter0_i_722_4481" x="0" y="-2" width="48" height="50" filterUnits="userSpaceOnUse" color-interpolation-filters="sRGB">
<feFlood flood-opacity="0" result="BackgroundImageFix"/>
<feBlend mode="normal" in="SourceGraphic" in2="BackgroundImageFix" result="shape"/>
<feColorMatrix in="SourceAlpha" type="matrix" values="0 0 0 0 0 0 0 0 0 0 0 0 0 0 0 0 0 0 127 0" result="hardAlpha"/>
<feOffset dy="-2"/>
<feGaussianBlur stdDeviation="2"/>
<feComposite in2="hardAlpha" operator="arithmetic" k2="-1" k3="1"/>
<feColorMatrix type="matrix" values="0 0 0 0 0 0 0 0 0 0 0 0 0 0 0 0 0 0 0.05 0"/>
<feBlend mode="normal" in2="shape" result="effect1_innerShadow_722_4481"/>
</filter>
<linearGradient id="paint0_linear_722_4481" x1="-3.5" y1="-4.5" x2="59.1077" y2="13.067" gradientUnits="userSpaceOnUse">
<stop stop-color="#F36D5F"/>
<stop offset="1" stop-color="#F9C372"/>
</linearGradient>
<linearGradient id="paint1_linear_722_4481" x1="0" y1="0" x2="40.9973" y2="25.0766" gradientUnits="userSpaceOnUse">
<stop stop-color="#F05748"/>
<stop offset="1" stop-color="#F5B049"/>
</linearGradient>
<linearGradient id="paint2_linear_722_4481" x1="24.9998" y1="10" x2="24.9998" y2="50" gradientUnits="userSpaceOnUse">
<stop stop-color="white"/>
<stop offset="1" stop-color="#FFFDFA"/>
</linearGradient>
</defs>
</svg>
