<svg width="20" height="20" viewBox="0 0 20 20" fill="none" xmlns="http://www.w3.org/2000/svg">
<g clip-path="url(#clip0_3820_15840)">
<path fill-rule="evenodd" clip-rule="evenodd" d="M16.7465 1.18436C16.8335 0.94929 17.166 0.94929 17.2529 1.18436L17.5706 2.04291C17.7226 2.45348 18.0463 2.7772 18.4569 2.92913L19.3154 3.24682C19.5505 3.3338 19.5505 3.66628 19.3154 3.75326L18.4569 4.07095C18.0463 4.22288 17.7226 4.5466 17.5706 4.95718L17.2529 5.81572C17.166 6.05079 16.8335 6.05079 16.7465 5.81572L16.4288 4.95718C16.2769 4.5466 15.9532 4.22288 15.5426 4.07095L14.684 3.75326C14.449 3.66628 14.449 3.3338 14.684 3.24682L15.5426 2.92913C15.9532 2.7772 16.2769 2.45348 16.4288 2.04291L16.7465 1.18436ZM2.75 5.00012C2.75 4.30976 3.30964 3.75012 4 3.75012H11C11.6904 3.75012 12.25 4.30976 12.25 5.00012V14.0001C12.25 14.4143 12.5858 14.7501 13 14.7501C13.4142 14.7501 13.75 14.4143 13.75 14.0001V5.00012C13.75 3.48133 12.5188 2.25012 11 2.25012H4C2.48122 2.25012 1.25 3.48134 1.25 5.00012V14.5001C1.25 16.5712 2.92893 18.2501 5 18.2501H14C16.0711 18.2501 17.75 16.5712 17.75 14.5001V9.00012C17.75 8.5859 17.4142 8.25012 17 8.25012C16.5858 8.25012 16.25 8.5859 16.25 9.00012V14.5001C16.25 15.7428 15.2426 16.7501 14 16.7501H5C3.75736 16.7501 2.75 15.7428 2.75 14.5001V5.00012ZM5.50004 8.25012L9.50004 8.2499C9.91425 8.24988 10.25 7.91408 10.25 7.49986C10.25 7.08565 9.91417 6.74988 9.49996 6.7499L5.49996 6.75012C5.08575 6.75014 4.74998 7.08594 4.75 7.50016C4.75002 7.91437 5.08583 8.25014 5.50004 8.25012ZM9.50004 11.7499L5.50004 11.7501C5.08583 11.7501 4.75002 11.4144 4.75 11.0002C4.74998 10.5859 5.08575 10.2501 5.49996 10.2501L9.49996 10.2499C9.91417 10.2499 10.25 10.5857 10.25 10.9999C10.25 11.4141 9.91425 11.7499 9.50004 11.7499Z" fill="url(#paint0_linear_3820_15840)"/>
</g>
<defs>
<linearGradient id="paint0_linear_3820_15840" x1="0.207185" y1="3.03653" x2="18.5161" y2="19.7696" gradientUnits="userSpaceOnUse">
<stop stop-color="#F04848"/>
<stop offset="1" stop-color="#F6C04A"/>
</linearGradient>
<clipPath id="clip0_3820_15840">
<rect width="20" height="20" fill="white"/>
</clipPath>
</defs>
</svg>
