<svg width="20" height="20" viewBox="0 0 20 20" fill="none" xmlns="http://www.w3.org/2000/svg">
<rect width="20" height="20" rx="4" fill="#306CFF"/>
<path fill-rule="evenodd" clip-rule="evenodd" d="M8.38572 7.14985C8.12164 7.18759 7.81983 7.07441 7.59348 6.88578V6.88577C7.21622 6.58398 6.98987 6.169 6.83898 5.75402C6.65033 5.07495 6.68807 4.39588 6.87668 3.71683C7.02759 3.33957 7.25396 2.96231 7.59348 2.73596C7.78211 2.62279 7.97074 2.54733 8.15936 2.50961C8.46116 2.47189 8.8007 2.54733 9.02705 2.69824C9.40431 2.96231 9.66838 3.37729 9.81929 3.82999C10.0456 4.50906 10.0456 5.30129 9.78156 5.94265C9.63065 6.28217 9.44205 6.58398 9.17795 6.81033C8.9516 6.99896 8.68753 7.14985 8.38572 7.14985ZM12.3092 7.30076C11.9697 7.30076 11.6301 7.14985 11.366 6.9235V6.92352C11.102 6.65942 10.9888 6.31989 10.9133 5.98037C10.8379 5.64084 10.8379 5.26358 10.8756 4.88632C10.9133 4.54679 11.0642 4.24499 11.2151 3.9809C11.366 3.6791 11.5924 3.41503 11.8565 3.18868C12.0451 3.03777 12.2715 2.88687 12.5355 2.84914C12.7242 2.81142 12.9505 2.88687 13.1392 2.96231C13.4032 3.0755 13.6296 3.30185 13.8182 3.5282C14.0823 3.86773 14.2709 4.24499 14.3086 4.65997C14.3464 4.96178 14.3086 5.26358 14.2332 5.52765C14.12 5.86719 13.9691 6.169 13.7805 6.4708C13.6296 6.73487 13.4032 6.96124 13.1391 7.11213C12.8751 7.26304 12.611 7.33848 12.3092 7.30076ZM6.65035 9.18704C6.53717 9.48884 6.38628 9.79066 6.12218 10.017C5.78263 10.3188 5.36767 10.432 4.95269 10.432C4.61316 10.432 4.27364 10.3188 4.00954 10.0925C3.67001 9.79065 3.44366 9.37567 3.33049 8.92295C3.25503 8.62116 3.21731 8.31935 3.25503 8.01755C3.3305 7.52713 3.4814 6.99896 3.7832 6.58398C4.00955 6.28217 4.31136 6.01809 4.6886 5.98037C4.99042 5.90491 5.32995 5.98037 5.66947 6.13126C6.08446 6.35763 6.42398 6.73487 6.61261 7.14985C6.68807 7.33848 6.76352 7.52711 6.76352 7.71574C6.80124 8.20618 6.80124 8.69661 6.65035 9.18704ZM16.7231 8.05527C16.874 8.31935 16.9494 8.58342 16.9872 8.88523C16.9872 8.94442 16.9879 9.0036 16.9887 9.0629C16.9933 9.41936 16.998 9.77977 16.8363 10.1679C16.7985 10.432 16.6853 10.7338 16.4967 10.9601C16.3458 11.1865 16.0817 11.3374 15.8177 11.4128C15.5536 11.4883 15.2518 11.4883 14.9877 11.4506C14.6482 11.4128 14.3086 11.3374 14.0446 11.111C13.7805 10.9601 13.6296 10.6583 13.5541 10.3943C13.441 10.017 13.441 9.60202 13.441 9.22478V9.22477C13.441 8.80979 13.5164 8.39481 13.6673 8.01755C13.8182 7.71574 14.0068 7.45166 14.2709 7.30076C14.4441 7.19688 14.649 7.15655 14.8274 7.12146C14.8433 7.11832 14.859 7.11523 14.8745 7.11213C15.2518 7.07441 15.6668 7.11213 16.0063 7.30076C16.3081 7.45166 16.5722 7.75346 16.7231 8.05527ZM15.2518 13.1105C15.629 13.5255 15.8931 14.0536 15.9308 14.5818C16.0063 15.1854 15.8554 15.7513 15.5536 16.2417C15.365 16.619 15.0631 16.9585 14.6859 17.1472C14.1577 17.449 13.5541 17.5244 12.9882 17.4867C12.4224 17.449 11.8565 17.3735 11.3283 17.1849C10.687 16.9962 10.0079 16.9585 9.32886 17.034C9.1494 17.0539 8.98047 17.0949 8.81652 17.1347C8.67028 17.1703 8.528 17.2048 8.38572 17.2226C7.70666 17.3358 6.98987 17.3735 6.27309 17.3358C5.70719 17.298 5.14132 16.9962 4.76407 16.5435C4.53771 16.2795 4.3868 15.9399 4.27362 15.6004C4.16045 15.2986 4.12273 14.9591 4.12273 14.6195C4.16045 14.2046 4.27362 13.8273 4.46225 13.4878C4.72634 12.9973 5.17905 12.5446 5.63175 12.2051C5.68836 12.1485 5.7544 12.0919 5.82045 12.0353C5.88645 11.9787 5.95244 11.9221 6.00901 11.8656C6.23537 11.6769 6.46172 11.4883 6.68807 11.262C7.10306 10.8847 7.48031 10.432 7.78211 9.97928L7.7822 9.9791C7.85763 9.82826 7.93305 9.67743 8.04618 9.5643C8.46116 9.03613 9.06479 8.65888 9.74384 8.58342C10.1211 8.5457 10.5361 8.62116 10.8756 8.77205C11.4415 9.03613 11.8565 9.48884 12.1583 9.97928C12.5732 10.5452 13.026 11.0733 13.5164 11.5638L13.517 11.5643C14.0072 12.0168 14.4975 12.4693 14.9877 12.8842C15.1008 12.9595 15.1762 13.0349 15.2516 13.1103L15.2518 13.1105ZM7.85757 16.1286H9.59294C9.59294 14.4309 9.59294 12.6955 9.55521 10.9224H8.57435V12.356H7.55576C7.44257 12.356 7.3294 12.3937 7.21622 12.4315C6.95215 12.5446 6.68807 12.6955 6.49945 12.8842C6.27309 13.1105 6.08446 13.4123 6.009 13.7519C5.97128 14.0525 5.97128 14.3566 6.009 14.6573C6.04673 14.9591 6.15991 15.2231 6.34853 15.4495C6.57488 15.789 6.91442 16.0154 7.29168 16.0908C7.48031 16.1286 7.66894 16.1286 7.85757 16.1286ZM11.102 16.1286H13.4787V12.5069H12.4978V15.2986H11.4792C11.366 15.2986 11.2529 15.2609 11.1774 15.1854C11.102 15.11 11.0642 15.0345 11.0642 14.9213V12.5446H10.0834V15.11C10.0834 15.374 10.1966 15.6758 10.4229 15.8645C10.6115 16.0154 10.8379 16.0908 11.102 16.1286ZM7.00305 13.7151C7.11548 13.4903 7.30286 13.3404 7.49026 13.2654L7.49029 13.2654C7.56522 13.2279 7.64015 13.1905 7.67761 13.2279H8.53959V15.2516H7.75257C7.49024 15.2891 7.22792 15.1392 7.07801 14.9143C6.96558 14.727 6.89062 14.5021 6.89062 14.2773C6.89062 14.0899 6.92811 13.9025 7.00305 13.7151Z" fill="white"/>
</svg>
