<svg width="20" height="20" viewBox="0 0 20 20" fill="none" xmlns="http://www.w3.org/2000/svg">
<rect x="0.25" y="0.25" width="19.5" height="19.5" rx="3.75" fill="white"/>
<rect x="0.25" y="0.25" width="19.5" height="19.5" rx="3.75" stroke="#E6E6E6" stroke-width="0.5"/>
<path d="M6.53517 14.5618C6.48736 14.4821 6.37182 14.2889 6.2762 14.1335C6.18059 13.9781 6.10887 13.8466 6.11485 13.8407C6.13477 13.8187 7.15469 13.8267 7.15469 13.8486C7.15469 13.8586 7.05509 14.0319 6.93158 14.2311C6.81007 14.4323 6.69652 14.6195 6.68258 14.6514C6.66664 14.6813 6.64672 14.7052 6.63676 14.7052C6.6268 14.7052 6.58099 14.6395 6.53517 14.5618ZM5.93357 13.5677C5.90369 13.5239 5.88377 13.4781 5.88975 13.4681C5.9017 13.4502 7.35987 13.4422 7.37979 13.4622C7.38577 13.4701 7.37581 13.5 7.35589 13.5279C7.33597 13.5558 7.31406 13.5956 7.30808 13.6156C7.29613 13.6474 7.24633 13.6494 6.64075 13.6494H5.98736L5.93357 13.5677ZM5.71047 13.1972C5.68855 13.1554 5.66863 13.1156 5.66465 13.1076C5.66066 13.0976 6.09692 13.0917 6.63477 13.0917C7.17262 13.0917 7.61286 13.0956 7.61286 13.1016C7.61286 13.1076 7.59095 13.1474 7.56306 13.1913L7.51326 13.2709H5.74831L5.71047 13.1972ZM5.54911 12.8964C5.53716 12.8885 5.44951 12.753 5.35389 12.5956C5.25827 12.4383 5.16863 12.2909 5.1527 12.2669C5.13676 12.245 5.12281 12.2191 5.12281 12.2112C5.12281 12.2012 5.80409 12.1952 6.63875 12.1952C7.9535 12.1952 8.1527 12.1992 8.14473 12.2231C8.13876 12.2391 8.06306 12.3685 7.97541 12.508C7.88975 12.6474 7.79812 12.7968 7.77422 12.8387L7.7284 12.9124H6.65071C6.05708 12.9124 5.56106 12.9044 5.54911 12.8964ZM12.4734 12.4164C12.4455 12.3964 12.3838 12.3586 12.334 12.3307L12.2443 12.2809L12.2384 11.9801L12.2324 11.6773L13.3041 11.6813L14.3758 11.6873L14.3818 11.9661L14.3878 12.247L14.2942 12.3148C14.2444 12.3526 14.1946 12.4004 14.1846 12.4203C14.1667 12.4522 14.1069 12.4542 13.344 12.4542C12.581 12.4522 12.5192 12.4502 12.4734 12.4164ZM4.95349 11.9363C4.9256 11.8924 4.90369 11.8486 4.90369 11.8367C4.90369 11.8148 8.3539 11.8068 8.37581 11.8287C8.38179 11.8367 8.36187 11.8805 8.328 11.9283L8.26824 12.016H5.00329L4.95349 11.9363ZM4.72042 11.5478L4.66465 11.4582H8.61286L8.58498 11.504C8.56904 11.5279 8.54314 11.5677 8.52721 11.5936L8.49932 11.6375H4.77421L4.72042 11.5478ZM12.2344 11.3984V11.2988L13.3061 11.3028L14.3758 11.3088V11.4881L13.3061 11.494L12.2344 11.498V11.3984ZM4.49333 11.1693C4.45548 11.1155 4.4256 11.0638 4.4256 11.0558C4.4256 11.0458 5.42162 11.0399 6.63676 11.0399C7.8539 11.0399 8.84792 11.0458 8.84792 11.0558C8.84792 11.0638 8.82601 11.1036 8.79812 11.1434C8.77023 11.1833 8.74832 11.2271 8.74832 11.2371C8.74832 11.253 8.09294 11.261 6.65469 11.263L4.55907 11.2689L4.49333 11.1693ZM12.2344 9.26495V7.41235L12.2902 7.34263L12.3439 7.2749H16.9177L17.0591 7.42431C17.2623 7.63945 17.344 7.75498 17.4635 8.002C17.7005 8.48606 17.7464 8.94224 17.6009 9.38049C17.4555 9.81475 17.1866 10.2271 16.7802 10.6375L16.5969 10.8207H14.7842L14.7882 10.1116L14.7942 9.4024L15.2623 9.39841C15.7822 9.39045 15.842 9.38049 15.9595 9.27491C16.087 9.15937 16.1109 8.99403 16.0212 8.84861C15.9714 8.76694 15.8639 8.68925 15.8001 8.68925C15.7722 8.68925 15.7384 8.67929 15.7284 8.66933C15.7145 8.65538 15.4754 8.6514 15.0511 8.65339L14.3957 8.65937L14.3898 9.89045L14.3858 11.1195H12.2344V9.26495ZM4.12082 10.5478C3.89174 10.1733 3.47142 9.48009 3.3001 9.18726C3.11285 8.87052 2.65269 8.10558 2.40767 7.70717C2.28815 7.51195 2.18456 7.33466 2.18058 7.31275C2.17062 7.2749 2.20846 7.2749 4.27221 7.2749C5.42959 7.2749 6.37979 7.28088 6.38377 7.29084C6.38975 7.29881 6.3519 7.38247 6.30011 7.4761C6.24832 7.56972 6.13875 7.77092 6.05907 7.92431C5.97939 8.0757 5.82202 8.37251 5.71047 8.57969C5.59891 8.78885 5.43756 9.09363 5.3519 9.25698C5.26624 9.42232 5.19054 9.56575 5.18258 9.57571C5.17461 9.58766 5.13078 9.66734 5.08696 9.75499C4.99532 9.93427 4.97142 10.0618 5.01325 10.1434C5.05309 10.2211 5.19453 10.3406 5.30011 10.3885C5.41564 10.4383 5.66266 10.4582 5.73238 10.4223C5.76027 10.4064 5.83796 10.2928 5.9276 10.1355C6.3519 9.38447 6.5033 9.11355 6.63676 8.86853C6.71644 8.72112 6.83796 8.502 6.90569 8.38048C6.97342 8.26096 7.06107 8.10359 7.09892 8.03188C7.38975 7.49203 7.48139 7.33466 7.50529 7.33466C7.52123 7.33466 7.53916 7.32072 7.54513 7.30478C7.55509 7.27889 7.77422 7.2749 9.33797 7.2749C10.7503 7.2749 11.1188 7.28088 11.1188 7.3008C11.1169 7.31275 11.077 7.38845 11.0292 7.46415C10.9814 7.54184 10.9057 7.66136 10.8639 7.73307C10.82 7.80478 10.6328 8.11355 10.4475 8.42032C10.2623 8.7271 9.87581 9.36455 9.59095 9.83467C9.30808 10.3068 9.05111 10.7291 9.02123 10.7769L8.96745 10.8606H4.31206L4.12082 10.5478Z" fill="black"/>
<path d="M9.80469 12.1556V11.8568L10.7748 11.8608L11.7469 11.8667V12.4444L10.7768 12.4504L9.80469 12.4544V12.1556ZM9.80469 11.5879V11.4982H11.7489L11.7469 11.5839L11.7449 11.6675L10.7748 11.6735L9.80469 11.6775V11.5879ZM9.80469 11.2094V11.1197H11.7529L11.7489 11.2054L11.7449 11.2891L10.7748 11.295L9.80469 11.299V11.2094ZM9.80469 10.6934V10.4843L10.2051 9.82092C10.4262 9.45638 10.6593 9.07192 10.721 8.96833C10.9182 8.64164 11.5059 7.67152 11.6194 7.49024C11.6772 7.39263 11.733 7.31494 11.7409 7.31494C11.7489 7.31494 11.7529 8.11972 11.7509 9.10379L11.7469 10.8906L10.7768 10.8966L9.80469 10.9006V10.6934Z" fill="#D92C2C"/>
</svg>
