<svg width="20" height="20" viewBox="0 0 20 20" fill="none" xmlns="http://www.w3.org/2000/svg">
<rect width="20" height="20" rx="4" fill="#1989FE"/>
<path fill-rule="evenodd" clip-rule="evenodd" d="M12.2039 3.25197C12.1195 3.24145 12.0409 3.31598 12.0499 3.40126C12.0497 4.54237 12.0497 5.68356 12.0497 6.82477C12.0498 7.68006 12.0498 8.53536 12.0497 9.39067C11.9497 9.39067 11.8497 9.39068 11.7497 9.39069C11.4504 9.39074 11.1511 9.39078 10.852 9.39045C10.8052 9.38831 10.7543 9.39819 10.7237 9.43685C10.6871 9.47741 10.6885 9.53143 10.6898 9.58372C10.6902 9.6001 10.6906 9.61631 10.6898 9.63189C10.6905 11.65 10.6903 13.6679 10.6901 15.686C10.6901 16.0233 10.6901 16.3607 10.69 16.6981C10.6911 16.716 10.6905 16.7348 10.6898 16.7538C10.688 16.8099 10.6862 16.8678 10.7261 16.9112C10.7568 16.9472 10.8058 16.9565 10.8511 16.9558H15.1479C15.1873 16.9556 15.2268 16.9558 15.2663 16.9559C15.4506 16.9568 15.6359 16.9577 15.8157 16.9124C16.1863 16.8259 16.5216 16.5995 16.7415 16.2891C16.9331 16.0228 17.0369 15.6954 17.0356 15.3674C17.0357 14.3968 17.0357 13.4263 17.0357 12.4558C17.0357 11.4853 17.0357 10.5148 17.0358 9.54425C17.0459 9.46091 16.9726 9.38122 16.8878 9.39088C16.2687 9.39064 15.6495 9.39067 15.0304 9.39071C14.5659 9.39073 14.1015 9.39076 13.637 9.39067C13.6366 8.25804 13.6366 7.12541 13.6368 5.99279C13.7896 5.99276 13.9424 5.99272 14.0952 5.99269C15.0116 5.99248 15.9279 5.99227 16.8444 5.993C16.8585 5.99239 16.8731 5.99264 16.888 5.9929C16.9409 5.99382 16.9963 5.99478 17.0369 5.9567C17.0738 5.92556 17.0826 5.87529 17.0813 5.82933C17.0811 5.61786 17.0811 5.40639 17.0811 5.19492C17.0811 4.98345 17.0811 4.77199 17.0809 4.56052C17.0912 4.47632 17.0167 4.39792 16.9318 4.40758C16.3042 4.40734 15.6767 4.40737 15.0491 4.40741C14.5784 4.40743 14.1077 4.40746 13.637 4.40737C13.6365 4.25138 13.6367 4.09539 13.6368 3.93942C13.6369 3.75949 13.637 3.57959 13.6362 3.39975C13.6428 3.32178 13.5758 3.24703 13.4961 3.25262C13.1885 3.25124 12.8808 3.2515 12.5731 3.25176C12.45 3.25187 12.327 3.25197 12.2039 3.25197ZM15.4497 15.3689C14.3918 15.3691 13.334 15.3693 12.2761 15.3689C12.2764 14.8308 12.2762 14.2927 12.276 13.7547C12.2756 12.828 12.2753 11.9014 12.2776 10.9748C12.8945 10.9762 13.5112 10.976 14.128 10.9759C14.5686 10.9758 15.0091 10.9756 15.4497 10.9761C15.4499 12.4404 15.4499 13.9046 15.4497 15.3689ZM4.66646 3.27538C4.19025 3.27581 3.72285 3.50951 3.43245 3.88627C3.21142 4.16765 3.09199 4.52551 3.09801 4.88314C3.09797 5.39489 3.09792 5.90665 3.09786 6.41841C3.09762 8.72142 3.09738 11.0245 3.09844 13.3275C3.09328 13.4074 3.16825 13.4735 3.24643 13.4671C3.6771 13.4677 4.10799 13.468 4.53865 13.4671C4.60438 13.4705 4.67076 13.4239 4.68085 13.3573C4.68633 13.3107 4.68568 13.2637 4.68503 13.2168C4.68474 13.1957 4.68445 13.1747 4.68472 13.1537C4.68481 11.9688 4.68478 10.784 4.68476 9.59923C4.68472 8.01951 4.68469 6.43984 4.68493 4.86016C5.81777 4.85973 6.95062 4.85973 8.08346 4.86016C8.08385 6.15379 8.08375 7.44746 8.08365 8.74114C8.08353 10.27 8.0834 11.7989 8.0841 13.3277C8.07981 13.4067 8.15327 13.4733 8.23124 13.4671C8.66105 13.4677 9.09086 13.4677 9.52067 13.4671C9.60916 13.4755 9.68348 13.3921 9.6706 13.3049V3.57245C9.67041 3.55406 9.67064 3.53566 9.67087 3.51726C9.67143 3.47244 9.672 3.42761 9.66651 3.383C9.65535 3.31641 9.58876 3.26894 9.52239 3.27496C9.22806 3.27492 8.93373 3.27486 8.63941 3.27481C7.31508 3.27457 5.99084 3.27433 4.66646 3.27538ZM5.74006 5.76682C5.6578 5.75802 5.5839 5.83234 5.59185 5.91439C5.59153 7.03155 5.59158 8.14871 5.59164 9.26589C5.59169 10.3831 5.59175 11.5003 5.59142 12.6176C5.58605 13.2865 5.33173 13.9495 4.88818 14.4502C4.4444 14.9591 3.81268 15.301 3.14273 15.3882C3.11459 15.4256 3.09311 15.4686 3.09848 15.5171C3.09892 15.6942 3.09875 15.8714 3.09859 16.0485C3.09835 16.309 3.09811 16.5695 3.09977 16.83C3.09891 16.9167 3.18161 16.9945 3.26968 16.9769C3.69369 16.9378 4.11147 16.8306 4.50347 16.6644C5.24452 16.3501 5.88312 15.814 6.34772 15.1595C6.35076 15.1556 6.35366 15.1516 6.35657 15.1475C6.36556 15.135 6.37458 15.1224 6.38789 15.1146C6.64221 15.4737 6.94185 15.8022 7.28639 16.0765C7.88782 16.5604 8.6263 16.8703 9.39269 16.9616C9.40763 16.9629 9.4232 16.9651 9.43904 16.9674C9.50021 16.9762 9.56539 16.9855 9.61351 16.9402C9.66141 16.9036 9.67515 16.8416 9.67193 16.7844C9.67144 16.5429 9.67151 16.3013 9.67158 16.0597C9.67163 15.8786 9.67169 15.6974 9.6715 15.5163C9.67451 15.4624 9.65496 15.3844 9.58687 15.3893C9.06835 15.3287 8.561 15.1333 8.15632 14.7997C7.64403 14.3832 7.32097 13.762 7.22045 13.114C7.1763 12.8615 7.17736 12.6054 7.17843 12.3498C7.17868 12.2883 7.17894 12.2268 7.17856 12.1654V6.06625C7.17837 6.04752 7.17864 6.02876 7.17891 6.00999C7.17956 5.96418 7.18021 5.91834 7.17427 5.87293C7.16245 5.80742 7.09608 5.76103 7.03057 5.76682C6.60033 5.7664 6.17009 5.7664 5.74006 5.76682Z" fill="white"/>
</svg>
