<svg width="20" height="20" viewBox="0 0 20 20" fill="none" xmlns="http://www.w3.org/2000/svg">
<g clip-path="url(#clip0_1244_5657)">
<rect width="20" height="20" rx="4" fill="white"/>
<path d="M0.00195393 10.0127C0.00274733 11.9885 0.589775 13.9197 1.68882 15.5621C2.78786 17.2045 4.34956 18.4844 6.17646 19.24C8.00337 19.9955 10.0134 20.1928 11.9525 19.8069C13.8916 19.4209 15.6727 18.4691 17.0705 17.0717C18.4683 15.6743 19.4201 13.8942 19.8055 11.9563C20.1909 10.0184 19.9927 8.00984 19.2359 6.18452C18.4791 4.35921 17.1976 2.79912 15.5536 1.70151C13.9096 0.603906 11.9768 0.0180666 9.99963 0.0180664C8.68638 0.0180663 7.38599 0.276614 6.17276 0.778941C4.95952 1.28127 3.85721 2.01753 2.92879 2.94567C2.00036 3.87381 1.26402 4.97564 0.76183 6.18822C0.259636 7.40081 0.00142695 8.70038 0.00195393 10.0127Z" fill="white"/>
<path d="M5.04719 8.72223L2.18555 3.77193C3.19317 2.50511 4.49383 1.50201 5.97552 0.849004C7.45721 0.196002 9.07553 -0.08733 10.6911 0.0234066C12.3067 0.134143 13.8712 0.635629 15.2498 1.48468C16.6284 2.33373 17.7798 3.50491 18.6049 4.89735H10.4488C10.3003 4.88243 10.1511 4.87641 10.0019 4.87934C8.86836 4.88723 7.76893 5.26784 6.87341 5.9624C5.97789 6.65695 5.33611 7.62681 5.04719 8.72219V8.72223Z" fill="#DD4E41"/>
<path d="M13.5801 6.34619H19.3214C19.7764 7.50756 20.0069 8.74461 20.0007 9.9918C20.0025 12.6231 18.9648 15.1487 17.1134 17.0197C15.2619 18.8906 12.7463 19.9557 10.1133 19.9834L14.2093 12.9055C14.8978 11.9146 15.2127 10.7121 15.0981 9.51125C14.9834 8.31042 14.4467 7.18904 13.5831 6.34619H13.5801Z" fill="#FFCD41"/>
<path d="M6.36914 10.012C6.36835 9.29416 6.58064 8.59221 6.97915 7.99497C7.37766 7.39772 7.94449 6.93201 8.60793 6.65676C9.27137 6.3815 10.0016 6.30907 10.7062 6.44863C11.4109 6.58819 12.0583 6.93346 12.5665 7.44077C13.0747 7.94808 13.4209 8.59462 13.5614 9.29861C13.7018 10.0026 13.6301 10.7324 13.3554 11.3957C13.0807 12.0589 12.6153 12.6259 12.0181 13.0248C11.4208 13.4237 10.7186 13.6366 10.0003 13.6366C9.03811 13.636 8.11543 13.2541 7.43469 12.5746C6.75395 11.8951 6.37074 10.9735 6.36914 10.012Z" fill="#4C8BF5"/>
<path d="M11.3784 14.9418L8.51677 19.9111C6.14964 19.5522 3.98935 18.3582 2.42708 16.5452C0.8648 14.7322 0.00381179 12.4201 1.34143e-05 10.0276C-0.00282056 8.31005 0.443432 6.62156 1.29457 5.12939L5.3726 12.1713C5.78724 13.0491 6.44197 13.7916 7.26112 14.3133C8.08026 14.8349 9.03039 15.1142 10.0017 15.119C10.4663 15.1137 10.9287 15.0539 11.3794 14.9408L11.3784 14.9418Z" fill="#1DA362"/>
</g>
<defs>
<clipPath id="clip0_1244_5657">
<rect width="20" height="20" rx="4" fill="white"/>
</clipPath>
</defs>
</svg>
