<svg width="20" height="20" viewBox="0 0 20 20" fill="none" xmlns="http://www.w3.org/2000/svg">
<rect width="20" height="20" rx="4" fill="#FA3F44"/>
<path d="M17.3084 8.90582V8.90749C17.2362 9.12724 17.0383 9.28156 16.8068 9.30001C16.5753 9.31846 16.3556 9.19601 16.2499 8.99137C16.1811 8.85717 16.1677 8.70117 16.2147 8.55691H16.213C16.525 7.60413 16.3002 6.55909 15.6226 5.81431C14.9482 5.07121 13.9233 4.74075 12.9353 4.95043C12.786 4.9823 12.63 4.95379 12.5025 4.87159C12.375 4.7894 12.2845 4.66023 12.2526 4.51262C12.1872 4.20565 12.3851 3.90204 12.6954 3.83662C14.0357 3.55313 15.49 3.96745 16.4747 5.05108C17.4627 6.13302 17.7277 7.60916 17.3084 8.90582ZM13.3295 6.7738C13.202 6.80064 13.0678 6.77715 12.9571 6.70502C12.8464 6.63457 12.7709 6.52386 12.7424 6.39638C12.6854 6.13134 12.8548 5.87134 13.1232 5.81431C13.7992 5.67005 14.502 5.89482 14.965 6.40476C15.4464 6.93316 15.5739 7.65277 15.3693 8.28349C15.329 8.40762 15.2418 8.50994 15.1244 8.56865C15.0069 8.62736 14.8711 8.6391 14.7469 8.59885C14.4869 8.51497 14.3444 8.2382 14.4299 7.98155H14.4282C14.5322 7.66284 14.4584 7.31226 14.232 7.06232C14.0022 6.81406 13.66 6.70335 13.3295 6.7738ZM13.769 9.55666C14.6295 9.82169 15.5873 10.4625 15.5873 11.5897C15.5873 13.4584 12.8732 15.8118 8.79373 15.8118C5.68209 15.8118 2.5 14.3139 2.5 11.8514C2.5 10.5631 3.32194 9.07524 4.73602 7.66955C6.62481 5.79418 8.82895 4.94037 9.65761 5.76399C10.0233 6.12631 10.0585 6.75535 9.82367 7.50516C9.70122 7.88258 10.181 7.6729 10.181 7.67458C11.7074 7.03883 13.041 7.00193 13.5274 7.69303C13.7858 8.06039 13.7623 8.57704 13.5224 9.17588C13.4117 9.45098 13.556 9.49292 13.769 9.55666ZM8.80044 14.9295C11.283 14.6862 13.1668 13.1766 13.0058 11.5562C12.8447 9.93911 10.701 8.82362 8.21837 9.06685C5.73577 9.31008 3.85201 10.8214 4.01304 12.4385C4.17408 14.0589 6.31784 15.1727 8.80044 14.9295ZM9.0487 10.3149C10.2715 10.6285 10.8955 11.7742 10.3957 12.8864C9.88909 14.0253 8.4314 14.6309 7.19513 14.235C6.0008 13.8526 5.49589 12.6817 6.01925 11.6266C6.53255 10.5933 7.86778 10.0096 9.0487 10.3149ZM8.14624 13.0071C8.38276 12.623 8.25863 12.1835 7.86946 12.0191C7.48533 11.8598 6.98713 12.0242 6.75061 12.3932C6.51074 12.7639 6.62313 13.2068 7.00558 13.3779C7.39307 13.554 7.90637 13.3862 8.14624 13.0071Z" fill="white"/>
</svg>
