<svg width="20" height="20" viewBox="0 0 20 20" fill="none" xmlns="http://www.w3.org/2000/svg">
<path d="M19.8039 10.2303C19.8039 9.55118 19.7489 8.86787 19.6314 8.19873H10.1992V12.0494H15.6007C15.49 12.6648 15.2558 13.2513 14.9122 13.7736C14.5687 14.2959 14.1228 14.7432 13.6016 15.0885V17.5867H16.824C18.7164 15.8451 19.8039 13.2727 19.8039 10.2303Z" fill="#4285F4"/>
<path d="M10.2012 20C12.8986 20 15.1726 19.1151 16.8301 17.5868L13.6077 15.0886C12.7111 15.6977 11.5536 16.0435 10.2053 16.0435C7.59624 16.0435 5.38382 14.2836 4.59051 11.917H1.26562V14.4927C2.09834 16.1487 3.37485 17.5407 4.95269 18.5133C6.53053 19.4859 8.34762 20.0009 10.2012 20.0009V20Z" fill="#34A853"/>
<path d="M4.58638 11.9171C4.16762 10.6754 4.16762 9.33064 4.58638 8.08893V5.51318H1.26483C0.565403 6.90652 0.201172 8.444 0.201172 10.003C0.201172 11.5621 0.565403 13.0995 1.26483 14.4929L4.58638 11.918V11.9171Z" fill="#FBBC04"/>
<path d="M10.2012 3.95888C11.6269 3.93588 13.0045 4.47431 14.0369 5.45799L16.8926 2.60309C15.0821 0.903752 12.6841 -0.0288662 10.2012 0.000681244C8.3471 0.000627825 6.52956 0.516119 4.9516 1.48955C3.37365 2.46299 2.09746 3.85602 1.26562 5.51299L4.58718 8.0879C5.37632 5.71965 7.59208 3.95888 10.2012 3.95888Z" fill="#EA4335"/>
</svg>
