<svg width="20" height="20" viewBox="0 0 20 20" fill="none" xmlns="http://www.w3.org/2000/svg">
<g clip-path="url(#clip0_1249_5781)">
<path d="M10.0091 0C4.47428 0 0 4.58352 0 10.2535C0 14.7861 2.86686 18.6227 6.844 19.9807C7.34114 20.0826 7.52343 19.7601 7.52343 19.4884C7.52343 19.2508 7.50685 18.4359 7.50685 17.5871C4.72286 18.1983 4.14286 16.3649 4.14286 16.3649C3.69543 15.1765 3.03257 14.871 3.03257 14.871C2.12114 14.2429 3.09886 14.2429 3.09886 14.2429C4.10971 14.3108 4.64 15.2954 4.64 15.2954C5.53485 16.8572 6.97657 16.4158 7.55657 16.1442C7.63943 15.4821 7.90457 15.0238 8.18628 14.7691C5.96571 14.5315 3.62914 13.6487 3.62914 9.71027C3.62914 8.58986 4.02686 7.67315 4.65657 6.96016C4.55714 6.70552 4.20914 5.65301 4.756 4.244C4.756 4.244 5.60114 3.97238 7.50685 5.29651C8.30228 5.07582 9.164 4.95699 10.0091 4.95699C10.8543 4.95699 11.716 5.07582 12.5114 5.29651C14.4171 3.97238 15.2623 4.244 15.2623 4.244C15.8091 5.65301 15.4611 6.70552 15.3617 6.96016C16.008 7.67315 16.3891 8.58986 16.3891 9.71027C16.3891 13.6487 14.0526 14.5145 11.8154 14.7691C12.18 15.0917 12.4949 15.7028 12.4949 16.6704C12.4949 18.0455 12.4783 19.1489 12.4783 19.4884C12.4783 19.7601 12.6606 20.0826 13.1577 19.9807C17.1348 18.6227 20.0017 14.7861 20.0017 10.2535C20.0183 4.58352 15.5274 0 10.0091 0Z" fill="#191717"/>
<path d="M3.79428 14.7183C3.77771 14.7692 3.69485 14.7862 3.62856 14.7523C3.56228 14.7183 3.51256 14.6504 3.54571 14.5995C3.56228 14.5485 3.64513 14.5316 3.71142 14.5655C3.77771 14.5995 3.81085 14.6674 3.79428 14.7183ZM4.19199 15.1767C4.14228 15.2276 4.04285 15.1936 3.99313 15.1257C3.92685 15.0578 3.91028 14.956 3.95999 14.905C4.00971 14.8541 4.09256 14.8881 4.15885 14.956C4.22513 15.0408 4.24171 15.1427 4.19199 15.1767ZM4.58971 15.7708C4.52342 15.8217 4.42399 15.7708 4.37428 15.6859C4.30799 15.6011 4.30799 15.4822 4.37428 15.4483C4.44056 15.3973 4.53999 15.4483 4.58971 15.5331C4.65599 15.618 4.65599 15.7199 4.58971 15.7708ZM5.13656 16.348C5.08685 16.4159 4.97085 16.3989 4.87142 16.314C4.78856 16.2292 4.75542 16.1103 4.82171 16.0594C4.87142 15.9915 4.98742 16.0085 5.08685 16.0934C5.1697 16.1613 5.18628 16.2801 5.13656 16.348ZM5.88228 16.6705C5.8657 16.7554 5.7497 16.7894 5.6337 16.7554C5.5177 16.7215 5.45142 16.6196 5.46799 16.5517C5.48456 16.4668 5.60056 16.4329 5.71656 16.4668C5.83256 16.5008 5.89885 16.5857 5.88228 16.6705ZM6.69428 16.7384C6.69428 16.8233 6.59485 16.8912 6.47885 16.8912C6.36285 16.8912 6.26342 16.8233 6.26342 16.7384C6.26342 16.6536 6.36285 16.5857 6.47885 16.5857C6.59485 16.5857 6.69428 16.6536 6.69428 16.7384ZM7.45656 16.6026C7.47313 16.6875 7.39028 16.7724 7.27428 16.7894C7.15828 16.8063 7.05885 16.7554 7.04228 16.6705C7.0257 16.5857 7.10856 16.5008 7.22456 16.4838C7.34056 16.4668 7.43999 16.5178 7.45656 16.6026Z" fill="#191717"/>
</g>
<defs>
<clipPath id="clip0_1249_5781">
<rect width="20" height="20" rx="4" fill="white"/>
</clipPath>
</defs>
</svg>
