<svg width="20" height="20" viewBox="0 0 20 20" fill="none" xmlns="http://www.w3.org/2000/svg">
<rect width="20" height="20" rx="4" fill="#E10000"/>
<path fill-rule="evenodd" clip-rule="evenodd" d="M9.49113 10.0072C9.60273 10.3122 9.63993 10.6322 9.66969 10.9595C9.67539 11.0136 9.68436 11.0678 9.69326 11.1215L9.69327 11.1215C9.70761 11.2081 9.72177 11.2935 9.72177 11.3762C9.74409 11.5473 9.68457 11.711 9.59529 11.8449C9.51345 11.9565 9.38697 11.9937 9.26049 11.9639C9.11913 11.9342 9.01497 11.8151 8.98521 11.6589L8.97708 11.6167C8.94926 11.4733 8.92025 11.3236 8.94057 11.1678C8.94801 11.086 8.94801 10.9967 8.91825 10.9149C8.88195 10.7999 8.88992 10.685 8.89817 10.5661C8.90007 10.5387 8.90198 10.5112 8.90337 10.4834C8.91124 10.2904 8.90036 10.0996 8.88948 9.90862V9.90861V9.9086V9.90859V9.90859C8.87979 9.73871 8.87011 9.56873 8.87361 9.39711C8.87361 9.22599 8.88105 9.04742 8.91081 8.8763C8.94057 8.69774 8.93313 8.5043 8.84385 8.37038C8.73969 8.21414 8.59089 8.08022 8.38257 8.06534C8.15936 8.05046 7.95104 8.08766 7.74272 8.13974C7.67576 8.15462 7.63112 8.2067 7.646 8.29598C7.66088 8.36294 7.66088 8.4299 7.65344 8.49686C7.646 8.62334 7.72784 8.73494 7.84688 8.74982C7.97423 8.77105 8.10537 8.77335 8.23489 8.77562H8.23492C8.28699 8.77654 8.3388 8.77745 8.39001 8.77958C8.52393 8.77958 8.64297 8.85398 8.70993 8.98046C8.82153 9.18879 8.70249 9.40455 8.47185 9.41943C8.37512 9.42687 8.27096 9.43431 8.17424 9.40455C8.03636 9.35441 7.89847 9.36234 7.75613 9.37054H7.75613C7.72951 9.37207 7.70273 9.37361 7.67576 9.37479C7.46 9.38223 7.25168 9.41943 7.05824 9.53847C7.00616 9.56823 6.98384 9.59055 6.98384 9.65751C6.98384 9.73086 6.96607 9.80147 6.94869 9.87052C6.92553 9.96257 6.90306 10.0518 6.92432 10.1411C6.90944 10.3197 6.91688 10.4685 7.03592 10.595C7.08056 10.6396 7.05824 10.714 7.02848 10.7735L7.01538 10.7957C6.97589 10.8633 6.93707 10.9298 6.84992 10.9298C6.58207 10.9372 6.40351 10.7958 6.35143 10.4982C6.31423 10.2899 6.30679 10.0742 6.34399 9.85839C6.36631 9.68727 6.30679 9.59799 6.15799 9.56823H6.15055C6.13417 9.5655 6.11878 9.55475 6.10403 9.54444C6.0786 9.52667 6.05506 9.51021 6.03151 9.53847C6.01032 9.56496 6.00799 9.60654 6.00572 9.64709C6.0048 9.66349 6.00389 9.67971 6.00175 9.69471C6.00175 9.69696 6.00243 9.6999 6.00318 9.7031C6.00489 9.71048 6.00694 9.71928 6.00175 9.72447C5.92941 9.89629 5.91202 10.0763 5.89448 10.258C5.88316 10.3752 5.87178 10.4931 5.84551 10.6098C5.81319 10.7593 5.7677 10.9066 5.72216 11.0541L5.72216 11.0541L5.72215 11.0541C5.68383 11.1782 5.64547 11.3024 5.61487 11.4282C5.56279 11.644 5.25031 11.8449 5.07174 11.7854C4.8411 11.7184 4.77414 11.4431 4.83366 11.2422C4.83738 11.2311 4.84296 11.2218 4.84854 11.2125C4.85412 11.2032 4.8597 11.1939 4.86342 11.1827C4.88618 11.122 4.89734 11.0923 4.88703 11.0777C4.87712 11.0637 4.84738 11.0637 4.78902 11.0637C4.74178 11.0637 4.71306 11.0378 4.68456 11.012C4.67266 11.0013 4.66081 10.9906 4.64766 10.9818C4.44678 10.8405 4.3575 10.6247 4.3203 10.3718C4.31732 10.3569 4.31405 10.342 4.31078 10.3271C4.29768 10.2676 4.28459 10.2081 4.29054 10.1486C4.31286 9.99975 4.41702 9.88071 4.53606 9.85839C4.6923 9.82863 4.82622 9.91047 4.89318 10.0667C4.9899 10.2974 5.01966 10.5429 5.01966 10.7958C5.01966 10.8036 5.01698 10.8113 5.01441 10.8187C5.00955 10.8327 5.00508 10.8456 5.01966 10.8554C5.04198 10.8702 5.0643 10.8554 5.07919 10.833C5.08635 10.8223 5.09395 10.812 5.10146 10.8018C5.12514 10.7696 5.14794 10.7387 5.15359 10.6991C5.17973 10.5728 5.22372 10.4541 5.26765 10.3356C5.29874 10.2517 5.3298 10.1679 5.35447 10.0816C5.37679 9.99975 5.38423 9.91047 5.38423 9.82863C5.39167 9.62031 5.45119 9.42687 5.51815 9.23343C5.54791 9.15159 5.55535 9.06975 5.54791 8.9879C5.53303 8.84654 5.53303 8.71262 5.57767 8.5787C5.58511 8.54894 5.58511 8.51174 5.58511 8.48198C5.5732 8.32322 5.57823 8.16234 5.58326 8.00161V8.0016V8.0016C5.58766 7.86103 5.59205 7.72058 5.58511 7.58174C5.57023 7.32877 5.54791 7.08325 5.39911 6.86749C5.32471 6.76333 5.30239 6.63685 5.28007 6.51037C5.20567 6.09373 5.31727 5.72916 5.53303 5.39436C5.62231 5.26044 5.75623 5.20836 5.91247 5.253C6.03895 5.2902 6.15799 5.29764 6.28447 5.26788C6.38119 5.23812 6.48535 5.23068 6.58951 5.24556C6.69919 5.2675 6.80483 5.24497 6.9094 5.22267C6.9467 5.21472 6.98387 5.20679 7.02104 5.20092C7.07839 5.19136 7.13525 5.17738 7.19212 5.1634C7.35659 5.12297 7.52117 5.0825 7.69808 5.14884C7.7576 5.17265 7.81712 5.15836 7.87664 5.14408C7.89152 5.14051 7.9064 5.13694 7.92128 5.13396C8.1296 5.08188 8.3528 5.1042 8.55369 5.14884C8.63481 5.16831 8.71452 5.18637 8.79343 5.20424L8.79345 5.20424L8.79346 5.20425C8.89546 5.22735 8.99614 5.25015 9.09681 5.27532C9.16377 5.2902 9.22329 5.34228 9.26049 5.42412C9.29025 5.48364 9.34233 5.52084 9.39441 5.54316C9.69945 5.67708 9.82593 6.17557 9.60273 6.45829C9.53577 6.54757 9.50601 6.67405 9.50601 6.78565C9.50973 6.91213 9.49671 7.03861 9.48369 7.16509C9.47067 7.29157 9.45765 7.41806 9.46137 7.54454L9.46318 7.58588C9.47058 7.75062 9.47795 7.91487 9.40929 8.07278V8.11742C9.43832 8.25529 9.43019 8.3967 9.422 8.53906C9.4134 8.68863 9.40474 8.83924 9.43905 8.9879C9.48003 9.14497 9.45832 9.31457 9.43722 9.47945L9.43161 9.52359C9.41673 9.68727 9.43161 9.85095 9.49113 10.0072ZM6.95408 8.82422C7.00616 8.81678 7.07312 8.77214 7.088 8.70518C7.10836 8.61354 7.09389 8.51842 7.08034 8.42935C7.07408 8.38825 7.06803 8.34844 7.06568 8.31086C7.06568 8.29598 7.05824 8.28854 7.0508 8.2811C6.96896 8.19182 6.81272 8.1695 6.70111 8.21414C6.61927 8.25134 6.52999 8.2811 6.43327 8.27366C6.39607 8.26622 6.35887 8.28854 6.32167 8.31086C6.24727 8.36294 6.16543 8.43734 6.15799 8.51918C6.15488 8.58455 6.13874 8.64861 6.12266 8.71247C6.1003 8.80124 6.07805 8.88959 6.09103 8.98046C6.09563 8.98046 6.09739 8.98331 6.09981 8.98723C6.10131 8.98966 6.10307 8.9925 6.10591 8.99534C6.20263 8.92838 6.30679 8.89118 6.41095 8.86886C6.46055 8.85894 6.50354 8.86225 6.54653 8.86556C6.56802 8.86721 6.58951 8.86886 6.61183 8.86886C6.67261 8.86886 6.73338 8.85783 6.79536 8.84658C6.84719 8.83717 6.89986 8.82761 6.95408 8.82422ZM8.74713 7.52966C8.82897 7.52222 8.91081 7.44038 8.91081 7.35853C8.91081 7.26862 8.91926 7.1787 8.92789 7.08684L8.9279 7.08684C8.9407 6.95067 8.9539 6.81023 8.94057 6.65917C8.93831 6.63663 8.93811 6.60999 8.93788 6.58071V6.5807V6.5807C8.93736 6.51332 8.93674 6.43192 8.91081 6.35413C8.82153 6.07885 8.62065 5.93749 8.40488 5.81101C8.2784 5.7366 8.14448 5.69196 8.01056 5.7366C7.8692 5.78868 7.72784 5.78869 7.59392 5.75892C7.3856 5.71428 7.18472 5.6994 6.98384 5.76636C6.94314 5.77908 6.90419 5.79614 6.86549 5.8131C6.79098 5.84574 6.7174 5.87797 6.63415 5.87797C6.52999 5.87797 6.42583 5.88541 6.32911 5.94493C6.29745 5.96441 6.2626 5.97911 6.22796 5.99372C6.15676 6.02376 6.08643 6.05342 6.04639 6.12349L6.04141 6.13268C5.94615 6.30844 5.84666 6.49201 5.91247 6.71869C5.93721 6.78673 5.93624 6.85477 5.93521 6.92708C5.935 6.94175 5.93479 6.9566 5.93479 6.97165C5.92735 7.21717 6.00175 7.41061 6.20263 7.54454C6.28447 7.60406 6.36631 7.61894 6.45559 7.62638C6.52843 7.62984 6.60289 7.62199 6.67745 7.61413C6.76283 7.60513 6.84835 7.59611 6.93176 7.60406C7.02603 7.61493 7.11853 7.59224 7.21099 7.56955C7.30826 7.54569 7.40547 7.52184 7.50464 7.5371C7.51456 7.5371 7.52448 7.53048 7.5344 7.52387C7.53936 7.52056 7.54432 7.51726 7.54928 7.51478C7.71296 7.41061 7.80224 7.17253 7.77248 6.97165C7.7576 6.86749 7.74272 6.76333 7.7948 6.65917C7.81712 6.60709 7.83944 6.54757 7.83944 6.49549C7.84688 6.25741 7.96592 6.13837 8.15192 6.06397C8.26352 6.01933 8.32304 6.03421 8.39001 6.13837C8.42721 6.19045 8.45697 6.24253 8.46441 6.30949C8.50161 6.54757 8.45697 6.77077 8.30816 6.95677C8.204 7.08325 8.18912 7.23205 8.17424 7.38829C8.1668 7.43293 8.204 7.48502 8.24864 7.48502C8.31345 7.48796 8.37826 7.49791 8.44353 7.50792C8.54311 7.5232 8.64376 7.53864 8.74713 7.52966ZM11.7752 9.54591C11.6636 9.56823 11.5446 9.53847 11.4479 9.47895C11.3511 9.41943 11.2916 9.30783 11.2916 9.17391C11.2842 9.05486 11.3363 8.97302 11.433 8.90606C11.6102 8.79017 11.7937 8.8117 11.9777 8.83329L12.0282 8.8391C12.177 8.85398 12.3183 8.85398 12.4374 8.77214C12.5337 8.70419 12.6385 8.67503 12.7455 8.64529L12.7455 8.64529C12.7791 8.63596 12.8128 8.62657 12.8466 8.6159C12.9061 8.59358 12.9656 8.57126 13.0103 8.52662C13.0734 8.46353 13.1507 8.43373 13.2289 8.40361C13.289 8.38045 13.3496 8.35711 13.4046 8.3183C13.5088 8.23646 13.598 8.14718 13.665 8.02814C13.6948 7.9835 13.6873 7.96118 13.6352 7.96118C13.5311 7.95374 13.4269 7.9463 13.3228 7.99094C13.2484 8.02814 13.1591 8.0207 13.0772 7.99838L13.0418 7.99138C12.9049 7.96456 12.7696 7.93802 12.6532 7.84214C12.616 7.81982 12.5862 7.79006 12.5713 7.75286C12.5341 7.62638 12.4523 7.55198 12.363 7.47758C12.3035 7.43293 12.2737 7.36597 12.2737 7.28413C12.2811 7.02373 12.2737 6.76333 12.2291 6.51037C12.2006 6.34457 12.2144 6.1848 12.2282 6.0253C12.2361 5.9343 12.2439 5.84338 12.2439 5.75148C12.2365 5.56548 12.3258 5.39436 12.482 5.29764C12.6308 5.20836 12.8168 5.28276 12.8838 5.45388C12.9582 5.625 12.9433 5.81101 12.9284 5.98957C12.9243 6.04065 12.9191 6.09149 12.914 6.14211C12.8914 6.36426 12.8692 6.5824 12.9359 6.80053C13.0549 7.17997 13.226 7.28413 13.546 7.31389C13.732 7.32877 13.9105 7.29901 14.0816 7.24693C14.3867 7.15765 14.6917 7.15765 14.9968 7.23205C15.1828 7.27669 15.3688 7.25437 15.5473 7.19485C15.6812 7.15021 15.8226 7.12045 15.9491 7.15021C16.336 7.23949 16.6633 6.80053 16.5369 6.33925C16.5142 6.26168 16.5014 6.1827 16.4887 6.10415C16.4721 6.00189 16.4557 5.90035 16.4178 5.80357C16.3509 5.63988 16.2839 5.4762 16.1202 5.37204C15.9193 5.24556 15.711 5.2158 15.4952 5.20092C15.4594 5.19794 15.4239 5.19465 15.389 5.19143C15.2501 5.17858 15.1217 5.16671 15.0265 5.1786C14.781 5.18604 14.5876 5.17116 14.3941 5.1414C14.156 5.1042 13.9403 5.15628 13.7245 5.26044C13.5385 5.34972 13.3525 5.4018 13.1516 5.34972C13.04 5.3274 12.9359 5.27532 12.9136 5.12652C12.8912 4.97772 12.9433 4.85868 13.0549 4.77684C13.1442 4.70988 13.2335 4.6578 13.3376 4.65036C13.4658 4.64594 13.5914 4.61526 13.7158 4.58484C13.8009 4.56406 13.8855 4.5434 13.97 4.53132C14.2974 4.47924 14.6173 4.49412 14.9372 4.56108C15.0712 4.5834 15.2051 4.57596 15.339 4.56108C15.6068 4.53132 15.8673 4.53876 16.1128 4.68012C16.1681 4.71088 16.2337 4.7162 16.2968 4.72133C16.31 4.72241 16.3231 4.72347 16.336 4.72476C16.5592 4.74708 16.7601 4.86612 16.8791 5.067C17.013 5.28276 17.1395 5.52084 17.1172 5.80357C17.1108 5.86082 17.1317 5.90719 17.1518 5.95199L17.1618 5.97469C17.2288 6.11605 17.2437 6.26485 17.2437 6.42109C17.2437 6.47154 17.2441 6.52153 17.2446 6.57128V6.57129V6.57131C17.246 6.71963 17.2474 6.86587 17.2362 7.01629C17.2065 7.35109 17.0205 7.55198 16.7749 7.70078C16.5592 7.8347 16.3211 7.85702 16.083 7.8347C15.9268 7.81982 15.778 7.84214 15.6292 7.87934C15.5399 7.9091 15.458 7.88678 15.3688 7.85702C15.2795 7.81982 15.1828 7.81982 15.0935 7.85702C14.9596 7.9091 14.8331 7.91654 14.6992 7.85702C14.5652 7.79006 14.5132 7.81982 14.4611 7.96862C14.4016 8.13974 14.3048 8.26622 14.1709 8.37038C14.104 8.4299 14.0444 8.48942 13.9998 8.57126C13.9626 8.63078 13.918 8.67542 13.8584 8.69774C13.784 8.7275 13.7096 8.77214 13.6501 8.8391C13.568 8.9418 13.4575 8.99134 13.3455 9.04152C13.2952 9.06406 13.2447 9.08672 13.1963 9.11439C13.1683 9.13036 13.1409 9.14795 13.1134 9.16556C13.0386 9.21355 12.9634 9.26174 12.8764 9.27807C12.8228 9.29146 12.7692 9.29681 12.7156 9.30217C12.6799 9.30574 12.6442 9.30931 12.6085 9.31527C12.5394 9.32908 12.4767 9.36055 12.4145 9.39178L12.4145 9.39178C12.3427 9.42781 12.2716 9.46354 12.1919 9.47151C12.1081 9.48032 12.027 9.49697 11.9454 9.51372L11.9454 9.51372L11.9454 9.51372C11.8892 9.52524 11.8328 9.53681 11.7752 9.54591ZM6.47128 15.3119V13.5487H6.16624V14.7167L5.38504 13.5487H5.03535V15.3119H5.3404V14.0769L6.16624 15.3119H6.47128ZM8.18993 14.2406V13.8239V13.8165H8.94138V13.5338H7.85513V15.2971H8.94138V15.0218H8.18993V14.5159H8.8893V14.2406H8.18993ZM12.0216 15.3119L12.468 13.5487H12.1406L11.8504 14.9176L11.5156 13.5487H11.1734L10.8386 14.9176L10.5484 13.5487H10.1987L10.6451 15.3119H10.9948L11.3371 13.9579L11.6719 15.3119H12.0216ZM13.7997 13.7644C13.7476 13.8463 13.7253 13.9355 13.7253 14.0323C13.7253 14.1662 13.7625 14.3001 13.8518 14.3819C13.9411 14.4638 14.075 14.5233 14.2536 14.5531C14.3875 14.5828 14.4842 14.6126 14.5437 14.6572C14.5958 14.6944 14.6256 14.7539 14.6256 14.8283C14.6256 14.9027 14.5958 14.9623 14.5437 15.0069C14.4917 15.0441 14.4172 15.0664 14.3131 15.0664C14.2089 15.0664 14.1271 15.0441 14.0601 14.9995C13.9932 14.9548 13.9411 14.8953 13.9188 14.8135L13.6509 14.9399C13.6881 15.0739 13.77 15.1706 13.8816 15.245C13.9932 15.3119 14.142 15.3491 14.3131 15.3491C14.4396 15.3491 14.5512 15.3268 14.6479 15.2822C14.7446 15.2301 14.8265 15.1706 14.8785 15.0887C14.9306 15.0069 14.9604 14.9176 14.9604 14.8135C14.9604 14.6572 14.9157 14.5382 14.8265 14.4489C14.7297 14.3596 14.5884 14.3001 14.3875 14.2629C14.261 14.2406 14.1792 14.2108 14.1271 14.1736C14.075 14.1364 14.0527 14.0843 14.0527 14.0174C14.0527 13.9504 14.0824 13.8983 14.1271 13.8611C14.1792 13.8239 14.2461 13.8091 14.3428 13.8091C14.4321 13.8091 14.4991 13.8239 14.5512 13.8611C14.6033 13.8983 14.6405 13.9504 14.6702 14.0174L14.9381 13.8909C14.9009 13.7719 14.8339 13.6751 14.7297 13.6156C14.6256 13.5487 14.4917 13.5189 14.3354 13.5189C14.2089 13.5189 14.0973 13.5412 14.008 13.5859C13.9188 13.6305 13.8518 13.69 13.7997 13.7644ZM17.9811 9.94023C18.0108 9.88071 18.0034 9.82119 17.9736 9.75423C17.9679 9.73999 17.9589 9.72792 17.95 9.71595C17.9357 9.69666 17.9215 9.67762 17.9215 9.65007C17.9141 9.47895 17.8397 9.33015 17.7579 9.18879C17.7385 9.15257 17.7239 9.11244 17.7092 9.07195L17.7092 9.07194C17.6785 8.98766 17.6472 8.90183 17.5719 8.84655C17.4454 8.75727 17.3263 8.63822 17.2296 8.5043C17.185 8.44478 17.1255 8.41502 17.0659 8.38526C17.0386 8.37159 17.0109 8.35831 16.983 8.34498L16.983 8.34496C16.8896 8.30024 16.7948 8.25486 16.7088 8.19182C16.698 8.18462 16.6872 8.17704 16.6764 8.16941C16.6199 8.12973 16.5617 8.08886 16.493 8.0951C16.4266 8.10088 16.3601 8.0887 16.2932 8.07643C16.1878 8.05712 16.0814 8.03762 15.9722 8.08766C15.9514 8.09809 15.9269 8.09025 15.9013 8.08207C15.8904 8.07857 15.8792 8.07501 15.8681 8.07278C15.8476 8.0679 15.8272 8.0629 15.807 8.05791L15.8069 8.0579C15.6727 8.02489 15.5425 7.99289 15.4068 8.00582C15.3026 8.00582 15.2059 8.01326 15.1092 8.04302C14.8934 8.10998 14.8116 8.32574 14.9381 8.52662C14.9827 8.59358 14.9678 8.6159 14.9083 8.6531C14.8644 8.68532 14.817 8.71407 14.7693 8.74299C14.6959 8.78756 14.6218 8.83253 14.5586 8.89119C14.4338 9.01606 14.2879 9.1095 14.1431 9.20227C14.1154 9.22005 14.0877 9.2378 14.0602 9.25575C13.9761 9.30907 13.892 9.36183 13.808 9.41449C13.5875 9.55287 13.368 9.69057 13.1525 9.83607C13.0409 9.91791 12.9218 9.99231 12.8028 10.0518C12.7316 10.0823 12.6574 10.1036 12.5836 10.1247C12.4953 10.1499 12.4077 10.175 12.3266 10.2155C12.1555 10.2974 11.9844 10.342 11.8058 10.3569C11.6347 10.3718 11.471 10.4238 11.3669 10.6024C11.285 10.7363 11.3148 10.9818 11.4413 11.0637C11.6421 11.1902 11.8579 11.1827 12.0662 11.0786C12.1042 11.0608 12.1405 11.0388 12.1771 11.0165C12.248 10.9734 12.3201 10.9296 12.4085 10.9149C12.5771 10.8916 12.732 10.8184 12.8876 10.7449L12.8877 10.7448C12.9312 10.7243 12.9747 10.7037 13.0185 10.6842C13.0867 10.6518 13.1464 10.6037 13.2063 10.5555L13.2063 10.5555C13.2835 10.4933 13.3611 10.4309 13.4575 10.4015C13.4664 10.3982 13.4752 10.395 13.4841 10.3919C13.5344 10.3739 13.5832 10.3566 13.6212 10.3122C13.7392 10.1781 13.8805 10.0788 14.0199 9.98078C14.0738 9.94291 14.1273 9.90524 14.1792 9.86583C14.2908 9.78028 14.4005 9.68914 14.5103 9.598L14.5103 9.59799C14.62 9.50685 14.7298 9.41571 14.8414 9.33015C14.9824 9.2271 15.1076 9.10824 15.2343 8.98797L15.2343 8.98796L15.2343 8.98794C15.2814 8.94323 15.3287 8.89834 15.377 8.85399C15.4142 8.82423 15.444 8.78703 15.4663 8.74238C15.4812 8.70518 15.5035 8.69031 15.5407 8.69031C15.6111 8.69642 15.6827 8.68744 15.7551 8.67837C15.8587 8.66538 15.9638 8.6522 16.069 8.68286L16.0812 8.68684C16.1204 8.6995 16.1529 8.71 16.1731 8.75727C16.2163 8.83288 16.2399 8.91241 16.2639 8.99302C16.2729 9.02345 16.282 9.05404 16.2922 9.08463C16.3568 9.27146 16.359 9.2709 16.4932 9.23713L16.5079 9.23343L16.6195 9.21111C16.8055 9.17391 16.9692 9.16647 17.1106 9.36735C17.304 9.64263 17.3784 9.92535 17.2817 10.2676C17.2296 10.4536 17.1255 10.6098 17.0213 10.7661C16.8353 11.0414 16.5898 11.2274 16.3294 11.3836C16.2281 11.4476 16.1153 11.4733 16.0021 11.4992C15.9573 11.5095 15.9124 11.5197 15.8681 11.5324C15.63 11.5919 15.3994 11.6217 15.191 11.4282C15.1501 11.3873 15.0904 11.3651 15.0348 11.3445L15.0199 11.339C14.9083 11.2943 14.7595 11.3613 14.7521 11.4654C14.7446 11.5845 14.7446 11.7035 14.819 11.8077C14.8272 11.8199 14.8365 11.8316 14.8458 11.8434C14.8705 11.8744 14.8955 11.9059 14.9009 11.949C14.9218 12.041 14.9732 12.1094 15.0248 12.1782C15.065 12.2318 15.1054 12.2856 15.1315 12.3508C15.139 12.3657 15.1613 12.3806 15.1762 12.388C15.2256 12.3999 15.275 12.4154 15.3244 12.4308C15.4911 12.4829 15.6588 12.5353 15.8309 12.455C15.8624 12.4423 15.894 12.4311 15.925 12.42L15.925 12.42C15.9671 12.4049 16.0081 12.3903 16.0466 12.3731C16.0989 12.3487 16.1545 12.3358 16.2103 12.3227C16.2735 12.308 16.337 12.2932 16.3963 12.2615C16.5898 12.1574 16.7758 12.0383 16.9543 11.9118L16.9739 11.8979L16.9739 11.8979C17.1241 11.7908 17.2783 11.6809 17.371 11.5026C17.3933 11.4654 17.4231 11.4431 17.4528 11.4208C17.6835 11.2497 17.862 11.0339 17.8843 10.6991C17.8918 10.6247 17.9067 10.5503 17.929 10.4834C17.9662 10.3718 17.9959 10.2602 17.9513 10.1411C17.9439 10.0742 17.9439 9.99975 17.9811 9.94023ZM3.78545 9.79887C3.79661 9.79515 3.80963 9.79515 3.82265 9.79515C3.83567 9.79515 3.84869 9.79515 3.85985 9.79143C4.05329 9.77655 4.21697 9.70959 4.34345 9.54591C4.43529 9.42346 4.55736 9.33628 4.67649 9.25119L4.6765 9.25119C4.70213 9.23288 4.72763 9.21467 4.75266 9.19623C4.89402 9.09207 4.95354 8.96559 4.96842 8.78703C4.97276 8.70024 4.95179 8.61852 4.93061 8.53596C4.91547 8.47696 4.90022 8.41752 4.89402 8.3555C4.8717 8.13974 4.82706 7.93142 4.67826 7.76774C4.64878 7.73531 4.62514 7.69704 4.60132 7.65848L4.60132 7.65848C4.56503 7.59974 4.52833 7.54032 4.46993 7.4999L4.44761 7.47758C4.35833 7.29902 4.41041 7.0535 4.56666 6.93445C4.63336 6.88109 4.71202 6.84567 4.78656 6.81211L4.81218 6.80053C4.96842 6.74101 5.02794 6.60709 4.99074 6.42109C4.98743 6.40952 4.98339 6.39794 4.97935 6.38637C4.9652 6.34586 4.95106 6.30536 4.96842 6.26485C5.0205 6.13837 4.9461 6.04165 4.87914 5.98213C4.67826 5.81101 4.44761 5.72173 4.18721 5.83333C4.17233 5.84077 4.15001 5.84077 4.12769 5.84077C4.03097 5.84077 4.00121 5.91517 3.97889 5.98957C3.95657 6.07141 4.00121 6.11605 4.06073 6.14581C4.09049 6.16069 4.12025 6.19045 4.14257 6.22021C4.17977 6.25741 4.19465 6.30949 4.16489 6.34669C4.12716 6.39386 4.10405 6.45165 4.08095 6.50941C4.04939 6.58831 4.01786 6.66714 3.94913 6.71869C3.92681 6.73357 3.91193 6.76333 3.89705 6.79309C3.85257 6.88651 3.7735 6.92407 3.69485 6.96144C3.64196 6.98657 3.58925 7.01161 3.54737 7.05349C3.54136 7.0595 3.52565 7.05096 3.51199 7.04353L3.50273 7.03861C3.48389 7.03197 3.46489 7.02565 3.44585 7.01932C3.33702 6.98313 3.22682 6.94649 3.13817 6.84517C3.12477 6.83029 3.11019 6.81571 3.09555 6.80107C3.03698 6.7425 2.97746 6.68298 2.98937 6.59965C3.01169 6.42109 3.04889 6.23509 3.15305 6.08629C3.19025 6.03049 3.22373 5.97097 3.25721 5.91145C3.29069 5.85193 3.32417 5.79241 3.36137 5.73661C3.37375 5.71734 3.38512 5.69833 3.39623 5.67976C3.44515 5.59794 3.48893 5.52472 3.59201 5.47621C3.72313 5.42001 3.85949 5.39002 3.99669 5.35984C4.02298 5.35405 4.0493 5.34827 4.07561 5.34228C4.29881 5.2902 4.39553 5.14884 4.29137 4.91076C4.24673 4.79916 4.15001 4.7322 4.04585 4.68756C3.88961 4.6206 3.71105 4.6206 3.54737 4.6206C3.40601 4.6206 3.22745 4.65036 3.15305 4.82892C3.11739 4.92251 3.05504 4.99475 2.99318 5.06642C2.95177 5.11439 2.91058 5.16211 2.87777 5.2158C2.74384 5.43157 2.61736 5.64733 2.49088 5.87053C2.43649 5.96571 2.40419 6.07194 2.37211 6.17743C2.35154 6.24511 2.33105 6.31248 2.30488 6.37645C2.24536 6.51037 2.2528 6.65917 2.35696 6.77821C2.37184 6.79309 2.38672 6.81541 2.38672 6.83029C2.42392 7.01629 2.55784 7.10558 2.69176 7.17998C2.89265 7.28414 2.95961 7.51478 2.84056 7.73054C2.79592 7.80494 2.76616 7.87934 2.75872 7.96862C2.75128 8.04302 2.72152 8.10254 2.662 8.14718C2.49088 8.26622 2.42392 8.45966 2.35696 8.66054C2.34208 8.72007 2.34208 8.77215 2.35696 8.83167C2.37184 8.88375 2.37184 8.92839 2.37184 9.00279C2.3644 9.05487 2.38672 9.12183 2.40904 9.18879C2.52064 9.53103 2.67688 9.67983 3.03401 9.69471C3.04357 9.69471 3.05314 9.69456 3.0627 9.69441C3.1201 9.6935 3.17749 9.69259 3.23489 9.72447C3.42089 9.82863 3.59945 9.87327 3.78545 9.79887ZM2.97449 8.77959C2.95961 8.71263 2.96705 8.6531 3.01913 8.60846C3.10097 8.53406 3.14561 8.43734 3.16049 8.32574C3.17537 8.23646 3.22745 8.18438 3.29441 8.13974C3.38369 8.08022 3.45809 8.00582 3.49529 7.89422C3.51017 7.85702 3.53249 7.81238 3.55481 7.80494L3.58487 7.79168C3.69399 7.74337 3.80416 7.69459 3.92681 7.70822C4.06494 7.72203 4.12613 7.83842 4.18181 7.94431L4.19465 7.96862L4.21651 8.00991C4.29254 8.15277 4.37059 8.29944 4.34345 8.48942C4.33435 8.54406 4.32276 8.59746 4.31123 8.65063L4.31123 8.65064C4.29449 8.72779 4.27786 8.80446 4.26905 8.88375C4.262 8.9755 4.1545 9.03378 4.07361 9.07763L4.06073 9.08463L4.04299 9.09277C3.96691 9.12785 3.88899 9.16378 3.78545 9.12927C3.67978 9.1821 3.5679 9.15431 3.45383 9.12598C3.39121 9.11042 3.32793 9.0947 3.26465 9.09207C3.13817 9.07719 2.99681 8.92839 2.97449 8.77959ZM15.0868 10.7958C14.9455 10.8702 14.8859 10.9893 14.8711 11.1529C14.8636 11.2199 14.8413 11.2497 14.7892 11.2273C14.5809 11.205 14.4172 11.272 14.2833 11.4505C14.2238 11.5324 14.1345 11.5696 14.0452 11.6068C13.9857 11.6291 13.9187 11.6589 13.8741 11.7035C13.6137 11.9565 13.3012 12.0829 12.9887 12.1797C12.8324 12.2273 12.6946 12.2997 12.5528 12.3743C12.5394 12.3813 12.526 12.3884 12.5126 12.3954C12.401 12.4475 12.2894 12.4773 12.1629 12.4773C11.9769 12.4847 11.8206 12.4326 11.7239 12.2317C11.6421 12.0681 11.6495 12.0011 11.7686 11.8374C11.8802 11.6961 12.029 11.6365 12.1926 11.6217C12.3861 11.5993 12.5721 11.5621 12.7432 11.4505C12.8063 11.4127 12.8765 11.3962 12.9471 11.3797C13.0014 11.3669 13.056 11.3541 13.1078 11.3315C13.3384 11.2348 13.5467 11.1083 13.7551 10.9595C13.8026 10.9259 13.8501 10.8921 13.8976 10.8583C14.1555 10.6749 14.415 10.4904 14.6851 10.3271C14.7065 10.3144 14.7281 10.3019 14.7497 10.2893C14.8928 10.2061 15.0364 10.1226 15.1463 9.99973C15.2459 9.88772 15.3617 9.80579 15.4768 9.72426C15.5682 9.65957 15.6593 9.59513 15.7415 9.51613C15.8457 9.41941 15.9722 9.35245 16.121 9.43429C16.24 9.50125 16.2698 9.62029 16.2103 9.74677C16.1805 9.82117 16.1284 9.87325 16.0689 9.91789C15.9586 10.0006 15.8579 10.0945 15.7579 10.1877C15.642 10.2958 15.5271 10.4029 15.3993 10.4908C15.3502 10.5267 15.3084 10.5771 15.2661 10.6279C15.2122 10.6927 15.1577 10.7583 15.0868 10.7958ZM14.5139 6.51035C14.3875 6.46571 14.2535 6.48059 14.1196 6.50291C14.0767 6.51149 14.0345 6.52254 13.9923 6.53357C13.8881 6.5608 13.7844 6.5879 13.6732 6.57731C13.4946 6.56243 13.3533 6.42851 13.3756 6.24995C13.4128 6.01931 13.5318 5.87795 13.7402 5.91515C13.9187 5.95235 14.0824 5.93747 14.261 5.90027C14.4916 5.84819 14.7371 5.84075 14.9752 5.91515C15.0868 5.95235 15.1984 5.94491 15.31 5.91515C15.4291 5.87795 15.5555 5.86307 15.6746 5.93003C15.7936 5.99699 15.8755 6.16811 15.8531 6.27971C15.8234 6.45083 15.7043 6.54011 15.5407 6.54011C15.4981 6.54484 15.4554 6.52849 15.4128 6.51213C15.3885 6.50279 15.3641 6.49344 15.3398 6.48803C15.1835 6.45827 15.0422 6.48803 14.8934 6.52523C14.7743 6.55499 14.6404 6.55499 14.5139 6.51035ZM2.4685 10.2527C2.51314 10.1485 2.56522 10.0369 2.69171 10.0369C2.84795 10.0295 2.92979 10.1262 2.91491 10.2973C2.91491 10.3634 2.90405 10.4276 2.89304 10.4927C2.88173 10.5596 2.87027 10.6275 2.87027 10.6991C2.87027 10.7389 2.87656 10.7786 2.88293 10.8189C2.89206 10.8766 2.90135 10.9354 2.89259 10.9967C2.8761 11.1121 2.81902 11.2072 2.76333 11.3C2.74362 11.3329 2.72409 11.3654 2.70659 11.3985C2.66194 11.4877 2.62474 11.5696 2.60242 11.6663C2.5429 11.9044 2.37922 11.9937 2.1709 11.9267C2.07418 11.8895 2.03698 11.8002 2.01466 11.7035C1.99234 11.5919 1.99234 11.4729 2.03698 11.3761C2.09257 11.2538 2.11078 11.1232 2.12885 10.9936C2.13496 10.9498 2.14106 10.906 2.14858 10.8628C2.1709 10.7363 2.23042 10.6396 2.30482 10.5503C2.37922 10.461 2.42386 10.3643 2.4685 10.2527ZM3.63659 10.2081C3.79283 10.2155 3.88955 10.2973 3.92675 10.4313C3.94997 10.5125 3.94702 10.5958 3.94408 10.679C3.94137 10.7557 3.93866 10.8324 3.95651 10.9074C4.01149 11.1053 3.97303 11.287 3.93419 11.4705C3.92047 11.5353 3.9067 11.6003 3.89699 11.6663C3.88211 11.763 3.82259 11.83 3.75563 11.8895C3.65891 11.9639 3.56963 11.949 3.49523 11.8449C3.42083 11.7333 3.35387 11.6068 3.34643 11.458C3.34339 11.3912 3.3354 11.3256 3.32699 11.2567C3.31482 11.1568 3.30179 11.05 3.30179 10.9223C3.30938 10.8768 3.31697 10.8252 3.32514 10.7697C3.34101 10.6619 3.35908 10.5391 3.38363 10.4164C3.40595 10.2973 3.53243 10.2006 3.63659 10.2081ZM7.95937 10.3534C8.02143 10.3438 8.08534 10.334 8.14526 10.3122C8.34614 10.2453 8.64374 10.3792 8.65118 10.6768C8.65118 10.7884 8.60654 10.8628 8.5247 10.9149C8.42054 10.9818 8.30894 11.0116 8.1899 10.9967C8.05335 10.9648 7.91959 10.9859 7.7852 11.007C7.69992 11.0204 7.61439 11.0339 7.52773 11.0339C7.45333 11.0339 7.39381 11.019 7.33429 10.9595C7.20037 10.8256 7.24501 10.5577 7.42357 10.4759C7.56907 10.4104 7.7288 10.3876 7.88188 10.3658L7.8923 10.3643C7.91422 10.3603 7.93667 10.3569 7.95937 10.3534ZM6.53077 6.56987C6.50845 6.37643 6.67213 6.22763 6.84325 6.25739C6.97717 6.27971 7.05901 6.35411 7.11109 6.49547C7.17805 6.67403 7.20037 6.86747 7.22269 7.06835C7.22014 7.08113 7.2178 7.09434 7.21542 7.1078C7.20394 7.17275 7.19143 7.24353 7.14829 7.29899C7.06645 7.40315 6.99205 7.39571 6.88045 7.32131C6.62749 7.15019 6.56053 6.86747 6.53077 6.56987Z" fill="white"/>
</svg>
