<svg width="20" height="20" viewBox="0 0 20 20" fill="none" xmlns="http://www.w3.org/2000/svg">
<rect width="20" height="20" rx="4" fill="#2F6EF8"/>
<path d="M11.8243 15.4528C9.38023 16.0938 7.50732 15.2752 6.18934 14.038C5.30968 13.2123 4.75704 12.2206 4.40934 11.0419C4.11054 10.029 4.14127 8.92895 4.14127 7.84976C4.14127 7.28955 4.47605 6.02163 4.58267 5.51709C3.89246 6.59402 3.06055 8.57817 3.06055 9.95224C3.06055 13.7768 6.16099 16.8773 9.98558 16.8773C11.6906 16.8773 13.5636 15.579 14.4583 14.2639C12.741 15.0328 13.036 15.1351 11.8243 15.4528Z" fill="white"/>
<path d="M14.1665 3.97965C13.3811 3.51915 12.4919 3.20609 11.5318 3.08336C8.38309 2.68087 4.80996 4.71486 4.46875 7.85039C5.95402 4.92451 8.23444 3.79392 10.9611 4.14247C11.8289 4.2534 12.6388 4.5198 13.3665 4.90999L14.1665 3.97965Z" fill="white"/>
<path d="M11.1865 13.9238C11.1686 13.9327 11.1515 13.9436 11.1382 13.9603C11.1078 13.9986 11.0933 14.1066 11.0721 14.1563C11.059 14.1875 10.9615 14.3127 10.9615 14.3374C10.9614 14.3602 10.9943 14.3937 11.0251 14.4257C10.849 14.4605 10.6695 14.4848 10.4872 14.4997C10.5213 14.4566 10.5295 14.4188 10.4208 14.4137C10.4499 14.3347 10.5183 14.2895 10.5472 14.2129C10.5609 14.1768 10.5495 14.1625 10.5612 14.1268C10.6009 14.0031 10.5837 14.0498 10.5613 13.9538C10.559 13.9438 10.5568 13.9338 10.5548 13.9237H7.95248V9.40408C7.93507 9.39561 7.90517 9.36678 7.86702 9.31496C7.74926 9.155 7.61268 8.99593 7.51058 8.82655C7.47201 8.76253 7.47943 8.72115 7.41573 8.66036C7.35425 8.60162 7.27374 8.573 7.21175 8.51716C6.98891 8.31667 6.94836 8.04908 6.97376 7.76343C6.98207 7.67027 7.01573 7.59576 7.00086 7.50626C6.98863 7.43191 6.94472 7.37045 6.88991 7.31564C6.87226 7.28752 6.82787 7.21822 6.82531 7.21376C6.77474 7.12977 6.73537 7.04707 6.65495 6.97811C6.60885 6.93838 6.48949 6.84559 6.3772 6.76779C6.88193 6.13825 7.54241 5.63931 8.30017 5.3296C8.30618 5.36763 8.32252 5.40569 8.34705 5.44208C8.40937 5.53448 8.46871 5.52719 8.59031 5.55271C8.57726 5.69389 8.4123 5.695 8.30063 5.67971C8.16733 5.66137 8.02712 5.61715 7.91163 5.73391C7.97538 5.7723 8.15045 5.92164 8.12717 5.76562C8.25487 5.75922 8.37829 5.7554 8.50325 5.77067C8.55328 5.7768 8.721 5.83313 8.76644 5.8074C8.78553 5.79661 8.80587 5.70258 8.82607 5.67355C8.79044 5.67379 8.75226 5.65579 8.71675 5.65918C8.79951 5.55325 8.88193 5.63643 8.98721 5.68508C8.87133 5.75553 8.9401 5.92431 9.0534 5.78721C9.14649 5.67442 9.03062 5.59263 8.91244 5.5269C9.03162 5.37785 9.10516 5.36434 9.21729 5.53261C9.23579 5.42886 9.31951 5.47041 9.40703 5.47804V5.45211C9.36852 5.45305 9.32738 5.43087 9.28923 5.43487C9.37841 5.29261 9.32149 5.26009 9.44893 5.21366C9.55049 5.17672 9.8401 5.21116 9.87579 5.11571C9.67309 5.15506 9.42825 5.16452 9.2454 5.25669C9.16654 5.29637 9.07256 5.42189 8.99386 5.34037C8.91316 5.25669 9.05161 5.12218 9.12241 5.08119H9.10549C9.4321 5.01157 9.76511 4.97644 10.099 4.9764C10.3192 4.9764 10.5356 4.99269 10.7479 5.02168C10.6745 5.06026 10.7288 5.08632 10.6753 5.12581C10.5731 5.20095 10.3916 5.26372 10.2699 5.31124C10.4246 5.31082 10.799 5.45623 10.871 5.23931C10.8211 5.23166 10.7712 5.22399 10.7214 5.21628C10.8146 5.1545 10.9185 5.10452 11.0276 5.06781C12.0125 5.26292 12.8884 5.76247 13.5548 6.46334C13.5501 6.46316 13.5454 6.46311 13.5407 6.4632C13.3552 6.46878 13.2258 6.46918 13.0767 6.5721C13.0166 6.61362 12.9758 6.66866 12.8996 6.69002C12.8311 6.70928 12.7573 6.6924 12.6894 6.71544C12.4447 6.79852 12.4834 7.32287 12.1609 7.24363C12.0093 7.20648 11.9025 7.02742 11.8263 6.91052C11.7591 6.80762 11.6368 6.72252 11.7194 6.59381C11.6817 6.60347 11.6415 6.59245 11.6044 6.59947C11.6561 6.48601 11.8294 6.49594 11.8582 6.43795C11.93 6.29259 11.6605 6.27743 11.5842 6.2573C11.6762 6.15923 11.7228 6.29027 11.8136 6.26802C11.9008 6.24654 11.7675 6.13163 11.7152 6.11874C11.6965 6.11409 11.3892 6.20361 11.567 6.04447C11.3474 5.90457 11.1279 5.76465 10.9084 5.62456C10.8714 5.78028 11.2006 5.86873 11.3081 5.92364C11.2914 5.98793 11.1914 6.0816 11.1149 6.05416C11.0427 6.02827 11.072 5.9088 10.963 5.9208C10.8854 6.10158 11.1275 6.04874 11.15 6.15953C11.1756 6.28576 11.0584 6.23225 11.0134 6.23011C11.0027 6.22951 10.9187 6.14261 10.9142 6.20842C10.9087 6.28656 11.0481 6.25609 11.0579 6.33499C10.8956 6.34155 10.8128 6.28298 10.6806 6.19515C10.5264 6.09282 10.4472 6.10208 10.2583 6.10208C10.3149 6.07885 10.3926 6.06161 10.4409 6.02428C10.4673 6.00381 10.5709 5.90321 10.5779 5.88073C10.607 5.78372 10.5762 5.79112 10.4835 5.72755C10.401 5.67112 10.301 5.56985 10.201 5.54994C9.8389 5.47766 10.0894 5.87679 9.8145 5.93184C9.81923 5.93208 9.82429 5.93232 9.8284 5.93232H9.81261C9.81335 5.93228 9.81386 5.93197 9.8145 5.93184C9.75093 5.92959 9.63181 5.91406 9.59076 5.94769C9.56182 5.97132 9.55951 6.06618 9.5271 6.10045C9.46965 6.16185 9.38387 6.17406 9.31519 6.21832C9.2482 6.26152 9.10051 6.37233 9.06111 6.44754C8.91605 6.72465 9.38788 6.81067 9.56678 6.89166C9.64761 6.92829 9.88377 6.97835 9.92782 7.03949C9.98678 7.12164 9.87692 7.19866 10.0002 7.25635C10.0395 7.27476 10.1207 7.27851 10.1545 7.2404C10.2096 7.17836 10.1322 7.16435 10.119 7.09266C10.0933 6.95464 10.1354 7.00943 10.2049 6.95819C10.3464 6.85376 10.3144 6.84737 10.2636 6.68094C10.2399 6.6035 10.1508 6.38723 10.2292 6.33001C10.3315 6.25546 10.5495 6.37047 10.628 6.38013C10.7193 6.39129 10.771 6.5177 10.8208 6.56943C10.8538 6.60379 10.9129 6.67665 10.9706 6.66874C11.0622 6.65622 11.0239 6.57613 11.077 6.53919C11.2195 6.44036 11.2571 6.57459 11.3139 6.70895C11.3673 6.83506 11.4178 6.88189 11.513 6.96278C11.5572 7.00042 11.7507 7.13484 11.7324 7.21771C11.72 7.27351 11.4989 7.35819 11.4398 7.37688C11.2236 7.44538 10.8182 7.26483 10.7747 7.6076C10.8585 7.57634 11.0971 7.38148 11.1686 7.47389C11.2012 7.51575 11.1428 7.57676 11.1565 7.61838C11.1973 7.74319 11.2935 7.6997 11.3944 7.67952C11.3875 7.68384 11.3805 7.68757 11.373 7.69092C11.5109 7.62006 11.4965 7.6348 11.5598 7.5199C11.5805 7.48233 11.6113 7.39148 11.6404 7.36458C11.7406 7.27245 11.756 7.33592 11.8181 7.40704C11.8343 7.42573 11.9878 7.64679 11.9331 7.63574C11.7546 7.59994 11.5832 7.60476 11.4351 7.70237C11.3498 7.75875 11.2691 7.8347 11.1672 7.87221C11.1428 7.88107 10.962 7.89827 10.9833 7.86743C11.0145 7.82245 11.1219 7.79271 11.1643 7.74417C11.0469 7.69582 10.9488 7.80262 10.8566 7.86506C10.7896 7.89674 10.7578 7.94717 10.7177 8.00007H15.1976C14.4722 5.88151 12.4636 4.3584 10.0991 4.3584C7.12322 4.3584 4.71094 6.77068 4.71094 9.74647C4.71094 12.7223 7.12324 15.1347 10.0991 15.1347C11.3898 15.1347 12.5744 14.6806 13.5022 13.9238H11.1865V13.9238Z" fill="white"/>
<path d="M7.65603 8.83847C7.63741 8.83434 7.69505 8.97225 7.70101 8.98335C7.75793 9.08876 7.84346 9.18505 7.91223 9.28324C7.93017 9.30887 7.94349 9.33073 7.95283 9.3487V9.11056L7.95116 9.10856C7.84781 8.98101 7.81541 8.87241 7.65603 8.83847ZM12.7522 13.3724H11.4942V10.9542C11.4942 10.254 11.242 9.90388 10.7378 9.90388C10.4973 9.90388 10.2975 9.99733 10.1381 10.1841C9.9787 10.3709 9.89904 10.6093 9.89904 10.8994V13.3724H8.63313V9.03773H9.89904V9.72751H9.91471C10.2308 9.19714 10.6959 8.93191 11.31 8.93191C12.2714 8.93191 12.7522 9.52763 12.7522 10.7191L12.7522 13.3724ZM13.7435 11.0976L15.2942 9.02922H14.1914L12.9487 10.8457C12.9076 10.911 12.8665 10.9885 12.8255 11.078H12.8125V11.2431H12.8255C12.8684 11.3458 12.9067 11.4213 12.9403 11.4699L14.253 13.3647H15.4229L13.7435 11.0976Z" fill="white"/>
<path d="M15.6113 9.8195C15.6113 9.61032 15.6739 9.43999 15.7989 9.30852C15.9239 9.17706 16.0841 9.11133 16.2795 9.11133C16.4796 9.11133 16.6415 9.17851 16.7654 9.31276C16.8892 9.44705 16.9512 9.61595 16.9512 9.8195C16.9512 10.0259 16.888 10.1976 16.7618 10.3347C16.6355 10.4719 16.4747 10.5404 16.2795 10.5404C16.0865 10.5404 15.9269 10.4711 15.8007 10.3326C15.6744 10.1941 15.6113 10.023 15.6113 9.8195ZM15.9424 13.3486V10.8642H16.6657V13.3486H15.9424Z" fill="white"/>
</svg>
