<svg width="20" height="20" viewBox="0 0 20 20" fill="none" xmlns="http://www.w3.org/2000/svg">
<g clip-path="url(#clip0_1271_5355)">
<path d="M20 16.3671V3.63357C20 1.635 18.365 0 16.3664 0H3.63357C1.635 0 0 1.635 0 3.63357V16.3671C0 18.3457 1.60286 19.9686 3.575 20H16.425C18.3964 19.9686 20 18.3464 20 16.3671Z" fill="#FF2442"/>
<path d="M14.1894 7.15576H15.3094V7.55683C15.3094 7.58883 15.3251 7.60376 15.3557 7.60305C16.0198 7.58314 16.689 7.60447 17.0317 8.28572C17.2358 8.68963 17.1939 9.30403 17.1825 9.78616C17.1818 9.81461 17.1953 9.83025 17.2223 9.8331C17.3005 9.84021 17.3766 9.84732 17.4506 9.85656C18.7711 10.0151 18.5101 11.2603 18.5144 12.2388C18.5165 12.5801 18.4781 12.8297 18.4006 12.989C18.2371 13.319 17.9441 13.5081 17.5217 13.5551H16.6982L16.2773 12.578C16.2752 12.5732 16.2742 12.568 16.2746 12.5628C16.275 12.5576 16.2766 12.5525 16.2794 12.5481C16.2821 12.5438 16.2859 12.5402 16.2904 12.5377C16.2949 12.5353 16.2999 12.5339 16.305 12.5339L17.1981 12.5332C17.2479 12.5332 17.2949 12.5119 17.329 12.4749C17.3635 12.4376 17.3824 12.3884 17.3816 12.3376C17.3773 12.039 17.3752 11.741 17.3766 11.4431C17.3766 11.175 17.2501 11.0377 16.9948 11.0306C16.7061 11.0235 16.1592 11.0235 15.3535 11.032C15.3251 11.032 15.3109 11.0477 15.3109 11.0783L15.3066 13.5551H14.188L14.1845 11.0676C14.1846 11.0617 14.1837 11.0559 14.1816 11.0504C14.1795 11.045 14.1763 11.04 14.1723 11.0357C14.1683 11.0315 14.1634 11.0281 14.1581 11.0258C14.1527 11.0234 14.1469 11.0222 14.1411 11.0221H13.0957C13.0828 11.0217 13.0705 11.0163 13.0615 11.007C13.0524 10.9977 13.0474 10.9853 13.0474 10.9723L13.0488 9.88998C13.0488 9.85372 13.0659 9.83523 13.1 9.83523L14.1333 9.83736C14.1399 9.83731 14.1465 9.8359 14.1527 9.83321C14.1588 9.83052 14.1643 9.82661 14.1688 9.82172C14.1781 9.81164 14.1831 9.79842 14.183 9.78474V8.84892C14.1834 8.83263 14.1774 8.81684 14.1662 8.80499C14.155 8.79315 14.1396 8.78619 14.1233 8.78563L13.4854 8.78847C13.452 8.78847 13.4357 8.7707 13.4357 8.73585L13.4335 7.64785C13.4335 7.61585 13.4477 7.60021 13.4797 7.60021H14.1404C14.1688 7.60021 14.183 7.58598 14.183 7.55541L14.1901 7.15576H14.1894ZM15.3493 9.83878L16.044 9.83736C16.0554 9.83736 16.0661 9.83238 16.0739 9.82385C16.0818 9.81538 16.0861 9.80416 16.086 9.79256L16.0824 8.92287C16.0824 8.85461 16.0326 8.79914 15.9722 8.79914L15.4147 8.80056C15.3998 8.80078 15.3851 8.8042 15.3716 8.81058C15.3581 8.81696 15.3461 8.82615 15.3365 8.83754C15.3153 8.86225 15.3039 8.89388 15.3045 8.92643L15.308 9.79612C15.308 9.8203 15.3272 9.83878 15.3493 9.83878ZM8.16277 9.91701C7.89255 9.92198 7.40401 9.99736 7.29735 9.64963C7.23264 9.44198 7.37913 9.15256 7.46801 8.9499C7.72117 8.37318 7.96935 7.79434 8.21326 7.21336C8.22321 7.1899 8.24028 7.17781 8.26446 7.17781H9.33326C9.3425 7.17781 9.35033 7.18278 9.35459 7.19061C9.35705 7.19435 9.35858 7.19862 9.35908 7.20307C9.35957 7.20751 9.35901 7.21202 9.35744 7.21621L8.73877 8.6619C8.72455 8.69532 8.7281 8.73301 8.74659 8.7643C8.75553 8.77894 8.76806 8.79107 8.78299 8.79953C8.79792 8.80799 8.81476 8.81251 8.83193 8.81265H9.74784C9.75921 8.81265 9.76917 8.81834 9.77557 8.82758C9.78126 8.83754 9.78268 8.84892 9.7777 8.85958C9.51317 9.47612 9.24935 10.0884 8.98624 10.6964C8.95993 10.7568 8.94855 10.8016 8.95281 10.8301C8.96206 10.8919 8.9969 10.9232 9.05664 10.9239L9.63619 10.9275C9.66961 10.9282 9.68028 10.9446 9.66677 10.9773L9.29201 11.8591C9.2868 11.8737 9.27713 11.8862 9.26437 11.895C9.25161 11.9039 9.2364 11.9084 9.2209 11.9081C8.6321 11.9152 8.22037 11.9152 7.9857 11.9046C7.59744 11.8868 7.50215 11.5469 7.6529 11.1963L8.18552 9.95327C8.18708 9.94936 8.1877 9.94513 8.18733 9.94093C8.18696 9.93673 8.18561 9.93268 8.18339 9.9291C8.18124 9.92536 8.17812 9.92227 8.17437 9.92015C8.17062 9.91802 8.16637 9.91694 8.16206 9.91701H8.16277ZM3.72188 13.5551H3.30233L2.8913 12.5901C2.88926 12.5854 2.88838 12.5803 2.88876 12.5752C2.88913 12.5701 2.89073 12.5652 2.89344 12.5609C2.89589 12.5567 2.89941 12.5531 2.90365 12.5506C2.90789 12.5481 2.9127 12.5468 2.91761 12.5467L3.49788 12.5453C3.51572 12.5449 3.53331 12.541 3.54965 12.5339C3.56598 12.5267 3.58075 12.5164 3.5931 12.5035C3.60545 12.4906 3.61514 12.4754 3.62162 12.4588C3.6281 12.4422 3.63124 12.4244 3.63086 12.4066L3.6465 7.28874C3.64631 7.28214 3.64744 7.27558 3.64981 7.26942C3.65218 7.26326 3.65576 7.25764 3.66032 7.25287C3.66489 7.24811 3.67035 7.2443 3.67641 7.24167C3.68246 7.23903 3.68897 7.23763 3.69557 7.23754H4.69397C4.7409 7.23754 4.76437 7.26243 4.76508 7.31149C4.76935 9.04447 4.76935 10.7476 4.76508 12.4215C4.76224 13.1085 4.44366 13.5778 3.72188 13.5551Z" fill="white"/>
<path d="M13.0878 13.5549H9.3004L9.80813 12.41C9.8132 12.3967 9.82232 12.3854 9.83419 12.3776C9.84606 12.3698 9.86008 12.366 9.87426 12.3666L10.8016 12.368C10.8343 12.368 10.8513 12.3517 10.8513 12.3182V8.84447C10.8513 8.8146 10.8371 8.79967 10.8087 8.79967L10.1936 8.79896C10.1658 8.79896 10.1438 8.77478 10.1438 8.74563V7.63132C10.1438 7.61425 10.1566 7.60003 10.1729 7.60003H12.6803C12.7116 7.60003 12.7265 7.61638 12.7265 7.64909L12.728 8.75132C12.728 8.78332 12.7123 8.79967 12.681 8.79967H12.0609C12.0325 8.79967 12.0183 8.8146 12.0183 8.84447V12.3161C12.0183 12.3495 12.0346 12.3659 12.0659 12.3659L13.0487 12.368C13.0757 12.368 13.0892 12.3822 13.0892 12.4107L13.0878 13.5556V13.5549ZM17.5984 7.70812C18.372 7.1762 18.9168 8.53229 18.0691 8.76483C17.9312 8.80323 17.7114 8.80536 17.4106 8.77194C17.3836 8.76909 17.3708 8.75416 17.3708 8.72572C17.3665 8.40572 17.3032 7.91078 17.5984 7.70883V7.70812ZM6.91818 11.6953L6.40618 12.8878C6.35995 12.9945 6.30946 12.9966 6.25329 12.8964C5.8764 12.2151 5.7484 11.659 5.67444 10.8121C5.61755 10.1543 5.56849 9.49656 5.52582 8.83736C5.5244 8.80749 5.53791 8.79256 5.56635 8.79256L6.60386 8.79327C6.63302 8.79327 6.64938 8.80892 6.65151 8.83878C6.70484 9.60536 6.76102 10.3698 6.81933 11.1321C6.83426 11.3284 6.86769 11.4912 6.91889 11.6206C6.92397 11.6325 6.92653 11.6452 6.92641 11.6581C6.92628 11.6709 6.92348 11.6836 6.91818 11.6953ZM1.4668 11.6512V11.6022C1.51555 11.536 1.54729 11.4588 1.55924 11.3775C1.63604 10.5312 1.69862 9.68572 1.74769 8.83949C1.74982 8.81318 1.76262 8.79967 1.78751 8.79967H2.84706C2.85631 8.79967 2.86555 8.80394 2.87266 8.81176C2.87906 8.81887 2.88262 8.82883 2.88191 8.83878C2.82604 9.61843 2.7637 10.3976 2.69489 11.1762C2.64511 11.7415 2.46449 12.4982 2.08689 12.9568C2.06271 12.986 2.04209 12.9831 2.02644 12.9476L1.4668 11.6512ZM8.69311 13.5549H7.15853L6.96298 13.4774C6.93524 13.4667 6.92742 13.4475 6.94022 13.4198L7.42164 12.3175C7.43586 12.2855 7.45862 12.2734 7.49133 12.282C8.01755 12.4249 8.62698 12.3659 9.16529 12.368C9.19871 12.3687 9.20795 12.3851 9.19373 12.4164L8.69311 13.5542V13.5549Z" fill="white"/>
</g>
<defs>
<clipPath id="clip0_1271_5355">
<rect width="20" height="20" rx="4" fill="white"/>
</clipPath>
</defs>
</svg>
