<svg width="20" height="20" viewBox="0 0 20 20" fill="none" xmlns="http://www.w3.org/2000/svg">
<rect width="20" height="20" rx="4" fill="#00B51D"/>
<path d="M16.0268 3.75H3.97318C3.94387 3.75 3.91485 3.75577 3.88777 3.76699C3.86069 3.7782 3.83609 3.79464 3.81537 3.81537C3.79464 3.83609 3.7782 3.86069 3.76699 3.88777C3.75577 3.91485 3.75 3.94387 3.75 3.97318V4.86599C3.75 4.98923 3.84993 5.08916 3.97318 5.08916H16.0268C16.086 5.08916 16.1428 5.06565 16.1846 5.0238C16.2265 4.98194 16.25 4.92518 16.25 4.86599V3.97318C16.25 3.91399 16.2265 3.85722 16.1846 3.81537C16.1428 3.77351 16.086 3.75 16.0268 3.75ZM16.0268 15.1272H12.9463L13.8671 12.2147H15.0098C15.069 12.2147 15.1258 12.1912 15.1676 12.1493C15.2095 12.1075 15.233 12.0507 15.233 11.9915V6.58474C15.233 6.55543 15.2272 6.5264 15.216 6.49932C15.2048 6.47224 15.1884 6.44763 15.1677 6.4269C15.1469 6.40618 15.1223 6.38974 15.0952 6.37853C15.0682 6.36732 15.0391 6.36155 15.0098 6.36157H4.99019C4.931 6.36157 4.87423 6.38508 4.83238 6.42693C4.79052 6.46879 4.76701 6.52555 4.76701 6.58474V11.9915C4.76701 12.1148 4.86684 12.2147 4.99019 12.2147H12.0568L11.1359 15.1272H8.58941L7.91416 12.9918C7.87527 12.8684 7.74376 12.7686 7.62051 12.7686H6.25613C6.13288 12.7686 6.06453 12.8684 6.10363 12.9918L6.77878 15.1272H3.97318C3.94387 15.1272 3.91485 15.133 3.88777 15.1442C3.86069 15.1554 3.83609 15.1719 3.81537 15.1926C3.79464 15.2133 3.7782 15.2379 3.76699 15.265C3.75577 15.2921 3.75 15.3211 3.75 15.3504V16.2433C3.75 16.3666 3.84993 16.4665 3.97318 16.4665H16.0268C16.086 16.4665 16.1428 16.443 16.1846 16.4011C16.2265 16.3593 16.25 16.3025 16.25 16.2433V15.3504C16.25 15.2912 16.2265 15.2344 16.1846 15.1926C16.1428 15.1507 16.086 15.1272 16.0268 15.1272ZM6.8874 10.5902V7.9859C6.8874 7.86266 6.98722 7.76272 7.11058 7.76272H12.8893C13.0126 7.76272 13.1125 7.86276 13.1125 7.9859V10.5902C13.1125 10.6195 13.1067 10.6485 13.0955 10.6756C13.0843 10.7026 13.0679 10.7272 13.0471 10.748C13.0264 10.7687 13.0018 10.7851 12.9747 10.7963C12.9476 10.8076 12.9186 10.8133 12.8893 10.8133H7.11058C7.08127 10.8133 7.05225 10.8076 7.02517 10.7963C6.99809 10.7851 6.97349 10.7687 6.95277 10.748C6.93204 10.7272 6.9156 10.7026 6.90439 10.6756C6.89317 10.6485 6.8874 10.6195 6.8874 10.5902Z" fill="white"/>
</svg>
