<svg width="20" height="20" viewBox="0 0 20 20" fill="none" xmlns="http://www.w3.org/2000/svg">
<rect width="20" height="20" rx="4" fill="#B31B1B"/>
<path d="M15.3011 18.6177L9.92612 14.1265L10.4099 13.7952L6.31237 16.6152C6.17589 16.6945 6.02141 16.7375 5.86362 16.7402C5.75233 16.739 5.64254 16.7145 5.54133 16.6682C5.44013 16.6219 5.34978 16.5549 5.27612 16.4715C5.14527 16.3193 5.07331 16.1253 5.07331 15.9246C5.07331 15.7239 5.14527 15.5299 5.27612 15.3777L7.83861 12.3852L6.16236 10.9852C6.04881 10.8849 5.95886 10.7607 5.899 10.6215C5.83913 10.4823 5.81083 10.3316 5.81611 10.1802C5.82323 9.84341 5.94542 9.51919 6.16236 9.26147L7.92362 7.88647L3.69237 2.33896C3.60127 2.20327 3.55996 2.04023 3.57545 1.87753C3.59095 1.71484 3.66229 1.56252 3.77737 1.44646C3.83876 1.38463 3.91179 1.33556 3.99224 1.30209C4.07269 1.26862 4.15898 1.25142 4.24612 1.25146C4.4067 1.25609 4.56304 1.30403 4.69862 1.39021L10.6599 5.75646L13.6961 3.39146C13.8318 3.31151 13.9861 3.26842 14.1436 3.26646C14.2551 3.26764 14.3652 3.29243 14.4664 3.33918C14.5677 3.38593 14.6579 3.45359 14.7311 3.53771C14.8615 3.68959 14.9332 3.88315 14.9332 4.08334C14.9332 4.28353 14.8615 4.47709 14.7311 4.62896L12.5299 7.15646L14.9286 8.95646C15.0415 9.05776 15.1309 9.18252 15.1905 9.32202C15.2501 9.46151 15.2785 9.61235 15.2736 9.76396C15.2667 10.1006 15.1449 10.4247 14.9286 10.6827L12.1349 12.6052L12.2174 12.549L16.3136 17.6627C16.4047 17.7984 16.446 17.9614 16.4305 18.1241C16.415 18.2868 16.3437 18.4392 16.2286 18.5552C16.1678 18.6171 16.0952 18.6663 16.0152 18.6998C15.9351 18.7333 15.8492 18.7504 15.7624 18.7502C15.5996 18.7476 15.4405 18.7019 15.3011 18.6177ZM5.85487 15.8452C5.83414 15.8769 5.81814 15.9114 5.80736 15.9477C5.82012 15.9618 5.83486 15.9741 5.85112 15.984C5.86893 15.9828 5.88635 15.9781 5.90237 15.9702L9.15237 13.7302L8.29237 13.0115L5.85487 15.8452ZM10.3436 9.74021L11.9236 11.8302L14.3949 10.1302C14.4683 10.0186 14.509 9.88874 14.5124 9.75521C14.5166 9.6731 14.4908 9.59224 14.4399 9.52772L4.51987 2.18896L10.3436 9.74021Z" fill="white"/>
</svg>
