<svg width="20" height="20" viewBox="0 0 20 20" fill="none" xmlns="http://www.w3.org/2000/svg">
<mask id="mask0_1244_5559" style="mask-type:alpha" maskUnits="userSpaceOnUse" x="0" y="0" width="20" height="20">
<rect width="20" height="20" rx="4" fill="#D9D9D9"/>
</mask>
<g mask="url(#mask0_1244_5559)">
<path d="M13.1447 14.607L14.1738 13.8751H15.3172V6.37367H12.207V13.8981H12.9846L13.1447 14.607Z" fill="#0066FF"/>
<path d="M17.3333 0H2.66667C1.19389 0 0 1.19389 0 2.66667V17.3333C0 18.8061 1.19389 20 2.66667 20H17.3333C18.8061 20 20 18.8061 20 17.3333V2.66667C20 1.19389 18.8061 0 17.3333 0ZM9.64544 16.3227L7.44989 12.9144L8.41056 12.2283L9.87433 14.3552C9.87433 14.3552 10.3773 15.1798 9.64544 16.3227ZM10.4917 10.3309V10.8798H7.74733C6.64956 17.9008 3.33333 16.4029 3.33333 16.4029C6.37511 14.0187 6.43222 10.8798 6.43222 10.8798H3.41344C3.41344 9.622 4.54544 9.64467 4.54544 9.64467H6.58089V6.35133H5.48311C5.07156 8.20389 3.33333 8.11244 3.33333 8.11244C3.33333 8.11244 4.04233 7.01467 4.52256 5.13933C5.00278 3.26389 6.46644 3.46989 6.46644 3.46989C6.032 4.24744 5.82611 5.13933 5.82611 5.13933H9.41667C10.2858 5.13933 10.24 5.68822 10.24 5.68822V6.32867H7.81589V9.64478H9.80556C10.5374 9.64478 10.4917 10.3309 10.4917 10.3309ZM16.6667 15.1107H14.4482L12.5272 16.3227L12.3443 15.1107H10.9491V5.13922H16.6667V15.1107Z" fill="#0066FF"/>
</g>
</svg>
