<svg width="20" height="20" viewBox="0 0 20 20" fill="none" xmlns="http://www.w3.org/2000/svg">
<path fill-rule="evenodd" clip-rule="evenodd" d="M5.04026 2.76698C5.05788 2.64531 5.0803 2.53438 5.10401 2.43667C5.462 2.48668 5.84011 2.62622 6.19902 2.8065C6.44582 2.93046 6.66189 3.06257 6.82876 3.17097C6.9056 3.22089 6.97052 3.26478 7.02614 3.30239L7.02616 3.3024L7.04071 3.31224L7.05127 3.31941L7.05127 3.31942C7.08929 3.3453 7.173 3.4023 7.24069 3.4363C7.41213 3.52241 7.61005 3.53955 7.79374 3.48419C8.46178 3.28286 9.30239 3.20604 10.2779 3.20604C11.2069 3.20604 12.0759 3.34972 12.8308 3.5014C13.0408 3.54359 13.2588 3.49399 13.4299 3.3651C13.5627 3.26503 13.9228 3.00668 14.3902 2.78471C14.712 2.63189 15.0545 2.51086 15.3896 2.4569C15.4118 2.54341 15.433 2.64021 15.4509 2.74576C15.523 3.17229 15.5373 3.72647 15.3495 4.32399C15.2732 4.56684 15.3252 4.83182 15.4877 5.02775C16.1484 5.82419 16.4724 6.74026 16.4724 7.72696C16.4724 8.82534 16.1671 9.78402 15.5246 10.533C14.8815 11.2828 13.8383 11.8947 12.2294 12.1821C11.9547 12.2311 11.7299 12.4287 11.646 12.6948C11.5621 12.961 11.6329 13.2517 11.8297 13.4495C12.0619 13.6827 12.2239 13.8937 12.3355 14.1483C12.4472 14.4032 12.5285 14.7488 12.5285 15.2716V18.7943C12.5285 19.2085 12.8643 19.5443 13.2785 19.5443C13.6928 19.5443 14.0285 19.2085 14.0285 18.7943V15.2716C14.0285 14.5886 13.9213 14.0299 13.7094 13.5463C13.6854 13.4914 13.6602 13.4381 13.6341 13.3863C14.934 12.989 15.9424 12.3499 16.6632 11.5096C17.5832 10.437 17.9724 9.10903 17.9724 7.72696C17.9724 6.51735 17.6069 5.37664 16.8854 4.38305C17.2346 2.821 16.6895 1.56259 16.5821 1.34672C16.4624 1.10618 16.2231 0.948056 15.9549 0.932206C15.1197 0.88285 14.3306 1.15247 13.7467 1.42974C13.3605 1.61317 13.035 1.81401 12.8062 1.96844C12.0785 1.83162 11.2138 1.70604 10.2779 1.70604C9.38129 1.70604 8.49932 1.76523 7.70886 1.9543L7.64591 1.91309C7.45109 1.78653 7.18491 1.62311 6.87229 1.46609C6.26859 1.16285 5.39581 0.83385 4.48487 0.935529C4.23168 0.96379 4.01015 1.11864 3.89663 1.34671C3.78487 1.57127 3.24487 2.89423 3.65461 4.46278C2.93081 5.42587 2.5835 6.62762 2.5835 7.80448C2.5835 9.18556 2.97221 10.5157 3.8953 11.5804C4.62 12.4163 5.63381 13.0422 6.93929 13.4139C6.70228 13.9007 6.52717 14.5169 6.52717 15.2716V15.3741C6.49453 15.3804 6.46192 15.3888 6.42952 15.3996C5.9171 15.5704 5.0762 15.6821 4.41938 15.0252C4.23631 14.8422 4.04843 14.6236 3.8316 14.3713L3.83158 14.3713L3.82965 14.3691C3.61993 14.1251 3.38481 13.8518 3.13571 13.6027C2.6605 13.1275 1.98574 12.5834 1.11127 12.5834C0.69706 12.5834 0.361274 12.9191 0.361274 13.3334C0.361274 13.7476 0.69706 14.0834 1.11127 14.0834C1.34791 14.0834 1.64678 14.2351 2.07505 14.6633C2.27769 14.866 2.47677 15.0963 2.69214 15.3469L2.71358 15.3718L2.7136 15.3718C2.91521 15.6064 3.13504 15.8622 3.35872 16.0859C4.43423 17.1614 5.73393 17.1092 6.52717 16.9279V18.7943C6.52717 19.2085 6.86296 19.5443 7.27717 19.5443C7.69138 19.5443 8.02717 19.2085 8.02717 18.7943V15.2716C8.02717 14.3098 8.44441 13.7325 8.72615 13.4495C8.92509 13.2496 8.99512 12.9551 8.90739 12.6871C8.81967 12.4191 8.58902 12.2229 8.3104 12.1794C6.70557 11.9286 5.66775 11.335 5.02864 10.5978C4.38923 9.86031 4.0835 8.90383 4.0835 7.80448C4.0835 6.79874 4.41839 5.82431 5.047 5.12966C5.23398 4.92305 5.29099 4.6298 5.19504 4.36818C4.97835 3.77733 4.97598 3.21097 5.04026 2.76698Z" fill="url(#paint0_linear_4335_28563)"/>
<defs>
<linearGradient id="paint0_linear_4335_28563" x1="17.564" y1="19.572" x2="-0.629387" y2="2.36843" gradientUnits="userSpaceOnUse">
<stop stop-color="#475766"/>
<stop offset="1" stop-color="#242933"/>
</linearGradient>
</defs>
</svg>
