<svg width="16" height="16" viewBox="0 0 16 16" fill="none" xmlns="http://www.w3.org/2000/svg">
<g clip-path="url(#clip0_4041_26446)">
<path fill-rule="evenodd" clip-rule="evenodd" d="M13.3558 1.95262C13.4184 1.78337 13.6578 1.78337 13.7204 1.95262L13.9059 2.45399C14.0153 2.74961 14.2484 2.98268 14.544 3.09207L15.0454 3.27759C15.2146 3.34022 15.2146 3.5796 15.0454 3.64223L14.544 3.82775C14.2484 3.93714 14.0153 4.17022 13.9059 4.46583L13.7204 4.9672C13.6578 5.13645 13.4184 5.13645 13.3558 4.9672L13.1702 4.46583C13.0609 4.17022 12.8278 3.93714 12.5322 3.82775L12.0308 3.64223C11.8615 3.5796 11.8615 3.34022 12.0308 3.27759L12.5322 3.09207C12.8278 2.98268 13.0609 2.74961 13.1702 2.45399L13.3558 1.95262ZM3.09961 4.03977C3.09961 3.52062 3.52046 3.09977 4.03961 3.09977H9.25961C9.77876 3.09977 10.1996 3.52062 10.1996 4.03977V10.6998C10.1996 10.9759 10.4235 11.1998 10.6996 11.1998C10.9758 11.1998 11.1996 10.9759 11.1996 10.6998V4.03977C11.1996 2.96833 10.331 2.09977 9.25961 2.09977H4.03961C2.96818 2.09977 2.09961 2.96834 2.09961 4.03977V11.2398C2.09961 12.7088 3.29054 13.8998 4.75961 13.8998H11.2396C12.7087 13.8998 13.8996 12.7088 13.8996 11.2398V7.54977C13.8996 7.27362 13.6758 7.04977 13.3996 7.04977C13.1235 7.04977 12.8996 7.27362 12.8996 7.54977V11.2398C12.8996 12.1566 12.1564 12.8998 11.2396 12.8998H4.75961C3.84282 12.8998 3.09961 12.1566 3.09961 11.2398V4.03977ZM5.20901 6.69953L8.08901 6.69938C8.36515 6.69936 8.589 6.47549 8.58898 6.19935C8.58897 5.92321 8.3651 5.69936 8.08896 5.69937L5.20896 5.69953C4.93282 5.69954 4.70897 5.92341 4.70898 6.19956C4.709 6.4757 4.93287 6.69954 5.20901 6.69953ZM8.08901 9.21988L5.20901 9.22004C4.93287 9.22005 4.709 8.99621 4.70898 8.72006C4.70897 8.44392 4.93282 8.22005 5.20896 8.22004L8.08896 8.21988C8.3651 8.21987 8.58897 8.44371 8.58898 8.71986C8.589 8.996 8.36515 9.21987 8.08901 9.21988Z" fill="#323942"/>
</g>
<defs>
<clipPath id="clip0_4041_26446">
<rect width="16" height="16" fill="white"/>
</clipPath>
</defs>
</svg>
