<svg width="18" height="18" viewBox="0 0 18 18" fill="none" xmlns="http://www.w3.org/2000/svg">
<path fill-rule="evenodd" clip-rule="evenodd" d="M9 15.5C12.5899 15.5 15.5 12.5899 15.5 9C15.5 5.41015 12.5899 2.5 9 2.5C5.41015 2.5 2.5 5.41015 2.5 9C2.5 12.5899 5.41015 15.5 9 15.5ZM9 17C13.4183 17 17 13.4183 17 9C17 4.58172 13.4183 1 9 1C4.58172 1 1 4.58172 1 9C1 13.4183 4.58172 17 9 17Z" fill="#1A2029"/>
<path d="M9.12009 5C9.82969 5 10.4083 5.18681 10.845 5.58242C11.2817 5.96703 11.5 6.49451 11.5 7.16484C11.5 7.71429 11.3581 8.16484 11.0961 8.51648C10.9978 8.62637 10.6812 8.92308 10.1572 9.38462C9.9607 9.54945 9.81878 9.73626 9.72052 9.93407C9.61135 10.1538 9.55677 10.3846 9.55677 10.6484V10.8022H8.30131V10.6484C8.30131 10.2308 8.36681 9.86813 8.51965 9.57143C8.66157 9.27473 9.08734 8.81319 9.79694 8.17582L9.92795 8.02198C10.1245 7.78022 10.2227 7.51648 10.2227 7.24176C10.2227 6.87912 10.1135 6.59341 9.91703 6.38462C9.70961 6.17582 9.41485 6.07692 9.04367 6.07692C8.56332 6.07692 8.22489 6.21978 8.01747 6.52747C7.83188 6.78022 7.74454 7.14286 7.74454 7.6044H6.5C6.5 6.79121 6.72926 6.15385 7.20961 5.69231C7.67904 5.23077 8.31223 5 9.12009 5ZM8.92358 11.3407C9.16376 11.3407 9.37118 11.4176 9.53493 11.5714C9.68777 11.7253 9.77511 11.9231 9.77511 12.1648C9.77511 12.4066 9.68777 12.6154 9.52402 12.7692C9.36026 12.9231 9.16376 13 8.92358 13C8.68341 13 8.4869 12.9121 8.32314 12.7582C8.15939 12.6044 8.08297 12.4066 8.08297 12.1648C8.08297 11.9231 8.15939 11.7253 8.32314 11.5714C8.4869 11.4176 8.68341 11.3407 8.92358 11.3407Z" fill="#1A2029"/>
</svg>
