<svg width="10" height="13" viewBox="0 0 10 13" fill="none" xmlns="http://www.w3.org/2000/svg">
<path d="M8.72635 6.08831C8.57523 5.88386 8.39127 5.70667 8.22044 5.52948C7.78024 5.12058 7.2809 4.82753 6.8604 4.39818C6.13325 3.65912 5.82659 2.56286 5.97273 1.53112C6.03255 1.10883 5.66258 0.706268 5.29932 0.929755C5.0692 1.07134 4.85369 1.2323 4.65281 1.39958C2.95112 2.8171 2.28096 5.31821 3.08253 7.46494C3.10881 7.53309 3.13509 7.60124 3.13509 7.68983C3.13509 7.83976 3.03653 7.97606 2.90513 8.03058C2.75401 8.09873 2.59633 8.05784 2.47149 7.9488C2.4342 7.9164 2.40302 7.87712 2.37951 7.83295C1.90196 7.2061 1.68265 6.40442 1.71983 5.61474C1.73484 5.29618 1.33601 5.06621 1.16696 5.33664C0.62252 6.20757 0.348781 7.28381 0.408444 8.31681C0.447865 8.65757 0.487286 8.99831 0.59898 9.33907C0.690963 9.74797 0.868359 10.1569 1.06547 10.5181C1.77505 11.6971 3.00368 12.5421 4.3243 12.7125C5.73033 12.8965 7.23491 12.6307 8.31243 11.6221C9.51478 10.4908 9.93527 8.67801 9.31767 7.12419L9.23226 6.947C9.09428 6.63351 8.72635 6.08831 8.72635 6.08831Z" fill="url(#paint0_linear_1407_5859)"/>
<defs>
<linearGradient id="paint0_linear_1407_5859" x1="9.60039" y1="12.7667" x2="0.768698" y2="9.67844" gradientUnits="userSpaceOnUse">
<stop stop-color="#F72C2C"/>
<stop offset="1" stop-color="#F58249"/>
</linearGradient>
</defs>
</svg>
