<svg width="12" height="14" viewBox="0 0 12 14" fill="none" xmlns="http://www.w3.org/2000/svg">
  <path fill-rule="evenodd" clip-rule="evenodd"
    d="M10.4711 4.86438C10.4711 5.70167 10.6924 6.19518 11.1793 6.76389C11.5484 7.18287 11.6663 7.72069 11.6663 8.30418C11.6663 8.88699 11.4749 9.44026 11.0912 9.88945C10.589 10.4279 9.8807 10.7717 9.15784 10.8315C8.11031 10.9208 7.06211 10.996 6.00001 10.996C4.93724 10.996 3.88971 10.951 2.84218 10.8315C2.11865 10.7717 1.41035 10.4279 0.908785 9.88945C0.525154 9.44026 0.333008 8.88699 0.333008 8.30418C0.333008 7.72069 0.451609 7.18287 0.82 6.76389C1.32223 6.19518 1.52895 5.70167 1.52895 4.86438V4.58036C1.52895 3.45906 1.80856 2.72584 2.38434 2.00807C3.24038 0.961294 4.61258 0.333496 5.97019 0.333496H6.02982C7.41659 0.333496 8.83317 0.991509 9.67464 2.08327C10.2206 2.78627 10.4711 3.4886 10.4711 4.58036V4.86438ZM4.04879 12.3741C4.04879 12.0383 4.35689 11.8846 4.64179 11.8188C4.97507 11.7483 7.00586 11.7483 7.33913 11.8188C7.62404 11.8846 7.93214 12.0383 7.93214 12.3741C7.91557 12.6937 7.72807 12.977 7.469 13.157C7.13307 13.4188 6.73884 13.5847 6.32672 13.6444C6.0988 13.674 5.87485 13.6746 5.65487 13.6444C5.24209 13.5847 4.84786 13.4188 4.51259 13.1563C4.25286 12.977 4.06536 12.6937 4.04879 12.3741Z"
    fill="currentColor" />
</svg>