<svg width="19" height="18" viewBox="0 0 19 18" fill="none" xmlns="http://www.w3.org/2000/svg">
<path fill-rule="evenodd" clip-rule="evenodd" d="M16.0965 1.0347C16.1835 0.799632 16.516 0.799632 16.603 1.0347L17.1575 2.53316C17.1848 2.60707 17.2431 2.66533 17.317 2.69268L18.8154 3.24716C19.0505 3.33415 19.0505 3.66662 18.8154 3.7536L17.317 4.30808C17.2431 4.33543 17.1848 4.3937 17.1575 4.4676L16.603 5.96607C16.516 6.20113 16.1835 6.20113 16.0965 5.96607L15.542 4.4676C15.5147 4.3937 15.4564 4.33543 15.3825 4.30808L13.8841 3.7536C13.649 3.66662 13.649 3.33415 13.8841 3.24716L15.3825 2.69268C15.4564 2.66533 15.5147 2.60707 15.542 2.53316L16.0965 1.0347ZM2.5 2.50021C1.39543 2.50021 0.5 3.39564 0.5 4.50021V14.0002C0.5 16.2094 2.29086 18.0002 4.5 18.0002H13C15.2091 18.0002 17 16.2094 17 14.0002V9.00021C17 8.44793 16.5523 8.00021 16 8.00021C15.4477 8.00021 15 8.44793 15 9.00021V14.0002C15 15.1048 14.1046 16.0002 13 16.0002H4.5C3.39543 16.0002 2.5 15.1048 2.5 14.0002V4.50021L11 4.50021V13.5002C11 14.0525 11.4477 14.5002 12 14.5002C12.5523 14.5002 13 14.0525 13 13.5002V4.50021C13 3.39564 12.1046 2.50021 11 2.50021H2.5ZM5 6.5C4.44772 6.5 4 6.94772 4 7.5C4 8.05228 4.44772 8.5 5 8.5H8.5C9.05228 8.5 9.5 8.05228 9.5 7.5C9.5 6.94772 9.05228 6.5 8.5 6.5H5ZM4 11C4 10.4477 4.44772 10 5 10H8.5C9.05228 10 9.5 10.4477 9.5 11C9.5 11.5523 9.05228 12 8.5 12H5C4.44772 12 4 11.5523 4 11Z" fill="url(#paint0_linear_1455_2105)"/>
<defs>
<linearGradient id="paint0_linear_1455_2105" x1="-0.557108" y1="2.87508" x2="17.6737" y2="19.864" gradientUnits="userSpaceOnUse">
<stop stop-color="#F04848"/>
<stop offset="1" stop-color="#F6C04A"/>
</linearGradient>
</defs>
</svg>
