<svg width="16" height="16" viewBox="0 0 16 16" fill="none" xmlns="http://www.w3.org/2000/svg">
  <path fill-rule="evenodd" clip-rule="evenodd"
    d="M8.00395 8.95973C7.47595 8.95973 7.04395 8.52773 7.04395 7.99973C7.04395 7.47173 7.47595 7.04053 8.00395 7.04053C8.53195 7.04053 8.96395 7.47173 8.96395 7.99973C8.96395 8.52773 8.53195 8.95973 8.00395 8.95973ZM11.5889 8.95973C11.0609 8.95973 10.6289 8.52773 10.6289 7.99973C10.6289 7.47173 11.0609 7.04053 11.5889 7.04053C12.1169 7.04053 12.5409 7.47173 12.5409 7.99973C12.5409 8.52773 12.1169 8.95973 11.5889 8.95973ZM3.45703 8.00022C3.45703 8.52822 3.88903 8.96022 4.41703 8.96022C4.94503 8.96022 5.37703 8.52822 5.37703 8.00022C5.37703 7.47222 4.94503 7.04102 4.41703 7.04102C3.88903 7.04102 3.45703 7.47222 3.45703 8.00022ZM12 1H4C2.34315 1 1 2.34315 1 4V4.01562V4.03125V4.04688V4.0625V4.07812V4.09375V4.10938V4.125V4.14062V4.15625V4.17188V4.1875V4.20312V4.21875V4.23438V4.25V4.26562V4.28125V4.29688V4.3125V4.32812V4.34375V4.35938V4.375V4.39062V4.40625V4.42188V4.4375V4.45312V4.46875V4.48438V4.5V4.51562V4.53125V4.54688V4.5625V4.57812V4.59375V4.60938V4.625V4.64062V4.65625V4.67188V4.6875V4.70312V4.71875V4.73438V4.75V4.76562V4.78125V4.79688V4.8125V4.82812V4.84375V4.85938V4.875V4.89062V4.90625V4.92188V4.9375V4.95312V4.96875V4.98438V5V5.01562V5.03125V5.04688V5.0625V5.07812V5.09375V5.10938V5.125V5.14062V5.15625V5.17188V5.1875V5.20312V5.21875V5.23438V5.25V5.26562V5.28125V5.29688V5.3125V5.32812V5.34375V5.35938V5.375V5.39062V5.40625V5.42188V5.4375V5.45312V5.46875V5.48438V5.5V5.51562V5.53125V5.54688V5.5625V5.57812V5.59375V5.60938V5.625V5.64062V5.65625V5.67188V5.6875V5.70312V5.71875V5.73438V5.75V5.76562V5.78125V5.79688V5.8125V5.82812V5.84375V5.85938V5.875V5.89062V5.90625V5.92188V5.9375V5.95312V5.96875V5.98438V6V6.01562V6.03125V6.04688V6.0625V6.07812V6.09375V6.10938V6.125V6.14062V6.15625V6.17188V6.1875V6.20312V6.21875V6.23438V6.25V6.26562V6.28125V6.29688V6.3125V6.32812V6.34375V6.35938V6.375V6.39062V6.40625V6.42188V6.4375V6.45312V6.46875V6.48438V6.5V6.51562V6.53125V6.54688V6.5625V6.57812V6.59375V6.60938V6.625V6.64062V6.65625V6.67188V6.6875V6.70312V6.71875V6.73438V6.75V6.76562V6.78125V6.79688V6.8125V6.82812V6.84375V6.85938V6.875V6.89062V6.90625V6.92188V6.9375V6.95312V6.96875V6.98438V7V7.01562V7.03125V7.04688V7.0625V7.07812V7.09375V7.10938V7.125V7.14062V7.15625V7.17188V7.1875V7.20312V7.21875V7.23438V7.25V7.26562V7.28125V7.29688V7.3125V7.32812V7.34375V7.35938V7.375V7.39062V7.40625V7.42188V7.4375V7.45312V7.46875V7.48438V7.5V7.51562V7.53125V7.54688V7.5625V7.57812V7.59375V7.60938V7.625V7.64062V7.65625V7.67188V7.6875V7.70312V7.71875V7.73438V7.75V7.76562V7.78125V7.79688V7.8125V7.82812V7.84375V7.85938V7.875V7.89062V7.90625V7.92188V7.9375V7.95312V7.96875V7.98438V8V8.01562V8.03125V8.04688V8.0625V8.07812V8.09375V8.10938V8.125V8.14062V8.15625V8.17188V8.1875V8.20312V8.21875V8.23438V8.25V8.26562V8.28125V8.29688V8.3125V8.32812V8.34375V8.35938V8.375V8.39062V8.40625V8.42188V8.4375V8.45312V8.46875V8.48438V8.5V8.51562V8.53125V8.54688V8.5625V8.57812V8.59375V8.60938V8.625V8.64062V8.65625V8.67188V8.6875V8.70312V8.71875V8.73438V8.75V8.76562V8.78125V8.79688V8.8125V8.82812V8.84375V8.85938V8.875V8.89062V8.90625V8.92188V8.9375V8.95312V8.96875V8.98438V9V9.01562V9.03125V9.04688V9.0625V9.07812V9.09375V9.10938V9.125V9.14062V9.15625V9.17188V9.1875V9.20312V9.21875V9.23438V9.25V9.26562V9.28125V9.29688V9.3125V9.32812V9.34375V9.35938V9.375V9.39062V9.40625V9.42188V9.4375V9.45312V9.46875V9.48438V9.5V9.51562V9.53125V9.54688V9.5625V9.57812V9.59375V9.60938V9.625V9.64062V9.65625V9.67188V9.6875V9.70312V9.71875V9.73438V9.75V9.76562V9.78125V9.79688V9.8125V9.82812V9.84375V9.85938V9.875V9.89062V9.90625V9.92188V9.9375V9.95312V9.96875V9.98438V10V10.0156V10.0312V10.0469V10.0625V10.0781V10.0938V10.1094V10.125V10.1406V10.1562V10.1719V10.1875V10.2031V10.2188V10.2344V10.25V10.2656V10.2812V10.2969V10.3125V10.3281V10.3438V10.3594V10.375V10.3906V10.4062V10.4219V10.4375V10.4531V10.4688V10.4844V10.5V10.5156V10.5312V10.5469V10.5625V10.5781V10.5938V10.6094V10.625V10.6406V10.6562V10.6719V10.6875V10.7031V10.7188V10.7344V10.75V10.7656V10.7812V10.7969V10.8125V10.8281V10.8438V10.8594V10.875V10.8906V10.9062V10.9219V10.9375V10.9531V10.9688V10.9844V11V11.0156V11.0312V11.0469V11.0625V11.0781V11.0938V11.1094V11.125V11.1406V11.1562V11.1719V11.1875V11.2031V11.2188V11.2344V11.25V11.2656V11.2812V11.2969V11.3125V11.3281V11.3438V11.3594V11.375V11.3906V11.4062V11.4219V11.4375V11.4531V11.4688V11.4844V11.5V11.5156V11.5312V11.5469V11.5625V11.5781V11.5938V11.6094V11.625V11.6406V11.6562V11.6719V11.6875V11.7031V11.7188V11.7344V11.75V11.7656V11.7812V11.7969V11.8125V11.8281V11.8438V11.8594V11.875V11.8906V11.9062V11.9219V11.9375V11.9531V11.9688V11.9844V12C1 13.6569 2.34315 15 4 15H12C13.6569 15 15 13.6569 15 12V11.9844V11.9688V11.9531V11.9375V11.9219V11.9062V11.8906V11.875V11.8594V11.8438V11.8281V11.8125V11.7969V11.7812V11.7656V11.75V11.7344V11.7188V11.7031V11.6875V11.6719V11.6562V11.6406V11.625V11.6094V11.5938V11.5781V11.5625V11.5469V11.5312V11.5156V11.5V11.4844V11.4688V11.4531V11.4375V11.4219V11.4062V11.3906V11.375V11.3594V11.3438V11.3281V11.3125V11.2969V11.2812V11.2656V11.25V11.2344V11.2188V11.2031V11.1875V11.1719V11.1562V11.1406V11.125V11.1094V11.0938V11.0781V11.0625V11.0469V11.0312V11.0156V11V10.9844V10.9688V10.9531V10.9375V10.9219V10.9062V10.8906V10.875V10.8594V10.8438V10.8281V10.8125V10.7969V10.7812V10.7656V10.75V10.7344V10.7188V10.7031V10.6875V10.6719V10.6562V10.6406V10.625V10.6094V10.5938V10.5781V10.5625V10.5469V10.5312V10.5156V10.5V10.4844V10.4688V10.4531V10.4375V10.4219V10.4062V10.3906V10.375V10.3594V10.3438V10.3281V10.3125V10.2969V10.2812V10.2656V10.25V10.2344V10.2188V10.2031V10.1875V10.1719V10.1562V10.1406V10.125V10.1094V10.0938V10.0781V10.0625V10.0469V10.0312V10.0156V10V9.98438V9.96875V9.95312V9.9375V9.92188V9.90625V9.89062V9.875V9.85938V9.84375V9.82812V9.8125V9.79688V9.78125V9.76562V9.75V9.73438V9.71875V9.70312V9.6875V9.67188V9.65625V9.64062V9.625V9.60938V9.59375V9.57812V9.5625V9.54688V9.53125V9.51562V9.5V9.48438V9.46875V9.45312V9.4375V9.42188V9.40625V9.39062V9.375V9.35938V9.34375V9.32812V9.3125V9.29688V9.28125V9.26562V9.25V9.23438V9.21875V9.20312V9.1875V9.17188V9.15625V9.14062V9.125V9.10938V9.09375V9.07812V9.0625V9.04688V9.03125V9.01562V9V8.98438V8.96875V8.95312V8.9375V8.92188V8.90625V8.89062V8.875V8.85938V8.84375V8.82812V8.8125V8.79688V8.78125V8.76562V8.75V8.73438V8.71875V8.70312V8.6875V8.67188V8.65625V8.64062V8.625V8.60938V8.59375V8.57812V8.5625V8.54688V8.53125V8.51562V8.5V8.48438V8.46875V8.45312V8.4375V8.42188V8.40625V8.39062V8.375V8.35938V8.34375V8.32812V8.3125V8.29688V8.28125V8.26562V8.25V8.23438V8.21875V8.20312V8.1875V8.17188V8.15625V8.14062V8.125V8.10938V8.09375V8.07812V8.0625V8.04688V8.03125V8.01562V8V7.98438V7.96875V7.95312V7.9375V7.92188V7.90625V7.89062V7.875V7.85938V7.84375V7.82812V7.8125V7.79688V7.78125V7.76562V7.75V7.73438V7.71875V7.70312V7.6875V7.67188V7.65625V7.64062V7.625V7.60938V7.59375V7.57812V7.5625V7.54688V7.53125V7.51562V7.5V7.48438V7.46875V7.45312V7.4375V7.42188V7.40625V7.39062V7.375V7.35938V7.34375V7.32812V7.3125V7.29688V7.28125V7.26562V7.25V7.23438V7.21875V7.20312V7.1875V7.17188V7.15625V7.14062V7.125V7.10938V7.09375V7.07812V7.0625V7.04688V7.03125V7.01562V7V6.98438V6.96875V6.95312V6.9375V6.92188V6.90625V6.89062V6.875V6.85938V6.84375V6.82812V6.8125V6.79688V6.78125V6.76562V6.75V6.73438V6.71875V6.70312V6.6875V6.67188V6.65625V6.64062V6.625V6.60938V6.59375V6.57812V6.5625V6.54688V6.53125V6.51562V6.5V6.48438V6.46875V6.45312V6.4375V6.42188V6.40625V6.39062V6.375V6.35938V6.34375V6.32812V6.3125V6.29688V6.28125V6.26562V6.25V6.23438V6.21875V6.20312V6.1875V6.17188V6.15625V6.14062V6.125V6.10938V6.09375V6.07812V6.0625V6.04688V6.03125V6.01562V6V5.98438V5.96875V5.95312V5.9375V5.92188V5.90625V5.89062V5.875V5.85938V5.84375V5.82812V5.8125V5.79688V5.78125V5.76562V5.75V5.73438V5.71875V5.70312V5.6875V5.67188V5.65625V5.64062V5.625V5.60938V5.59375V5.57812V5.5625V5.54688V5.53125V5.51562V5.5V5.48438V5.46875V5.45312V5.4375V5.42188V5.40625V5.39062V5.375V5.35938V5.34375V5.32812V5.3125V5.29688V5.28125V5.26562V5.25V5.23438V5.21875V5.20312V5.1875V5.17188V5.15625V5.14062V5.125V5.10938V5.09375V5.07812V5.0625V5.04688V5.03125V5.01562V5V4.98438V4.96875V4.95312V4.9375V4.92188V4.90625V4.89062V4.875V4.85938V4.84375V4.82812V4.8125V4.79688V4.78125V4.76562V4.75V4.73438V4.71875V4.70312V4.6875V4.67188V4.65625V4.64062V4.625V4.60938V4.59375V4.57812V4.5625V4.54688V4.53125V4.51562V4.5V4.48438V4.46875V4.45312V4.4375V4.42188V4.40625V4.39062V4.375V4.35938V4.34375V4.32812V4.3125V4.29688V4.28125V4.26562V4.25V4.23438V4.21875V4.20312V4.1875V4.17188V4.15625V4.14062V4.125V4.10938V4.09375V4.07812V4.0625V4.04688V4.03125V4.01562V4C15 2.34315 13.6569 1 12 1ZM12 0C14.2091 0 16 1.79086 16 4V12C16 14.2091 14.2091 16 12 16H4C1.79086 16 0 14.2091 0 12V4C0 1.79086 1.79086 0 4 0H12Z"
    fill="currentColor" />
</svg>