<svg width="12" height="12" viewBox="0 0 12 12" fill="none" xmlns="http://www.w3.org/2000/svg">
<path fill-rule="evenodd" clip-rule="evenodd" d="M8.125 0.806841C9.1116 0.662125 10.1988 0.698744 10.834 1.33395C11.4692 1.96916 11.5058 3.05636 11.3611 4.04297C11.1459 5.51046 10.2367 6.74795 9.18788 7.79672C9.08322 7.90138 9.05037 8.05802 9.10416 8.19591L9.1195 8.23525C9.63908 9.56721 8.42886 10.9265 7.04576 10.5643L6.73107 10.4819C6.6247 10.4541 6.55096 10.3574 6.55225 10.2474L6.55543 9.97678C6.56161 9.45064 6.15902 9.00972 5.6345 8.96815L5.02117 8.91955C4.784 8.90076 4.5613 8.79802 4.39307 8.62978L3.53818 7.7749C3.36995 7.60667 3.26721 7.38396 3.24841 7.14679L3.19981 6.53347C3.15824 6.00894 2.71732 5.60635 2.19119 5.61253L1.92052 5.61571C1.81058 5.617 1.71388 5.54326 1.68603 5.4369L1.60363 5.1222C1.24151 3.73911 2.60075 2.52888 3.93271 3.04846L3.97205 3.06381C4.10994 3.1176 4.26659 3.08474 4.37124 2.98009C5.42002 1.93131 6.6575 1.02209 8.125 0.806841ZM8.72049 5.16592C8.24623 5.64018 7.47672 5.6396 7.00174 5.16462C6.52677 4.68964 6.52619 3.92013 7.00045 3.44587C7.47471 2.97161 8.24422 2.97219 8.7192 3.44717C9.19418 3.92214 9.19476 4.69165 8.72049 5.16592Z" fill="url(#paint0_linear_4185_8481)"/>
<path d="M1.25375 6.62433L1.3102 6.64254C1.33562 6.65073 1.34339 6.68289 1.32454 6.70179L0.78179 7.24592C0.6427 7.38537 0.407468 7.25818 0.447984 7.06544L0.653449 6.08803C0.660071 6.05653 0.704157 6.05421 0.714049 6.08484C0.796771 6.34097 0.997591 6.54171 1.25375 6.62433Z" fill="url(#paint1_linear_4185_8481)"/>
<path d="M4.15299 10.1142L3.66987 10.1202C3.04631 10.1279 2.43288 10.279 1.87705 10.5618C1.70173 10.651 1.5148 10.4636 1.60379 10.2882C1.88592 9.73209 2.03695 9.11802 2.04461 8.4945L2.05053 8.01233C2.05282 7.82599 2.29855 7.76029 2.39353 7.92063L2.41034 7.949C2.85128 8.69333 3.47266 9.31456 4.21709 9.75533L4.24452 9.77157C4.40468 9.86639 4.33911 10.1118 4.15299 10.1142Z" fill="url(#paint2_linear_4185_8481)"/>
<path d="M5.53043 10.9036L5.51217 10.8471C5.50395 10.8216 5.47168 10.8139 5.4528 10.8328L4.91084 11.3776C4.77174 11.5174 4.89984 11.7525 5.09272 11.7114L6.06715 11.5038C6.0986 11.4971 6.10085 11.4531 6.07025 11.4432C5.81403 11.3606 5.61317 11.1598 5.53043 10.9036Z" fill="url(#paint3_linear_4185_8481)"/>
<defs>
<linearGradient id="paint0_linear_4185_8481" x1="-1.5" y1="1" x2="12.7347" y2="11.5341" gradientUnits="userSpaceOnUse">
<stop stop-color="#7B4DFF"/>
<stop offset="1" stop-color="#33ADFF"/>
</linearGradient>
<linearGradient id="paint1_linear_4185_8481" x1="-1.5" y1="1" x2="12.7347" y2="11.5341" gradientUnits="userSpaceOnUse">
<stop stop-color="#7B4DFF"/>
<stop offset="1" stop-color="#33ADFF"/>
</linearGradient>
<linearGradient id="paint2_linear_4185_8481" x1="-1.5" y1="1" x2="12.7347" y2="11.5341" gradientUnits="userSpaceOnUse">
<stop stop-color="#7B4DFF"/>
<stop offset="1" stop-color="#33ADFF"/>
</linearGradient>
<linearGradient id="paint3_linear_4185_8481" x1="-1.5" y1="1" x2="12.7347" y2="11.5341" gradientUnits="userSpaceOnUse">
<stop stop-color="#7B4DFF"/>
<stop offset="1" stop-color="#33ADFF"/>
</linearGradient>
</defs>
</svg>
