<svg width="18" height="18" viewBox="0 0 18 18" fill="none" xmlns="http://www.w3.org/2000/svg">
<path d="M0 9C0 12.9214 2.50714 16.2643 6.04286 17.4857C6.49286 17.6143 6.42857 17.2929 6.42857 17.0357V15.4929C3.72857 15.8143 3.6 14.0143 3.40714 13.6929C3.02143 13.05 2.18571 12.9214 2.44286 12.6C3.08571 12.2786 3.72857 12.6643 4.43571 13.7571C4.95 14.5286 5.97857 14.4 6.55714 14.2714C6.68571 13.8214 6.94286 13.3714 7.26429 13.05C4.37143 12.6 3.21429 10.8643 3.21429 8.80714C3.21429 7.84286 3.53571 6.87857 4.17857 6.17143C3.72857 4.95 4.17857 3.85714 4.24286 3.72857C5.4 3.6 6.62143 4.56429 6.75 4.62857C7.39286 4.43571 8.16429 4.37143 9 4.37143C9.83571 4.37143 10.6071 4.5 11.25 4.62857C11.5071 4.43571 12.6 3.66429 13.6929 3.72857C13.7571 3.85714 14.2071 4.88571 13.8214 6.10714C14.4643 6.87857 14.7857 7.77857 14.7857 8.74286C14.7857 10.8 13.6286 12.5357 10.7357 13.05C11.1857 13.5 11.5071 14.1429 11.5071 14.9143V17.1643C11.5071 17.3571 11.5071 17.55 11.8286 17.55C15.4286 16.3286 18 12.9857 18 9C18 4.05 13.95 0 9 0C4.05 0 0 4.05 0 9Z" fill="url(#paint0_linear_1586_8978)"/>
<defs>
<linearGradient id="paint0_linear_1586_8978" x1="17.5556" y1="17.55" x2="0.444372" y2="-1.0401e-06" gradientUnits="userSpaceOnUse">
<stop stop-color="#475766"/>
<stop offset="1" stop-color="#242933"/>
</linearGradient>
</defs>
</svg>
