<svg width="16" height="16" viewBox="0 0 16 16" fill="none" xmlns="http://www.w3.org/2000/svg">
<g clip-path="url(#clip0_4041_26435)">
<path fill-rule="evenodd" clip-rule="evenodd" d="M12.8177 1.49266C12.8803 1.32341 13.1197 1.32341 13.1823 1.49266L13.3678 1.99403C13.4772 2.28965 13.7103 2.52272 14.0059 2.63211L14.5073 2.81763C14.6765 2.88026 14.6765 3.11964 14.5073 3.18227L14.0059 3.36779C13.7103 3.47718 13.4772 3.71026 13.3678 4.00587L13.1823 4.50724C13.1197 4.67649 12.8803 4.67649 12.8177 4.50724L12.6322 4.00587C12.5228 3.71026 12.2897 3.47718 11.9941 3.36779L11.4927 3.18227C11.3235 3.11964 11.3235 2.88026 11.4927 2.81763L11.9941 2.63211C12.2897 2.52272 12.5228 2.28965 12.6322 1.99403L12.8177 1.49266ZM2.74219 8.00009C2.74219 5.09507 5.09717 2.74009 8.00219 2.74009C8.61786 2.74009 9.2078 2.84566 9.75556 3.03926C10.0159 3.13129 10.3016 2.99482 10.3936 2.73447C10.4856 2.47411 10.3492 2.18845 10.0888 2.09642C9.4355 1.86551 8.73295 1.74009 8.00219 1.74009C4.54488 1.74009 1.74219 4.54278 1.74219 8.00009C1.74219 11.4574 4.54488 14.2601 8.00219 14.2601C11.4595 14.2601 14.2622 11.4574 14.2622 8.00009C14.2622 7.26932 14.1368 6.56677 13.9059 5.91346C13.8138 5.65311 13.5282 5.51664 13.2678 5.60867C13.0075 5.70069 12.871 5.98635 12.963 6.24671C13.1566 6.79447 13.2622 7.38441 13.2622 8.00009C13.2622 10.9051 10.9072 13.2601 8.00219 13.2601C5.09717 13.2601 2.74219 10.9051 2.74219 8.00009ZM6.25 5.99995C6.25 5.72381 6.02614 5.49995 5.75 5.49995C5.47386 5.49995 5.25 5.72381 5.25 5.99995V8.99995C5.25 9.27609 5.47386 9.49995 5.75 9.49995C6.02614 9.49995 6.25 9.27609 6.25 8.99995V5.99995ZM9.25 5.49995C9.52614 5.49995 9.75 5.72381 9.75 5.99995V8.99995C9.75 9.27609 9.52614 9.49995 9.25 9.49995C8.97386 9.49995 8.75 9.27609 8.75 8.99995V5.99995C8.75 5.72381 8.97386 5.49995 9.25 5.49995Z" fill="#323942"/>
</g>
<defs>
<clipPath id="clip0_4041_26435">
<rect width="16" height="16" fill="white"/>
</clipPath>
</defs>
</svg>
