<svg width="16" height="16" viewBox="0 0 16 16" fill="none" xmlns="http://www.w3.org/2000/svg">
<g clip-path="url(#clip0_4041_26269)">
<g opacity="0.1" filter="url(#filter0_f_4041_26269)">
<circle cx="10" cy="10" r="5" fill="url(#paint0_linear_4041_26269)"/>
</g>
<path fill-rule="evenodd" clip-rule="evenodd" d="M12.8175 1.49266C12.8801 1.32341 13.1195 1.32341 13.1821 1.49266L13.3676 1.99403C13.477 2.28965 13.7101 2.52272 14.0057 2.63211L14.5071 2.81763C14.6763 2.88026 14.6763 3.11964 14.5071 3.18227L14.0057 3.36779C13.7101 3.47718 13.477 3.71026 13.3676 4.00587L13.1821 4.50724C13.1195 4.67649 12.8801 4.67649 12.8175 4.50724L12.632 4.00587C12.5226 3.71026 12.2895 3.47718 11.9939 3.36779L11.4925 3.18227C11.3233 3.11964 11.3233 2.88026 11.4925 2.81763L11.9939 2.63211C12.2895 2.52272 12.5226 2.28965 12.632 1.99403L12.8175 1.49266ZM2.94199 8.00009C2.94199 5.20553 5.20743 2.94009 8.00199 2.94009C8.59465 2.94009 9.16206 3.04168 9.68872 3.22783C10.0532 3.35666 10.4531 3.16562 10.582 2.80111C10.7108 2.43661 10.5198 2.03669 10.1553 1.90785C9.48085 1.66948 8.75578 1.54009 8.00199 1.54009C4.43423 1.54009 1.54199 4.43233 1.54199 8.00009C1.54199 11.5678 4.43423 14.4601 8.00199 14.4601C11.5698 14.4601 14.462 11.5678 14.462 8.00009C14.462 7.2463 14.3326 6.52123 14.0942 5.84681C13.9654 5.48231 13.5655 5.29127 13.201 5.4201C12.8365 5.54893 12.6454 5.94886 12.7742 6.31336C12.9604 6.84002 13.062 7.40743 13.062 8.00009C13.062 10.7946 10.7966 13.0601 8.00199 13.0601C5.20743 13.0601 2.94199 10.7946 2.94199 8.00009ZM5.7498 5.29995C6.1364 5.29995 6.4498 5.61335 6.4498 5.99995V8.99995C6.4498 9.38655 6.1364 9.69995 5.7498 9.69995C5.36321 9.69995 5.0498 9.38655 5.0498 8.99995V5.99995C5.0498 5.61335 5.36321 5.29995 5.7498 5.29995ZM9.9498 5.99995C9.9498 5.61335 9.6364 5.29995 9.2498 5.29995C8.8632 5.29995 8.5498 5.61335 8.5498 5.99995V8.99995C8.5498 9.38655 8.8632 9.69995 9.2498 9.69995C9.6364 9.69995 9.9498 9.38655 9.9498 8.99995V5.99995Z" fill="url(#paint1_linear_4041_26269)"/>
</g>
<defs>
<filter id="filter0_f_4041_26269" x="4" y="4" width="12" height="12" filterUnits="userSpaceOnUse" color-interpolation-filters="sRGB">
<feFlood flood-opacity="0" result="BackgroundImageFix"/>
<feBlend mode="normal" in="SourceGraphic" in2="BackgroundImageFix" result="shape"/>
<feGaussianBlur stdDeviation="0.5" result="effect1_foregroundBlur_4041_26269"/>
</filter>
<linearGradient id="paint0_linear_4041_26269" x1="4.88461" y1="4.87287" x2="17.1715" y2="13.9026" gradientUnits="userSpaceOnUse">
<stop stop-color="#6039FF"/>
<stop offset="1" stop-color="#43BAFF"/>
</linearGradient>
<linearGradient id="paint1_linear_4041_26269" x1="1.39093" y1="1.19926" x2="17.4789" y2="13.0204" gradientUnits="userSpaceOnUse">
<stop stop-color="#6039FF"/>
<stop offset="1" stop-color="#43BAFF"/>
</linearGradient>
<clipPath id="clip0_4041_26269">
<rect width="16" height="16" fill="white"/>
</clipPath>
</defs>
</svg>
