<svg width="17" height="17" viewBox="0 0 17 17" fill="none" xmlns="http://www.w3.org/2000/svg">
<path fill-rule="evenodd" clip-rule="evenodd" d="M13.2468 0.684113C13.3338 0.449046 13.6662 0.449045 13.7532 0.684112L14.4022 2.43804C14.4296 2.51195 14.4878 2.57022 14.5618 2.59756L16.3157 3.24658C16.5508 3.33356 16.5508 3.66603 16.3157 3.75302L14.5618 4.40203C14.4878 4.42938 14.4296 4.48765 14.4022 4.56155L13.7532 6.31548C13.6662 6.55055 13.3338 6.55055 13.2468 6.31548L12.5978 4.56155C12.5704 4.48765 12.5122 4.42938 12.4382 4.40203L10.6843 3.75302C10.4492 3.66603 10.4492 3.33356 10.6843 3.24658L12.4382 2.59756C12.5122 2.57022 12.5704 2.51195 12.5978 2.43804L13.2468 0.684113ZM3 3.9998C3 4.82822 2.32843 5.4998 1.5 5.4998C0.671573 5.4998 0 4.82822 0 3.9998C0 3.17137 0.671573 2.4998 1.5 2.4998C2.32843 2.4998 3 3.17137 3 3.9998ZM5 3.94999C5 3.39771 5.44772 2.94999 6 2.94999H8.5C9.05228 2.94999 9.5 3.39771 9.5 3.94999C9.5 4.50228 9.05228 4.94999 8.5 4.94999H6C5.44772 4.94999 5 4.50228 5 3.94999ZM3 9.4998C3 10.3282 2.32843 10.9998 1.5 10.9998C0.671573 10.9998 0 10.3282 0 9.4998C0 8.67137 0.671573 7.9998 1.5 7.9998C2.32843 7.9998 3 8.67137 3 9.4998ZM5 9.44999C5 8.89771 5.44772 8.44999 6 8.44999H15C15.5523 8.44999 16 8.89771 16 9.44999C16 10.0023 15.5523 10.45 15 10.45H6C5.44771 10.45 5 10.0023 5 9.44999ZM1.5 16.4998C2.32843 16.4998 3 15.8282 3 14.9998C3 14.1714 2.32843 13.4998 1.5 13.4998C0.671573 13.4998 0 14.1714 0 14.9998C0 15.8282 0.671573 16.4998 1.5 16.4998ZM6 13.95C5.44772 13.95 5 14.3977 5 14.95C5 15.5023 5.44771 15.95 6 15.95H15C15.5523 15.95 16 15.5023 16 14.95C16 14.3977 15.5523 13.95 15 13.95H6Z" fill="url(#paint0_linear_1455_1215)"/>
<defs>
<linearGradient id="paint0_linear_1455_1215" x1="8.4329e-08" y1="1" x2="16" y2="18" gradientUnits="userSpaceOnUse">
<stop stop-color="#1A66FF"/>
<stop offset="1" stop-color="#0FF1CB"/>
</linearGradient>
</defs>
</svg>
