<svg width="14" height="14" viewBox="0 0 14 14" fill="none" xmlns="http://www.w3.org/2000/svg">
<path d="M0 7C0 10.05 1.95 12.65 4.7 13.6C5.05 13.7 5 13.45 5 13.25V12.05C2.9 12.3 2.8 10.9 2.65 10.65C2.35 10.15 1.7 10.05 1.9 9.8C2.4 9.55 2.9 9.85 3.45 10.7C3.85 11.3 4.65 11.2 5.1 11.1C5.2 10.75 5.4 10.4 5.65 10.15C3.4 9.8 2.5 8.45 2.5 6.85C2.5 6.1 2.75 5.35 3.25 4.8C2.9 3.85 3.25 3 3.3 2.9C4.2 2.8 5.15 3.55 5.25 3.6C5.75 3.45 6.35 3.4 7 3.4C7.65 3.4 8.25 3.5 8.75 3.6C8.95 3.45 9.8 2.85 10.65 2.9C10.7 3 11.05 3.8 10.75 4.75C11.25 5.35 11.5 6.05 11.5 6.8C11.5 8.4 10.6 9.75 8.35 10.15C8.7 10.5 8.95 11 8.95 11.6V13.35C8.95 13.5 8.95 13.65 9.2 13.65C12 12.7 14 10.1 14 7C14 3.15 10.85 0 7 0C3.15 0 0 3.15 0 7Z" fill="#323942"/>
</svg>
