<svg width="14" height="15" viewBox="0 0 14 15" fill="none" xmlns="http://www.w3.org/2000/svg">
<path fill-rule="evenodd" clip-rule="evenodd" d="M10.1919 1.0126C10.1266 0.836296 9.87728 0.836296 9.81204 1.0126L9.42656 2.05433C9.40605 2.10976 9.36235 2.15346 9.30692 2.17397L8.26519 2.55944C8.08889 2.62468 8.08889 2.87404 8.26519 2.93927L9.30692 3.32475C9.36235 3.34526 9.40605 3.38896 9.42656 3.44439L9.81204 4.48612C9.87728 4.66242 10.1266 4.66242 10.1919 4.48612L10.5773 3.44439C10.5979 3.38896 10.6416 3.34526 10.697 3.32475L11.7387 2.93927C11.915 2.87404 11.915 2.62468 11.7387 2.55944L10.697 2.17397C10.6416 2.15346 10.5979 2.10976 10.5773 2.05433L10.1919 1.0126ZM6.99805 13.2494C7.45244 13.2494 7.89229 13.1918 8.31118 13.084C8.71232 12.9807 9.12121 13.2222 9.22446 13.6234C9.32772 14.0245 9.08623 14.4334 8.68509 14.5366C8.15539 14.673 7.60122 14.7465 7.03136 14.7493C7.02161 14.7497 7.0118 14.7498 7.00195 14.7498C3.27403 14.7498 0.251953 11.7278 0.251953 7.99985C0.251953 4.27192 3.27403 1.24985 7.00195 1.24985C7.41617 1.24985 7.75195 1.58563 7.75195 1.99985C7.75195 2.41406 7.41617 2.74985 7.00195 2.74985C4.10246 2.74985 1.75195 5.10035 1.75195 7.99985C1.75195 10.8897 4.08687 13.2342 6.97308 13.2498C6.98137 13.2495 6.98969 13.2494 6.99805 13.2494ZM12.6221 10.2257C12.2209 10.1224 11.9794 9.71355 12.0827 9.31241C12.1905 8.89354 12.248 8.45372 12.248 7.99936C12.248 6.9033 11.913 5.88777 11.3398 5.04675C11.1065 4.70447 11.1949 4.23789 11.5371 4.00461C11.8794 3.77133 12.346 3.85969 12.5793 4.20196C13.3168 5.28411 13.748 6.59251 13.748 7.99936C13.748 8.5809 13.6743 9.14631 13.5353 9.6863C13.4321 10.0874 13.0232 10.3289 12.6221 10.2257ZM7 6.49936C6.17157 6.49936 5.5 7.17093 5.5 7.99936C5.5 8.82779 6.17157 9.49936 7 9.49936C7.82843 9.49936 8.5 8.82779 8.5 7.99936C8.5 7.17093 7.82843 6.49936 7 6.49936ZM4 7.99936C4 6.3425 5.34315 4.99936 7 4.99936C8.65685 4.99936 10 6.3425 10 7.99936C10 8.55533 9.84876 9.07598 9.58518 9.52241L12.4073 12.3445C12.7002 12.6374 12.7002 13.1123 12.4073 13.4052C12.1144 13.6981 11.6395 13.6981 11.3466 13.4052L8.5249 10.5835C8.07806 10.8477 7.55674 10.9994 7 10.9994C5.34315 10.9994 4 9.65621 4 7.99936Z" fill="#323942"/>
</svg>
