<svg width="19" height="19" viewBox="0 0 19 19" fill="none" xmlns="http://www.w3.org/2000/svg">
<path fill-rule="evenodd" clip-rule="evenodd" d="M15.7463 0.684113C15.8333 0.449046 16.1657 0.449046 16.2527 0.684113L16.8072 2.18258C16.8346 2.25648 16.8928 2.31475 16.9667 2.3421L18.4652 2.89658C18.7003 2.98356 18.7003 3.31603 18.4652 3.40302L16.9667 3.9575C16.8928 3.98484 16.8346 4.04311 16.8072 4.11702L16.2527 5.61548C16.1657 5.85055 15.8333 5.85055 15.7463 5.61548L15.1918 4.11702C15.1645 4.04311 15.1062 3.98484 15.0323 3.9575L13.5338 3.40302C13.2988 3.31603 13.2988 2.98356 13.5338 2.89658L15.0323 2.3421C15.1062 2.31475 15.1645 2.25648 15.1918 2.18258L15.7463 0.684113ZM2 9.9998C2 6.1338 5.13401 2.9998 9 2.9998C9.81994 2.9998 10.6049 3.14035 11.3334 3.39785C11.8541 3.5819 12.4255 3.30897 12.6095 2.78826C12.7936 2.26754 12.5206 1.69622 11.9999 1.51217C11.0603 1.18006 10.0501 0.999796 9 0.999796C4.02944 0.999796 0 5.02923 0 9.9998C0 14.9704 4.02944 18.9998 9 18.9998C13.9706 18.9998 18 14.9704 18 9.9998C18 8.94968 17.8197 7.9395 17.4876 6.99988C17.3036 6.47917 16.7323 6.20624 16.2115 6.39029C15.6908 6.57434 15.4179 7.14566 15.6019 7.66638C15.8594 8.39491 16 9.17986 16 9.9998C16 13.8658 12.866 16.9998 9 16.9998C5.13401 16.9998 2 13.8658 2 9.9998ZM6 6.9998C5.44772 6.9998 5 7.44751 5 7.9998V10.9998C5 11.5521 5.44772 11.9998 6 11.9998C6.55228 11.9998 7 11.5521 7 10.9998V7.9998C7 7.44751 6.55228 6.9998 6 6.9998ZM10 7.9998C10 7.44751 10.4477 6.9998 11 6.9998C11.5523 6.9998 12 7.44751 12 7.9998V10.9998C12 11.5521 11.5523 11.9998 11 11.9998C10.4477 11.9998 10 11.5521 10 10.9998V7.9998Z" fill="url(#paint0_linear_1455_1115)"/>
<defs>
<linearGradient id="paint0_linear_1455_1115" x1="-0.2151" y1="0.272727" x2="22.5598" y2="17.1455" gradientUnits="userSpaceOnUse">
<stop stop-color="#6039FF"/>
<stop offset="1" stop-color="#43BAFF"/>
</linearGradient>
</defs>
</svg>
