<svg width="16" height="16" viewBox="0 0 16 16" fill="none" xmlns="http://www.w3.org/2000/svg">
  <path fill-rule="evenodd" clip-rule="evenodd"
    d="M2.59844 7.4999C2.59844 5.06985 4.56838 3.0999 6.99844 3.0999C7.45999 3.0999 7.90385 3.17076 8.32036 3.30177C8.63647 3.4012 8.97332 3.22555 9.07275 2.90944C9.17217 2.59334 8.99652 2.25649 8.68042 2.15706C8.14875 1.98984 7.58353 1.8999 6.99844 1.8999C3.90564 1.8999 1.39844 4.40711 1.39844 7.4999C1.39844 10.5927 3.90564 13.0999 6.99844 13.0999C8.33129 13.0999 9.55538 12.6343 10.5169 11.8568C10.5346 11.8807 10.5543 11.9037 10.576 11.9253L12.5752 13.9244C12.8096 14.1587 13.1895 14.1586 13.4238 13.9243C13.6581 13.69 13.658 13.3101 13.4237 13.0758L11.4244 11.0768C11.4027 11.0551 11.3798 11.0354 11.3559 11.0177C12.133 10.0563 12.5984 8.83245 12.5984 7.4999C12.5984 7.16853 12.3298 6.8999 11.9984 6.8999C11.6671 6.8999 11.3984 7.16853 11.3984 7.4999C11.3984 9.92996 9.42849 11.8999 6.99844 11.8999C4.56838 11.8999 2.59844 9.92996 2.59844 7.4999Z"
    fill="currentColor" />
  <path
    d="M11.5949 2.2846C11.5645 2.19344 11.4355 2.19344 11.4051 2.2846L11.1581 3.02566C11.0586 3.32426 10.8243 3.55858 10.5257 3.65811L9.7846 3.90513C9.69344 3.93552 9.69344 4.06448 9.7846 4.09487L10.5257 4.34189C10.8243 4.44142 11.0586 4.67574 11.1581 4.97434L11.4051 5.71539C11.4355 5.80656 11.5645 5.80656 11.5949 5.71539L11.8419 4.97434C11.9414 4.67574 12.1757 4.44142 12.4743 4.34189L13.2154 4.09487C13.3066 4.06448 13.3066 3.93552 13.2154 3.90513L12.4743 3.65811C12.1757 3.55858 11.9414 3.32426 11.8419 3.02566L11.5949 2.2846Z"
    fill="currentColor" stroke="currentColor" stroke-width="0.6" />
</svg>