<svg width="13" height="13" viewBox="0 0 13 13" fill="none" xmlns="http://www.w3.org/2000/svg">
<path fill-rule="evenodd" clip-rule="evenodd" d="M9.93492 0.33242C10.0002 0.15612 10.2495 0.15612 10.3148 0.33242L10.8015 1.64787C10.822 1.7033 10.8657 1.747 10.9212 1.76751L12.2366 2.25427C12.4129 2.31951 12.4129 2.56886 12.2366 2.6341L10.9212 3.12086C10.8657 3.14137 10.822 3.18507 10.8015 3.2405L10.3148 4.55595C10.2495 4.73225 10.0002 4.73225 9.93492 4.55595L9.44816 3.2405C9.42765 3.18507 9.38395 3.14137 9.32852 3.12086L8.01307 2.6341C7.83677 2.56886 7.83677 2.31951 8.01307 2.25427L9.32852 1.76751C9.38395 1.747 9.42765 1.7033 9.44816 1.64787L9.93492 0.33242ZM2.25098 2.81963C2.25098 3.44095 1.7473 3.94463 1.12598 3.94463C0.504656 3.94463 0.000976562 3.44095 0.000976562 2.81963C0.000976562 2.19831 0.504656 1.69463 1.12598 1.69463C1.7473 1.69463 2.25098 2.19831 2.25098 2.81963ZM3.75195 2.78252C3.75195 2.36831 4.08774 2.03252 4.50195 2.03252H6.37695C6.79117 2.03252 7.12695 2.36831 7.12695 2.78252C7.12695 3.19673 6.79117 3.53252 6.37695 3.53252H4.50195C4.08774 3.53252 3.75195 3.19673 3.75195 2.78252ZM2.25098 6.94437C2.25098 7.56569 1.7473 8.06937 1.12598 8.06937C0.504656 8.06937 0.000976562 7.56569 0.000976562 6.94437C0.000976562 6.32305 0.504656 5.81937 1.12598 5.81937C1.7473 5.81937 2.25098 6.32305 2.25098 6.94437ZM3.75195 6.90678C3.75195 6.49256 4.08774 6.15678 4.50195 6.15678H11.252C11.6662 6.15678 12.002 6.49256 12.002 6.90678C12.002 7.32099 11.6662 7.65678 11.252 7.65678H4.50195C4.08774 7.65678 3.75195 7.32099 3.75195 6.90678ZM1.12598 12.1942C1.7473 12.1942 2.25098 11.6906 2.25098 11.0692C2.25098 10.4479 1.7473 9.94424 1.12598 9.94424C0.504656 9.94424 0.000976562 10.4479 0.000976562 11.0692C0.000976562 11.6906 0.504656 12.1942 1.12598 12.1942ZM4.50195 10.2816C4.08774 10.2816 3.75195 10.6174 3.75195 11.0316C3.75195 11.4459 4.08774 11.7816 4.50195 11.7816H11.252C11.6662 11.7816 12.002 11.4459 12.002 11.0316C12.002 10.6174 11.6662 10.2816 11.252 10.2816H4.50195Z" fill="#323942"/>
</svg>
