<svg width="15" height="13" viewBox="0 0 15 13" fill="none" xmlns="http://www.w3.org/2000/svg">
<path fill-rule="evenodd" clip-rule="evenodd" d="M12.3207 0.27578C12.386 0.0994794 12.6353 0.0994799 12.7006 0.27578L13.1164 1.39963C13.1369 1.45505 13.1806 1.49876 13.2361 1.51927L14.3599 1.93513C14.5362 2.00036 14.5362 2.24972 14.3599 2.31496L13.2361 2.73082C13.1806 2.75133 13.1369 2.79503 13.1164 2.85046L12.7006 3.97431C12.6353 4.15061 12.386 4.15061 12.3207 3.97431L11.9049 2.85046C11.8844 2.79503 11.8407 2.75133 11.7852 2.73082L10.6614 2.31496C10.4851 2.24972 10.4851 2.00036 10.6614 1.93513L11.7852 1.51927C11.8407 1.49876 11.8844 1.45505 11.9049 1.39963L12.3207 0.27578ZM2.125 1.37449C1.29657 1.37449 0.625 2.04606 0.625 2.87449V9.99949C0.625 11.6563 1.96815 12.9995 3.625 12.9995H10C11.6569 12.9995 13 11.6563 13 9.99949V6.24949C13 5.83527 12.6642 5.49949 12.25 5.49949C11.8358 5.49949 11.5 5.83527 11.5 6.24949V9.99949C11.5 10.8279 10.8284 11.4995 10 11.4995H3.625C2.79657 11.4995 2.125 10.8279 2.125 9.99949V2.87449L8.5 2.87449V9.62449C8.5 10.0387 8.83579 10.3745 9.25 10.3745C9.66421 10.3745 10 10.0387 10 9.62449V2.87449C10 2.04606 9.32843 1.37449 8.5 1.37449H2.125ZM3.99977 4.37484C3.58556 4.37484 3.24977 4.71062 3.24977 5.12484C3.24977 5.53905 3.58556 5.87484 3.99977 5.87484H6.62477C7.03898 5.87484 7.37477 5.53905 7.37477 5.12484C7.37477 4.71062 7.03898 4.37484 6.62477 4.37484H3.99977ZM3.25 7.74951C3.25 7.3353 3.58579 6.99951 4 6.99951H6.625C7.03921 6.99951 7.375 7.3353 7.375 7.74951C7.375 8.16372 7.03921 8.49951 6.625 8.49951H4C3.58579 8.49951 3.25 8.16372 3.25 7.74951Z" fill="#323942"/>
</svg>
