<svg width="16" height="16" viewBox="0 0 16 16" fill="none" xmlns="http://www.w3.org/2000/svg">
  <path fill-rule="evenodd" clip-rule="evenodd"
    d="M2.20536 3.27088C2.20536 3.16043 2.2949 3.07088 2.40536 3.07088H4.33791C4.41724 3.07088 4.46446 2.98327 4.4183 2.91875C4.32894 2.79382 4.23152 2.67196 4.1266 2.55246C4.04682 2.4616 4.08347 2.31894 4.19717 2.27779L4.84602 2.04297C4.91641 2.0175 4.99519 2.04057 5.0407 2.1C5.2424 2.36332 5.42784 2.66843 5.59764 3.01425C5.61459 3.04878 5.64959 3.07088 5.68805 3.07088H7.82371C7.93417 3.07088 8.02371 3.16043 8.02371 3.27088V3.85686C8.02371 3.96732 7.93417 4.05686 7.82371 4.05686H7.11505C7.07213 4.05686 7.03405 4.08429 7.01998 4.12483C6.75548 4.88648 6.39574 5.5455 5.93931 6.10296C5.90276 6.1476 5.91006 6.21395 5.95684 6.24773C6.53413 6.66455 7.23138 7.01999 8.04735 7.32061C8.15078 7.35872 8.192 7.48305 8.13182 7.5754L7.77341 8.12538C7.72949 8.19277 7.64465 8.22063 7.56932 8.19238C6.65299 7.84876 5.87273 7.42991 5.23156 6.93389C5.19397 6.90482 5.14121 6.90557 5.10441 6.93564C4.42363 7.49173 3.60561 7.90484 2.65846 8.17214C2.58429 8.19307 2.50527 8.16201 2.46521 8.09619L2.11916 7.52767C2.05926 7.42927 2.11137 7.30097 2.22292 7.27221C3.0716 7.05337 3.78647 6.72812 4.36785 6.29561C4.4148 6.26068 4.42014 6.19289 4.38117 6.14923C3.84781 5.55169 3.45738 4.8784 3.21121 4.1268C3.19761 4.08527 3.15905 4.05686 3.11535 4.05686H2.40536C2.2949 4.05686 2.20536 3.96732 2.20536 3.85686V3.27088ZM5.28895 5.66359L5.26326 5.69403L5.27717 5.67762L5.28895 5.66359ZM5.07978 5.47318C5.12001 5.51719 5.18968 5.51494 5.22686 5.46832C5.5255 5.09381 5.77062 4.6676 5.95975 4.19075C5.98539 4.1261 5.93713 4.05686 5.86759 4.05686H4.3305C4.25956 4.05686 4.21128 4.12864 4.23997 4.19352C4.44645 4.66049 4.72544 5.08553 5.07978 5.47318ZM9.49941 2.40049C9.16804 2.40049 8.89941 2.66912 8.89941 3.00049C8.89941 3.33186 9.16804 3.60049 9.49941 3.60049H10.9994C12.0488 3.60049 12.8994 4.45115 12.8994 5.50049V7.00049C12.8994 7.33186 13.168 7.60049 13.4994 7.60049C13.8308 7.60049 14.0994 7.33186 14.0994 7.00049V5.50049C14.0994 3.78841 12.7115 2.40049 10.9994 2.40049H9.49941ZM6.49844 14.1005C6.82981 14.1005 7.09844 13.8319 7.09844 13.5005C7.09844 13.1691 6.82981 12.9005 6.49844 12.9005H4.99844C3.9491 12.9005 3.09844 12.0498 3.09844 11.0005V10.0005C3.09844 9.66912 2.82981 9.40049 2.49844 9.40049C2.16707 9.40049 1.89844 9.66912 1.89844 10.0005V11.0005C1.89844 12.7126 3.28635 14.1005 4.99844 14.1005H6.49844ZM10.5775 8.00049C10.4958 8.00049 10.4223 8.05017 10.3919 8.12598L8.1438 13.726C8.09104 13.8574 8.1878 14.0005 8.3294 14.0005H9.15348C9.23645 14.0005 9.3108 13.9493 9.34036 13.8717L9.8246 12.6016C9.83938 12.5629 9.87655 12.5373 9.91804 12.5373H12.2262C12.2677 12.5373 12.3048 12.5629 12.3196 12.6016L12.8039 13.8717C12.8334 13.9493 12.9078 14.0005 12.9907 14.0005H13.8148C13.9564 14.0005 14.0532 13.8574 14.0004 13.726L11.7523 8.12598C11.7219 8.05017 11.6484 8.00049 11.5667 8.00049H10.5775ZM10.3565 11.589C10.2865 11.589 10.2382 11.519 10.263 11.4536L10.9822 9.55618C11.0149 9.46997 11.1369 9.47015 11.1693 9.55645L11.8822 11.4539C11.9067 11.5193 11.8584 11.589 11.7886 11.589H10.3565Z"
    fill="currentColor" />
</svg>