<svg width="16" height="16" viewBox="0 0 16 16" fill="none" xmlns="http://www.w3.org/2000/svg">
<g clip-path="url(#clip0_4041_26279)">
<g opacity="0.1" filter="url(#filter0_f_4041_26279)">
<rect x="5" y="5" width="9" height="9" rx="2" fill="url(#paint0_linear_4041_26279)"/>
</g>
<path fill-rule="evenodd" clip-rule="evenodd" d="M13.3587 1.5327C13.4213 1.36345 13.6607 1.36345 13.7233 1.5327L13.9089 2.03407C14.0182 2.32968 14.2513 2.56276 14.5469 2.67215L15.0483 2.85767C15.2176 2.9203 15.2176 3.15968 15.0483 3.22231L14.5469 3.40783C14.2513 3.51722 14.0182 3.7503 13.9089 4.04591L13.7233 4.54728C13.6607 4.71653 13.4213 4.71653 13.3587 4.54728L13.1732 4.04591C13.0638 3.7503 12.8307 3.51722 12.5351 3.40783L12.0337 3.22231C11.8645 3.15968 11.8645 2.9203 12.0337 2.85767L12.5351 2.67215C12.8307 2.56276 13.0638 2.32968 13.1732 2.03407L13.3587 1.5327ZM3.29941 4.0394C3.29941 3.63071 3.63072 3.2994 4.03941 3.2994H9.25941C9.66811 3.2994 9.99941 3.63071 9.99941 4.0394V10.6994C9.99941 11.086 10.3128 11.3994 10.6994 11.3994C11.086 11.3994 11.3994 11.086 11.3994 10.6994V4.0394C11.3994 2.85751 10.4413 1.8994 9.25941 1.8994H4.03941C2.85752 1.8994 1.89941 2.85751 1.89941 4.0394V11.2394C1.89941 12.8189 3.17988 14.0994 4.75942 14.0994H11.2394C12.8189 14.0994 14.0994 12.8189 14.0994 11.2394V7.5494C14.0994 7.1628 13.786 6.8494 13.3994 6.8494C13.0128 6.8494 12.6994 7.1628 12.6994 7.5494V11.2394C12.6994 12.0457 12.0458 12.6994 11.2394 12.6994H4.75942C3.95308 12.6994 3.29941 12.0457 3.29941 11.2394V4.0394ZM5.20883 6.89916L8.08883 6.89901C8.47543 6.89899 8.78881 6.58557 8.78879 6.19897C8.78877 5.81237 8.47535 5.49899 8.08875 5.49901L5.20875 5.49916C4.82215 5.49918 4.50877 5.8126 4.50879 6.1992C4.50881 6.5858 4.82223 6.89918 5.20883 6.89916ZM8.08883 9.41952L5.20883 9.41967C4.82223 9.41969 4.50881 9.10631 4.50879 8.71971C4.50877 8.33311 4.82215 8.01969 5.20875 8.01967L8.08875 8.01952C8.47535 8.0195 8.78877 8.33288 8.78879 8.71948C8.78881 9.10608 8.47543 9.4195 8.08883 9.41952Z" fill="url(#paint1_linear_4041_26279)"/>
</g>
<defs>
<filter id="filter0_f_4041_26279" x="4" y="4" width="11" height="11" filterUnits="userSpaceOnUse" color-interpolation-filters="sRGB">
<feFlood flood-opacity="0" result="BackgroundImageFix"/>
<feBlend mode="normal" in="SourceGraphic" in2="BackgroundImageFix" result="shape"/>
<feGaussianBlur stdDeviation="0.5" result="effect1_foregroundBlur_4041_26279"/>
</filter>
<linearGradient id="paint0_linear_4041_26279" x1="5" y1="5" x2="15.2036" y2="6.67699" gradientUnits="userSpaceOnUse">
<stop stop-color="#F56658"/>
<stop offset="1" stop-color="#F5B658"/>
</linearGradient>
<linearGradient id="paint1_linear_4041_26279" x1="1.89941" y1="1.40576" x2="16.9133" y2="3.98649" gradientUnits="userSpaceOnUse">
<stop stop-color="#F56658"/>
<stop offset="1" stop-color="#F5B658"/>
</linearGradient>
<clipPath id="clip0_4041_26279">
<rect width="16" height="16" fill="white"/>
</clipPath>
</defs>
</svg>
