<svg width="18" height="19" viewBox="0 0 18 19" fill="none" xmlns="http://www.w3.org/2000/svg">
<path fill-rule="evenodd" clip-rule="evenodd" d="M12.7469 0.684113C12.8339 0.449046 13.1664 0.449046 13.2533 0.684113L13.7673 2.07309C13.7947 2.14699 13.8529 2.20526 13.9268 2.23261L15.3158 2.74658C15.5509 2.83356 15.5509 3.16603 15.3158 3.25302L13.9268 3.76698C13.8529 3.79433 13.7947 3.8526 13.7673 3.9265L13.2533 5.31548C13.1664 5.55055 12.8339 5.55055 12.7469 5.31548L12.2329 3.9265C12.2056 3.8526 12.1473 3.79433 12.0734 3.76698L10.6844 3.25302C10.4494 3.16603 10.4494 2.83356 10.6844 2.74658L12.0734 2.23261C12.1473 2.20526 12.2056 2.14699 12.2329 2.07309L12.7469 0.684113ZM10.7508 16.7793C10.1923 16.923 9.60584 16.9998 8.99999 16.9998L8.99153 16.9998C5.12943 16.9952 2 13.863 2 9.9998C2 6.1338 5.13401 2.9998 9 2.9998C9.55229 2.9998 10 2.55208 10 1.9998C10 1.44751 9.55229 0.999796 9 0.999796C4.02944 0.999796 0 5.02923 0 9.9998C0 14.9704 4.02944 18.9998 9 18.9998L9.011 18.9998C9.78256 18.9988 10.5328 18.9006 11.2494 18.7161C11.7842 18.5785 12.1062 18.0333 11.9685 17.4984C11.8309 16.9636 11.2857 16.6416 10.7508 16.7793ZM15.7795 11.7505C15.6419 12.2853 15.9638 12.8305 16.4987 12.9682C17.0335 13.1059 17.5787 12.7839 17.7164 12.249C17.9017 11.529 18 10.7751 18 9.99976C18 8.12396 17.425 6.37943 16.4416 4.93657C16.1306 4.4802 15.5085 4.36239 15.0521 4.67343C14.5957 4.98447 14.4779 5.60658 14.789 6.06295C15.5532 7.1843 16 8.53835 16 9.99976C16 10.6056 15.9233 11.192 15.7795 11.7505ZM7.06828 10.5173C7.09517 10.6176 7.12924 10.7142 7.16978 10.8064C7.21861 10.9171 7.27732 11.0231 7.34513 11.1231C7.54675 11.4195 7.82595 11.659 8.15353 11.8123C8.25772 11.8608 8.36753 11.901 8.48237 11.9317C8.55276 11.9506 8.62329 11.9655 8.69371 11.9765C8.79361 11.9918 8.89594 11.9998 9.00014 11.9998C9.06845 11.9998 9.13597 11.9964 9.20252 11.9897C9.30735 11.9789 9.41271 11.9596 9.51777 11.9315L9.53187 11.9278L9.5431 11.9251C9.78964 11.8553 10.0204 11.7387 10.2225 11.5829C10.4422 11.413 10.6256 11.1983 10.759 10.9526C10.832 10.8177 10.8904 10.6721 10.9319 10.5175C10.9343 10.5084 10.9368 10.4994 10.9395 10.4905C10.9791 10.3335 11.0001 10.1691 11.0001 9.99979C11.0001 8.89522 10.1047 7.99979 9.00014 7.99979C8.82854 7.99979 8.66199 8.0214 8.50306 8.06205L8.48249 8.06779C8.36673 8.09881 8.25608 8.13937 8.15115 8.1884C7.8407 8.33416 7.57383 8.55738 7.37545 8.83317C7.23891 9.02359 7.1361 9.23726 7.07283 9.46414L7.06815 9.48224C7.04948 9.55194 7.03473 9.62177 7.02376 9.69148C7.00821 9.79198 7.00014 9.89494 7.00014 9.99979C7.00014 10.0869 7.00571 10.1727 7.01652 10.2569C7.02787 10.3436 7.04504 10.4305 7.06828 10.5173ZM11.0321 13.446C10.68 13.654 10.2933 13.8096 9.88269 13.9021C9.53328 13.9815 9.17026 14.0144 8.8024 13.9958C8.60816 13.9863 8.4162 13.9625 8.22787 13.9253C7.87892 13.857 7.54622 13.7434 7.23615 13.5908C6.63618 13.2969 6.1331 12.8632 5.75693 12.3416C5.45591 11.9254 5.23303 11.449 5.1098 10.9339C5.02955 10.601 4.99155 10.2552 5.00023 9.90421C5.00638 9.6415 5.03855 9.38251 5.09485 9.13053C5.21826 8.57363 5.45775 8.06039 5.78663 7.61749C6.15911 7.11433 6.65103 6.69569 7.23475 6.40945C7.7672 6.14714 8.36646 5.99979 9.00014 5.99979C11.2093 5.99979 13.0001 7.79065 13.0001 9.99979C13.0001 10.6752 12.8328 11.3114 12.5372 11.8694C12.5082 11.9245 12.4779 11.9787 12.4466 12.032L16.2072 15.7926C16.5978 16.1832 16.5978 16.8163 16.2072 17.2069C15.8167 17.5974 15.1835 17.5974 14.793 17.2069L11.0321 13.446Z" fill="url(#paint0_linear_2289_3903)"/>
<defs>
<linearGradient id="paint0_linear_2289_3903" x1="0.000122162" y1="0.999756" x2="21.7164" y2="9.45488" gradientUnits="userSpaceOnUse">
<stop stop-color="#6745FE"/>
<stop offset="1" stop-color="#F44AC4"/>
</linearGradient>
</defs>
</svg>
