<svg width="12" height="12" viewBox="0 0 12 12" fill="none" xmlns="http://www.w3.org/2000/svg">
<path fill-rule="evenodd" clip-rule="evenodd" d="M9.85748 0.741031C9.74731 0.410542 9.27985 0.410541 9.16968 0.741031L9.04323 1.1204C8.90014 1.54964 8.56332 1.88647 8.13407 2.02955L7.7547 2.15601C7.42421 2.26617 7.42421 2.73364 7.7547 2.84381L8.13407 2.97026C8.56332 3.11334 8.90014 3.45017 9.04323 3.87942L9.16968 4.25878C9.27985 4.58927 9.74731 4.58927 9.85748 4.25878L9.98393 3.87942C10.127 3.45017 10.4638 3.11334 10.8931 2.97026L11.2725 2.84381C11.6029 2.73364 11.6029 2.26617 11.2725 2.15601L10.8931 2.02955C10.4638 1.88647 10.127 1.54964 9.98393 1.1204L9.85748 0.741031ZM5.70128 2.48215C5.48096 1.82117 4.54602 1.82118 4.32569 2.48215L3.94778 3.61589C3.66162 4.47438 2.98796 5.14804 2.12947 5.4342L0.995735 5.81211C0.334753 6.03244 0.334757 6.96738 0.995735 7.1877L2.12947 7.56562C2.98796 7.85178 3.66162 8.52543 3.94778 9.38392L4.32569 10.5177C4.54602 11.1786 5.48096 11.1786 5.70128 10.5177L6.0792 9.38392C6.36536 8.52543 7.03901 7.85178 7.8975 7.56562L9.03124 7.1877C9.69222 6.96738 9.69222 6.03244 9.03124 5.81211L7.8975 5.4342C7.03901 5.14804 6.36536 4.47438 6.0792 3.61589L5.70128 2.48215Z" fill="url(#paint0_linear_4063_21546)"/>
<defs>
<linearGradient id="paint0_linear_4063_21546" x1="-1.44911" y1="0.745343" x2="12.3604" y2="11.4423" gradientUnits="userSpaceOnUse">
<stop stop-color="#7B4DFF"/>
<stop offset="1" stop-color="#33ADFF"/>
</linearGradient>
</defs>
</svg>
