<svg width="15" height="15" viewBox="0 0 15 15" fill="none" xmlns="http://www.w3.org/2000/svg">
<path fill-rule="evenodd" clip-rule="evenodd" d="M12.0648 1.01714C12.1301 0.840844 12.3794 0.840843 12.4447 1.01714L12.8605 2.14099C12.881 2.19642 12.9247 2.24012 12.9802 2.26063L14.104 2.67649C14.2803 2.74173 14.2803 2.99109 14.104 3.05632L12.9802 3.47218C12.9247 3.49269 12.881 3.5364 12.8605 3.59182L12.4447 4.71567C12.3794 4.89197 12.1301 4.89197 12.0648 4.71567L11.649 3.59182C11.6285 3.5364 11.5848 3.49269 11.5293 3.47218L10.4055 3.05632C10.2292 2.99109 10.2292 2.74173 10.4055 2.67649L11.5293 2.26063C11.5848 2.24012 11.6285 2.19642 11.649 2.14099L12.0648 1.01714ZM1.74902 7.99994C1.74902 5.10045 4.09953 2.74994 6.99902 2.74994C7.61398 2.74994 8.20269 2.85536 8.74909 3.04848C9.13963 3.18652 9.56812 2.98183 9.70615 2.59129C9.84419 2.20075 9.63949 1.77226 9.24896 1.63422C8.54424 1.38514 7.78661 1.24994 6.99902 1.24994C3.2711 1.24994 0.249023 4.27202 0.249023 7.99994C0.249023 11.7279 3.2711 14.7499 6.99902 14.7499C10.7269 14.7499 13.749 11.7279 13.749 7.99994C13.749 7.21235 13.6138 6.45472 13.3647 5.75001C13.2267 5.35947 12.7982 5.15478 12.4077 5.29281C12.0171 5.43085 11.8124 5.85934 11.9505 6.24988C12.1436 6.79628 12.249 7.38499 12.249 7.99994C12.249 10.8994 9.89852 13.2499 6.99902 13.2499C4.09953 13.2499 1.74902 10.8994 1.74902 7.99994ZM4.75 5.75098C4.33579 5.75098 4 6.08676 4 6.50098V8.75098C4 9.16519 4.33579 9.50098 4.75 9.50098C5.16421 9.50098 5.5 9.16519 5.5 8.75098V6.50098C5.5 6.08676 5.16421 5.75098 4.75 5.75098ZM7.74799 6.5008C7.74799 6.08659 8.08378 5.7508 8.49799 5.7508C8.9122 5.7508 9.24799 6.08659 9.24799 6.5008V8.7508C9.24799 9.16502 8.9122 9.5008 8.49799 9.5008C8.08378 9.5008 7.74799 9.16502 7.74799 8.7508V6.5008Z" fill="#323942"/>
</svg>
