<svg width="16" height="16" viewBox="0 0 16 16" fill="none" xmlns="http://www.w3.org/2000/svg">
  <path
    d="M2 8C2 4.68629 4.68629 2 8 2C11.3137 2 14 4.68629 14 8C14 8.78253 13.8502 9.53007 13.5777 10.2155C13.4251 10.5994 13.4698 11.0408 13.7119 11.3756C13.9136 11.6546 14.0923 11.9336 14.2664 12.2126C14.7187 12.9374 14.1801 14 13.3257 14C11.5621 14 9.90921 14 8 14C4.68629 14 2 11.3137 2 8Z"
    stroke="currentColor" stroke-width="1.2" stroke-linecap="round" stroke-linejoin="round" />
  <path fill-rule="evenodd" clip-rule="evenodd"
    d="M8.60039 5.9999C8.60039 5.66853 8.33176 5.3999 8.00039 5.3999C7.66902 5.3999 7.40039 5.66853 7.40039 5.9999V7.39752L6.00035 7.39746C5.66898 7.39744 5.40037 7.66606 5.40039 7.99743C5.40041 8.3288 5.66906 8.59744 6.00043 8.59746L7.40039 8.59752V9.9999C7.40039 10.3313 7.66902 10.5999 8.00039 10.5999C8.33176 10.5999 8.60039 10.3313 8.60039 9.9999V8.59758L10.0004 8.59765C10.3318 8.59767 10.6004 8.32905 10.6004 7.99768C10.6004 7.66631 10.3317 7.39767 10.0003 7.39765L8.60039 7.39758V5.9999Z"
    fill="currentColor" />
</svg>