<svg t="1761790307968" class="icon" viewBox="0 0 1024 1024" version="1.1"
  xmlns="http://www.w3.org/2000/svg" p-id="73359" width="20" height="20">
  <path
    d="M491.52 146.285714A146.285714 146.285714 0 0 1 512 73.142857a73.142857 73.142857 0 0 1 61.44-34.377143 210.651429 210.651429 0 0 1 66.56 10.971429c22.674286 7.314286 47.542857 17.554286 73.142857 27.794286a898.194286 898.194286 0 0 0 91.428572 33.645714 155.062857 155.062857 0 0 0 95.817142 4.388571 114.834286 114.834286 0 0 0 62.171429-83.382857l3.657143-12.434286h12.434286l24.868571 7.314286h13.165714l-3.657143 12.434286a160.182857 160.182857 0 0 1-92.891428 118.491428 209.188571 209.188571 0 0 1-131.657143 0L740.205714 146.285714l-46.811428-19.017143a342.308571 342.308571 0 0 0-117.028572-35.108571 27.794286 27.794286 0 0 0-24.137143 16.091429 103.862857 103.862857 0 0 0-8.045714 38.034285h13.897143l16.822857 86.308572H461.531429L478.354286 146.285714zM129.462857 233.325714h735.085714a122.88 122.88 0 0 1 122.148572 122.148572v526.628571a122.88 122.88 0 0 1-122.148572 122.148572h-731.428571A122.148571 122.148571 0 0 1 7.314286 882.102857v-526.628571a122.148571 122.148571 0 0 1 122.148571-122.148572z m614.4 554.422857a20.48 20.48 0 0 0-19.748571 20.48v56.32a20.48 20.48 0 0 0 19.748571 20.48h84.114286a20.48 20.48 0 0 0 19.748571-20.48v-56.32a20.48 20.48 0 0 0-19.748571-20.48z m-416.182857 0a27.794286 27.794286 0 0 0-27.062857 27.062858v43.154285a27.794286 27.794286 0 0 0 27.062857 27.062857H658.285714a27.794286 27.794286 0 0 0 27.062857-27.062857v-43.154285a27.794286 27.794286 0 0 0-27.062857-27.062858z m275.748571-404.48a20.48 20.48 0 0 0-18.285714 20.48v57.051429a19.748571 19.748571 0 0 0 19.748572 19.748571H687.542857a19.748571 19.748571 0 0 0 19.748572-19.748571v-57.051429a20.48 20.48 0 0 0-19.748572-20.48zM438.857143 383.268571a20.48 20.48 0 0 0-19.748572 20.48v57.051429a19.748571 19.748571 0 0 0 19.748572 19.748571h85.577143a19.748571 19.748571 0 0 0 19.748571-19.748571v-57.051429a20.48 20.48 0 0 0-19.748571-20.48z m-269.165714 0a20.48 20.48 0 0 0-19.748572 20.48v57.051429a19.748571 19.748571 0 0 0 19.748572 19.748571h204.068571a19.748571 19.748571 0 0 0 19.748571-19.748571v-57.051429a20.48 20.48 0 0 0-19.748571-20.48zM473.234286 519.314286a20.48 20.48 0 0 0-19.748572 20.48v56.32a20.48 20.48 0 0 0 19.748572 20.48h84.114285a20.48 20.48 0 0 0 19.748572-20.48v-56.32a20.48 20.48 0 0 0-19.748572-20.48z m-155.062857 0a21.211429 21.211429 0 0 0-20.48 20.48v56.32a21.211429 21.211429 0 0 0 20.48 20.48H402.285714a20.48 20.48 0 0 0 19.748572-20.48v-56.32a20.48 20.48 0 0 0-19.748572-20.48z m-151.405715 0a20.48 20.48 0 0 0-20.48 20.48v56.32a20.48 20.48 0 0 0 19.748572 20.48h84.845714a20.48 20.48 0 0 0 19.748571-20.48v-56.32a20.48 20.48 0 0 0-19.748571-20.48zM585.142857 649.508571a19.748571 19.748571 0 0 0-19.748571 19.748572v57.051428a19.748571 19.748571 0 0 0 19.748571 19.748572h86.308572a19.748571 19.748571 0 0 0 19.748571-19.748572v-57.051428a19.748571 19.748571 0 0 0-19.748571-19.748572z m-156.525714 0a19.748571 19.748571 0 0 0-19.748572 19.748572v57.051428a19.748571 19.748571 0 0 0 19.748572 19.748572H512a19.748571 19.748571 0 0 0 19.748571-19.748572v-57.051428A19.748571 19.748571 0 0 0 512 649.508571z m-265.508572 0a19.748571 19.748571 0 0 0-16.822857 19.748572v57.051428a19.748571 19.748571 0 0 0 19.748572 19.748572h193.097143a19.748571 19.748571 0 0 0 19.748571-19.748572v-57.051428a19.748571 19.748571 0 0 0-19.748571-19.748572z m0 138.24a20.48 20.48 0 0 0-19.748571 20.48v56.32a20.48 20.48 0 0 0 19.748571 20.48h86.308572a20.48 20.48 0 0 0 19.748571-20.48v-56.32a20.48 20.48 0 0 0-19.748571-20.48zM642.925714 519.314286a20.48 20.48 0 0 0-19.748571 20.48v56.32a20.48 20.48 0 0 0 19.748571 20.48h201.142857V400.822857a20.48 20.48 0 0 0-20.48-19.748571h-56.32a20.48 20.48 0 0 0-20.48 19.748571V519.314286z m101.668572 130.194285a19.748571 19.748571 0 0 0-19.748572 19.748572v57.051428a19.748571 19.748571 0 0 0 19.748572 19.748572h84.114285a20.48 20.48 0 0 0 20.48-19.748572v-57.051428a20.48 20.48 0 0 0-20.48-19.748572z"
    fill="currentColor" p-id="73360"></path>
</svg>