<svg width="20" height="20" viewBox="0 0 20 20" fill="none" xmlns="http://www.w3.org/2000/svg">
<path fill-rule="evenodd" clip-rule="evenodd" d="M16.7468 1.68421C16.8338 1.44914 17.1662 1.44914 17.2532 1.68421L17.5709 2.54276C17.7228 2.95334 18.0466 3.27705 18.4571 3.42898L19.3157 3.74667C19.5508 3.83365 19.5508 4.16613 19.3157 4.25311L18.4571 4.5708C18.0466 4.72273 17.7228 5.04645 17.5709 5.45703L17.2532 6.31557C17.1662 6.55064 16.8338 6.55064 16.7468 6.31557L16.4291 5.45703C16.2772 5.04645 15.9534 4.72273 15.5429 4.5708L14.6843 4.25311C14.4493 4.16613 14.4493 3.83365 14.6843 3.74667L15.5429 3.42898C15.9534 3.27705 16.2772 2.95334 16.4291 2.54276L16.7468 1.68421ZM2.99989 3.99995C2.99989 4.55223 2.55218 4.99995 1.99989 4.99995C1.44761 4.99995 0.999891 4.55223 0.999891 3.99995C0.999891 3.44766 1.44761 2.99995 1.99989 2.99995C2.55218 2.99995 2.99989 3.44766 2.99989 3.99995ZM4.24989 3.99978C4.24989 3.58557 4.58568 3.24978 4.99989 3.24978H12.4999C12.9141 3.24978 13.2499 3.58557 13.2499 3.99978C13.2499 4.414 12.9141 4.74978 12.4999 4.74978H4.99989C4.58568 4.74978 4.24989 4.414 4.24989 3.99978ZM2.99989 9.99957C2.99989 10.5519 2.55218 10.9996 1.99989 10.9996C1.44761 10.9996 0.999891 10.5519 0.999891 9.99957C0.999891 9.44728 1.44761 8.99957 1.99989 8.99957C2.55218 8.99957 2.99989 9.44728 2.99989 9.99957ZM4.24989 9.99978C4.24989 9.58557 4.58568 9.24978 4.99989 9.24978H17.9999C18.4141 9.24978 18.7499 9.58557 18.7499 9.99978C18.7499 10.414 18.4141 10.7498 17.9999 10.7498H4.99989C4.58568 10.7498 4.24989 10.414 4.24989 9.99978ZM1.99989 17C2.55218 17 2.99989 16.5523 2.99989 16C2.99989 15.4477 2.55218 15 1.99989 15C1.44761 15 0.999891 15.4477 0.999891 16C0.999891 16.5523 1.44761 17 1.99989 17ZM4.99989 15.2499C4.58568 15.2499 4.24989 15.5857 4.24989 15.9999C4.24989 16.4141 4.58568 16.7499 4.99989 16.7499H17.9999C18.4141 16.7499 18.7499 16.4141 18.7499 15.9999C18.7499 15.5857 18.4141 15.2499 17.9999 15.2499H4.99989Z" fill="url(#paint0_linear_4335_28550)"/>
<defs>
<linearGradient id="paint0_linear_4335_28550" x1="1" y1="2.9694" x2="15.9098" y2="19.868" gradientUnits="userSpaceOnUse">
<stop stop-color="#1A66FF"/>
<stop offset="1" stop-color="#0FF1CB"/>
</linearGradient>
</defs>
</svg>
