<svg t="1761792980155" class="icon" viewBox="0 0 1024 1024" version="1.1"
  xmlns="http://www.w3.org/2000/svg" p-id="91165" width="20" height="20">
  <path
    d="M1024 320v576a64 64 0 0 1-64 64H64a64 64 0 0 1-64-64V320h1024zM438.656 392.512a32 32 0 0 0-49.856 22.4l-36.544 288.64-0.256 5.248 0.576 5.12c4.096 21.12 29.184 33.344 48.96 20.416l82.624-54.272 41.408 90.56 2.88 5.056a32 32 0 0 0 55.296-31.68l-36.224-79.168H640l5.568-0.384a32 32 0 0 0 16.768-54.464L442.88 396.032zM960 64a64 64 0 0 1 64 64v128H0V128a64 64 0 0 1 64-64h896zM160 128H128a32 32 0 0 0-5.76 63.488L128 192h32a32 32 0 0 0 0-64z m128 0H256a32 32 0 0 0-5.76 63.488L256 192h32a32 32 0 0 0 0-64z m128 0H384a32 32 0 0 0-5.76 63.488L384 192h32a32 32 0 0 0 0-64z"
    fill="currentColor" p-id="91166"></path>
</svg>