<svg width="74" height="20" viewBox="0 0 74 20" fill="none" xmlns="http://www.w3.org/2000/svg">
<path d="M0.08 16L4.65333 5.2H6.97333L11.4933 16H9.17333L8.06667 13.36H3.45333L2.32 16H0.08ZM4.16 11.4667H7.45333L5.84 7.57333H5.77333L4.16 11.4667ZM15.8448 16.1467C14.7337 16.1467 13.8803 15.8533 13.2848 15.2667C12.6892 14.68 12.3915 13.88 12.3915 12.8667V8H14.6048V12.44C14.6048 13.0178 14.7515 13.4533 15.0448 13.7467C15.347 14.0311 15.7959 14.1733 16.3915 14.1733C17.0048 14.1733 17.4759 14.0178 17.8048 13.7067C18.1426 13.3956 18.3115 12.9511 18.3115 12.3733V8H20.5248V13.8133H21.6181V16H19.3781V14.6933H18.8181C18.4981 15.1644 18.107 15.5244 17.6448 15.7733C17.1915 16.0222 16.5915 16.1467 15.8448 16.1467ZM25.3977 16C24.8288 16 24.3844 15.8578 24.0644 15.5733C23.7533 15.28 23.5977 14.8356 23.5977 14.24V9.73333H22.2244V8H23.6244V5.6H25.7844V8H27.6377V9.73333H25.811V14.2667H27.8244V16H25.3977ZM32.8873 16.16C32.0162 16.16 31.2562 15.9911 30.6073 15.6533C29.9673 15.3067 29.4695 14.8222 29.114 14.2C28.7584 13.5778 28.5806 12.84 28.5806 11.9867C28.5806 11.1422 28.754 10.4089 29.1006 9.78667C29.4562 9.16444 29.9584 8.68444 30.6073 8.34667C31.2562 8.00889 32.0206 7.84 32.9006 7.84C33.7717 7.84 34.5273 8.00889 35.1673 8.34667C35.8073 8.68444 36.3006 9.16444 36.6473 9.78667C36.994 10.4089 37.1673 11.1467 37.1673 12C37.1673 12.8444 36.994 13.5822 36.6473 14.2133C36.3006 14.8356 35.8028 15.3156 35.154 15.6533C34.514 15.9911 33.7584 16.16 32.8873 16.16ZM32.8873 14.24C33.554 14.24 34.0651 14.04 34.4206 13.64C34.7762 13.2311 34.954 12.68 34.954 11.9867C34.954 11.2933 34.7762 10.7511 34.4206 10.36C34.0651 9.96 33.554 9.76 32.8873 9.76C32.2117 9.76 31.6917 9.96 31.3273 10.36C30.9717 10.7511 30.794 11.2933 30.794 11.9867C30.794 12.68 30.9717 13.2311 31.3273 13.64C31.6917 14.04 32.2117 14.24 32.8873 14.24ZM43.5294 16.16C42.4805 16.16 41.556 15.9289 40.756 15.4667C39.9649 14.9956 39.3427 14.3422 38.8894 13.5067C38.4449 12.6711 38.2227 11.7067 38.2227 10.6133C38.2227 9.49333 38.4538 8.51556 38.916 7.68C39.3783 6.84444 40.0272 6.19556 40.8627 5.73333C41.6983 5.27111 42.6716 5.04 43.7827 5.04C44.6805 5.04 45.4716 5.19556 46.156 5.50667C46.8405 5.80889 47.4005 6.24444 47.836 6.81333C48.2805 7.38222 48.5605 8.06222 48.676 8.85333H46.316C46.2183 8.27556 45.9472 7.83111 45.5027 7.52C45.0583 7.2 44.4849 7.04 43.7827 7.04C43.116 7.04 42.5338 7.18667 42.036 7.48C41.5472 7.76444 41.1649 8.17778 40.8894 8.72C40.6227 9.26222 40.4894 9.89778 40.4894 10.6267C40.4894 11.3733 40.6272 12.0222 40.9027 12.5733C41.1783 13.1156 41.5649 13.5378 42.0627 13.84C42.5605 14.1333 43.1472 14.28 43.8227 14.28C44.3205 14.28 44.7694 14.2 45.1694 14.04C45.5694 13.88 45.8849 13.6578 46.116 13.3733C46.3472 13.0889 46.4627 12.7689 46.4627 12.4133V12H43.6227V10.2533H47.0094C47.5605 10.2533 47.9738 10.3867 48.2494 10.6533C48.5338 10.92 48.676 11.3156 48.676 11.84V16H46.596V14.7467H46.5294C46.2805 15.2089 45.8983 15.56 45.3827 15.8C44.8672 16.04 44.2494 16.16 43.5294 16.16ZM50.6646 16V5.2H52.9179V14.0267H58.4779V16H50.6646ZM59.9146 16V5.2H62.9946L66.1946 12.8133H66.2479L69.4346 5.2H72.5013V16H70.2479V8.37333H70.1946L67.1013 16H65.1679L62.0879 8.37333H62.0346V16H59.9146Z" fill="#1F1F1F"/>
</svg>
