<svg width="28" height="28" viewBox="0 0 28 28" fill="none" xmlns="http://www.w3.org/2000/svg">
<path d="M0 14C0 6.26801 6.26801 0 14 0C21.732 0 28 6.26801 28 14C28 21.732 21.732 28 14 28C6.26801 28 0 21.732 0 14Z" fill="#FC5D1E"/>
<path d="M24.1063 11.0726C24.2482 11.0861 24.378 11.161 24.4606 11.2772C24.5551 11.4106 24.5495 11.6453 24.5377 12.1144L24.4699 14.7963C24.4543 15.4183 24.4463 15.7298 24.3217 15.8654C24.2138 15.9828 24.0558 16.0402 23.8977 16.0198C23.7151 15.9961 23.5091 15.7631 23.0971 15.2971L23.0631 15.2583L22.6442 15.9839C22.3723 16.4549 21.77 16.6169 21.299 16.3451C20.828 16.0731 20.6664 15.4701 20.9384 14.9991L21.3573 14.2734L21.3067 14.2634C20.6971 14.1396 20.3923 14.0777 20.2805 13.9314C20.1838 13.8047 20.1545 13.6391 20.2022 13.487C20.2574 13.3113 20.5232 13.1487 21.054 12.8241L23.3427 11.4245C23.7431 11.1797 23.9435 11.0575 24.1063 11.0726Z" fill="#FFF0DA"/>
<mask id="mask0_812_323" style="mask-type:alpha" maskUnits="userSpaceOnUse" x="4" y="7" width="17" height="14">
<path d="M19.6097 17.288C19.9227 17.288 20.1935 17.4084 20.4222 17.6491C20.663 17.8899 20.7833 18.1547 20.7833 18.4436C20.7833 18.7565 20.6389 19.0514 20.35 19.3283C20.0731 19.5931 19.706 19.8038 19.2486 19.9602C18.8032 20.1167 18.3458 20.195 17.8764 20.195C16.4079 20.195 15.3426 19.3584 14.6806 17.6852C13.1639 19.5149 11.4727 20.4297 9.60695 20.4297C8.65602 20.4297 7.81343 20.201 7.07917 19.7436C6.34491 19.2862 5.77315 18.6482 5.36389 17.8297C4.95463 17.0112 4.75 16.0663 4.75 14.995C4.75 13.7552 5.01481 12.5514 5.54444 11.3839C6.08611 10.2163 6.84444 9.26534 7.81944 8.53108C8.80648 7.79682 9.92593 7.42969 11.1778 7.42969C12.4417 7.42969 13.4588 7.79682 14.2292 8.53108C14.9995 9.26534 15.5532 10.2163 15.8903 11.3839L17.1361 9.14497C17.2324 8.96441 17.3708 8.81996 17.5514 8.71163C17.744 8.59126 17.9486 8.53108 18.1653 8.53108C18.4903 8.53108 18.7671 8.64543 18.9958 8.87413C19.2245 9.10284 19.3389 9.37367 19.3389 9.68663C19.3389 9.89126 19.2667 10.138 19.1222 10.4269C17.9065 12.6177 17.0037 14.1945 16.4139 15.1575C16.6907 16.951 17.2144 17.8477 17.9847 17.8477C18.1292 17.8477 18.2556 17.8237 18.3639 17.7755C18.4722 17.7274 18.6167 17.6551 18.7972 17.5589C18.9176 17.4866 19.05 17.4264 19.1944 17.3783C19.3389 17.3181 19.4773 17.288 19.6097 17.288ZM7.09722 14.995C7.09722 15.97 7.31991 16.7283 7.76528 17.27C8.21065 17.8116 8.82454 18.0825 9.60695 18.0825C10.3051 18.0825 10.9431 17.8778 11.5208 17.4686C12.0986 17.0593 12.6463 16.5056 13.1639 15.8075C13.4167 15.4584 13.6875 15.0612 13.9764 14.6158L13.8861 13.5505C13.8019 12.395 13.5431 11.4802 13.1097 10.8061C12.6764 10.12 12.0204 9.77691 11.1417 9.77691C10.3954 9.77691 9.70926 10.0237 9.08333 10.5172C8.46944 11.0107 7.98194 11.6607 7.62083 12.4672C7.27176 13.2737 7.09722 14.1163 7.09722 14.995Z" fill="#FFF0DA"/>
</mask>
<g mask="url(#mask0_812_323)">
<rect x="4.67969" y="5.91992" width="16.9313" height="16.9313" fill="#FFF0DA"/>
<path d="M14.6484 17.7156C15.3313 16.8361 15.7251 16.277 16.4224 15.1387L18.3398 17.7156L16.4224 21.7156L14.6484 17.7156Z" fill="url(#paint0_linear_812_323)"/>
<path d="M11.6699 10.8292L13.959 14.6426C14.7749 13.3319 15.2108 12.611 15.8979 11.3681L14.6285 6.40033L11.6699 10.8292Z" fill="url(#paint1_linear_812_323)"/>
</g>
<path d="M0 14C0 6.26801 6.26801 0 14 0C21.732 0 28 6.26801 28 14C28 21.732 21.732 28 14 28C6.26801 28 0 21.732 0 14Z" fill="#FC5D1E"/>
<path d="M23.808 11.1126C23.9514 11.1263 24.082 11.2016 24.1655 11.319C24.2613 11.4537 24.2552 11.6911 24.2432 12.1654L24.1755 14.8759C24.1597 15.504 24.1513 15.8182 24.0257 15.9554C23.9166 16.0742 23.7562 16.1332 23.5963 16.1124C23.4118 16.0885 23.2037 15.8524 22.7872 15.3814L22.7531 15.3424L22.3297 16.0758C22.0548 16.5515 21.4464 16.7147 20.9706 16.44C20.4949 16.1652 20.332 15.5567 20.6065 15.0809L21.0299 14.3475L20.9791 14.3374C20.363 14.2123 20.0544 14.1501 19.9414 14.0023C19.8435 13.8742 19.8144 13.7058 19.8627 13.5519C19.9187 13.3745 20.1866 13.2102 20.7227 12.8824L23.0362 11.4685C23.441 11.221 23.6435 11.097 23.808 11.1126Z" fill="#FFF0DA"/>
<path d="M10.7446 7.43359C12.0216 7.4336 13.0493 7.80454 13.8277 8.54642C14.606 9.2883 15.1655 10.2491 15.506 11.4288L16.7648 9.16673C16.8621 8.98429 17.002 8.83825 17.1844 8.72879C17.379 8.60719 17.5858 8.54642 17.8047 8.54642C18.1331 8.54644 18.4128 8.66196 18.6439 8.89301C18.8749 9.12409 18.9905 9.39777 18.9905 9.71399C18.9905 9.92074 18.9174 10.17 18.7715 10.4619C17.5431 12.6754 16.631 14.2687 16.035 15.2417C16.3147 17.0538 16.8439 17.9598 17.6222 17.9599C17.7682 17.9599 17.896 17.9356 18.0054 17.887C18.1149 17.8383 18.2608 17.7653 18.4432 17.668C18.5648 17.595 18.6986 17.5343 18.8445 17.4856C18.9905 17.4248 19.1304 17.3943 19.2642 17.3943C19.5804 17.3943 19.8541 17.516 20.0851 17.7592C20.3284 18.0024 20.4499 18.27 20.4499 18.5619C20.4499 18.8781 20.304 19.1761 20.0121 19.4559C19.7324 19.7234 19.3614 19.9362 18.8993 20.0943C18.4493 20.2524 17.9871 20.3314 17.5127 20.3314C16.029 20.3314 14.9526 19.4863 14.2837 17.7958C12.7513 19.6444 11.0425 20.5687 9.15738 20.5687C8.1966 20.5687 7.34532 20.3375 6.60344 19.8754C5.86157 19.4132 5.28382 18.7687 4.87031 17.9417C4.45679 17.1147 4.25 16.1599 4.25 15.0775C4.25 13.8248 4.51754 12.6085 5.05267 11.4288C5.59997 10.2491 6.36624 9.28831 7.35137 8.54642C8.34866 7.80454 9.47974 7.43359 10.7446 7.43359ZM10.7081 9.80517C9.95413 9.80517 9.26083 10.0545 8.62842 10.5531C8.00816 11.0517 7.51556 11.7086 7.1507 12.5235C6.79802 13.3383 6.62158 14.1896 6.62158 15.0775C6.62158 16.0626 6.84663 16.8289 7.29663 17.3761C7.74662 17.9234 8.36687 18.1971 9.15738 18.1971C9.86278 18.1971 10.5074 17.9903 11.0912 17.5768C11.675 17.1633 12.2283 16.6038 12.7513 15.8984C13.0067 15.5457 13.2804 15.1444 13.5722 14.6944L13.4811 13.618C13.3959 12.4505 13.1344 11.5262 12.6965 10.8451C12.2587 10.1519 11.5959 9.80519 10.7081 9.80517Z" fill="#FFF0DA"/>
<path d="M16.0447 15.2244C16.0413 15.23 16.038 15.2357 16.0346 15.2413C16.3144 17.0534 16.8435 17.9594 17.6218 17.9595C17.7398 17.9595 17.8458 17.9432 17.9399 17.9114L16.813 20.2622C15.6855 20.0298 14.8422 19.2077 14.2834 17.7954C14.2734 17.8075 14.2629 17.8192 14.2529 17.8312L14.251 17.8265C14.9409 16.9379 15.3388 16.3728 16.0434 15.2227L16.0447 15.2244Z" fill="url(#paint2_linear_812_323)"/>
<path d="M13.5546 14.7213L13.5542 14.7207C13.5586 14.7138 13.5633 14.707 13.5678 14.7001C13.5634 14.7071 13.559 14.7142 13.5546 14.7213ZM13.1408 8.02539C13.3879 8.17179 13.6168 8.34508 13.8274 8.54577C14.6056 9.28751 15.1649 10.2481 15.5055 11.4275C14.8207 12.6655 14.3819 13.3918 13.5718 14.6934L13.4808 13.6174C13.3957 12.4498 13.1341 11.5255 12.6963 10.8445C12.4623 10.4741 12.1642 10.2026 11.8018 10.0301L13.1408 8.02539Z" fill="url(#paint3_linear_812_323)"/>
<defs>
<linearGradient id="paint0_linear_812_323" x1="15.5288" y1="16.6376" x2="17.4937" y2="18.6129" gradientUnits="userSpaceOnUse">
<stop stop-color="#EDD2AB"/>
<stop offset="1" stop-color="#FFF0DA"/>
</linearGradient>
<linearGradient id="paint1_linear_812_323" x1="15.5793" y1="12.9349" x2="12.5055" y2="11.0292" gradientUnits="userSpaceOnUse">
<stop stop-color="#EDD6B4"/>
<stop offset="1" stop-color="#FFF0DA"/>
</linearGradient>
<linearGradient id="paint2_linear_812_323" x1="15.1405" y1="16.7372" x2="17.1258" y2="18.733" gradientUnits="userSpaceOnUse">
<stop stop-color="#EDD2AB"/>
<stop offset="1" stop-color="#FFF0DA"/>
</linearGradient>
<linearGradient id="paint3_linear_812_323" x1="15.1918" y1="12.9959" x2="12.0861" y2="11.0703" gradientUnits="userSpaceOnUse">
<stop stop-color="#EDD6B4"/>
<stop offset="1" stop-color="#FFF0DA"/>
</linearGradient>
</defs>
</svg>
