<svg xmlns="http://www.w3.org/2000/svg" width="1em" height="1em" fill="none" viewBox="0 0 32 32">
  <path fill="url(#icon_filetype_colorful_pdf_svg__a)" fill-rule="evenodd"
    d="M7.283 6.42C7 6.976 7 7.704 7 9.16v13.68c0 1.456 0 2.184.283 2.74a2.6 2.6 0 0 0 1.137 1.137C8.976 27 9.704 27 11.16 27h9.68c1.456 0 2.184 0 2.74-.283a2.6 2.6 0 0 0 1.137-1.137c.283-.556.283-1.284.283-2.74V11l-6-6h-7.84c-1.456 0-2.184 0-2.74.283A2.6 2.6 0 0 0 7.283 6.42"
    clip-rule="evenodd"></path>
  <path fill="#fff" fill-opacity="0.55"
    d="m19 5 6 6h-1.84c-1.456 0-2.184 0-2.74-.283a2.6 2.6 0 0 1-1.137-1.137C19 9.024 19 8.296 19 6.84z"></path>
  <path fill="#5A150F"
    d="M20.115 19.97a3.8 3.8 0 0 1-2.2-.891 21.3 21.3 0 0 0-3.538 1.13c-.921 1.635-1.783 2.467-2.527 2.467-.148 0-.327-.03-.446-.119a.88.88 0 0 1-.505-.802c0-.268.06-1.011 2.884-2.23a21 21 0 0 0 1.575-3.687c-.356-.713-1.13-2.467-.594-3.36.178-.326.535-.505.921-.475.298 0 .595.149.773.387.387.535.357 1.665-.148 3.33a9 9 0 0 0 1.843 2.378c.624-.12 1.249-.208 1.873-.208 1.397.03 1.605.683 1.576 1.07 0 1.01-.982 1.01-1.487 1.01m-8.324 1.844.089-.03c.416-.148.743-.446.981-.832a2.35 2.35 0 0 0-1.07.862m3.954-8.919h-.09c-.029 0-.088 0-.118.03-.12.505-.03 1.04.178 1.516.178-.505.178-1.04.03-1.546m.208 4.31-.03.06-.03-.03a25 25 0 0 1-.891 2.022l.06-.03v.06a17 17 0 0 1 2.02-.595l-.029-.03h.09a9 9 0 0 1-1.19-1.456m4.043 1.577c-.267 0-.505 0-.773.059.297.149.595.208.892.238.208.03.416 0 .595-.06 0-.089-.12-.237-.714-.237"></path>
  <defs>
    <linearGradient id="icon_filetype_colorful_pdf_svg__a" x1="25" x2="3.556" y1="27" y2="22.867"
      gradientUnits="userSpaceOnUse">
      <stop stop-color="#EE5872"></stop>
      <stop offset="1" stop-color="#FF7033"></stop>
    </linearGradient>
  </defs>
</svg>