<svg width="16" height="16" viewBox="0 0 16 16" fill="none" xmlns="http://www.w3.org/2000/svg">
  <path fill-rule="evenodd" clip-rule="evenodd"
    d="M3.23416 3.78387C3.69126 3.56579 4.44054 3.28838 5.26758 3.28838C6.1373 3.28838 6.90523 3.59525 7.33877 3.8143C7.35959 3.82482 7.40039 3.86188 7.40039 3.94966V12.5254C6.85642 12.3049 6.10855 12.0882 5.26758 12.0882C4.41081 12.0882 3.64628 12.313 3.10231 12.5317C3.10801 12.5294 3.1097 12.5306 3.10501 12.5301L3.10039 12.5293V4.04124C3.10039 3.8983 3.16926 3.81484 3.23416 3.78387ZM8.03902 14.0001C7.87571 14.0345 7.69911 14.0132 7.54216 13.9233C7.20184 13.7285 6.30978 13.2882 5.26758 13.2882C4.61358 13.2882 4.00603 13.4617 3.54993 13.6451C3.17039 13.7977 2.76666 13.7328 2.46453 13.5501C2.15916 13.3654 1.90039 13.0222 1.90039 12.5759V4.04124C1.90039 3.50891 2.17289 2.96063 2.71744 2.70082C3.25678 2.4435 4.19097 2.08838 5.26758 2.08838C6.40065 2.08838 7.36211 2.48162 7.87994 2.74326C7.91471 2.76083 7.94822 2.77969 7.98047 2.79973C8.00404 2.78438 8.02837 2.76967 8.05347 2.75563C8.37249 2.57717 8.86777 2.34834 9.49932 2.21028C9.82305 2.13951 10.1428 2.34457 10.2136 2.6683C10.2844 2.99202 10.0793 3.31183 9.7556 3.38259C9.2646 3.48993 8.8804 3.66804 8.63931 3.80291C8.63389 3.80594 8.62656 3.8114 8.6185 3.82659C8.60949 3.84356 8.60039 3.87224 8.60039 3.91105V3.94966V12.4972C9.11073 12.2855 9.80181 12.0879 10.6055 12.0879C11.4982 12.0879 12.3247 12.3322 12.9004 12.557V7.13567C12.9004 6.8043 13.169 6.53567 13.5004 6.53567C13.8318 6.53567 14.1004 6.8043 14.1004 7.13567V12.6222C14.1004 13.4902 13.1867 13.9601 12.4874 13.684C11.9848 13.4856 11.3039 13.2879 10.6055 13.2879C9.59118 13.2879 8.7941 13.7061 8.48243 13.8992C8.34445 13.9846 8.18859 14.0154 8.03902 14.0001Z"
    fill="currentColor" />
  <path
    d="M13.5949 1.2846C13.5645 1.19344 13.4355 1.19344 13.4051 1.2846L13.1581 2.02566C13.0586 2.32426 12.8243 2.55858 12.5257 2.65811L11.7846 2.90513C11.6934 2.93552 11.6934 3.06448 11.7846 3.09487L12.5257 3.34189C12.8243 3.44142 13.0586 3.67574 13.1581 3.97434L13.4051 4.71539C13.4355 4.80656 13.5645 4.80656 13.5949 4.71539L13.8419 3.97434C13.9414 3.67574 14.1757 3.44142 14.4743 3.34189L15.2154 3.09487C15.3066 3.06448 15.3066 2.93552 15.2154 2.90513L14.4743 2.65811C14.1757 2.55858 13.9414 2.32426 13.8419 2.02566L13.5949 1.2846Z"
    fill="currentColor" stroke="currentColor" stroke-width="0.4" />
</svg>