<svg t="1761202864135" class="icon" viewBox="0 0 1141 1024" version="1.1"
  xmlns="http://www.w3.org/2000/svg" p-id="10038" width="20" height="20">
  <path
    d="M650.737371 962.442971l-0.965485-0.643657c-1.287314-0.906971-3.2768-1.901714-5.002972-2.808685l-0.672914-0.438858c-0.906971-0.555886-1.960229-1.082514-2.779429-1.667657l-4.564114-2.691657-0.497371-0.234057-229.814857-143.535543a122.119314 122.119314 0 0 1-53.979429-74.283886 119.1936 119.1936 0 0 1 12.112457-90.112 113.283657 113.283657 0 0 1 100.439772-56.056685L304.508343 245.818514c-28.116114-59.743086-5.763657-129.609143 49.649371-155.413943 55.354514-25.8048 123.2896 1.930971 151.230172 61.820343l51.551085 110.592a88.941714 88.941714 0 0 1 23.3472-15.886628c26.185143-12.229486 56.846629-11.117714 84.465372 2.486857 9.450057-15.447771 23.025371-27.794286 39.204571-35.576686a92.16 92.16 0 0 1 60.2112-5.851428c15.7696 3.657143 30.895543 10.825143 44.2368 21.0944 6.933943-6.407314 14.774857-11.761371 23.259429-15.740343 51.6096-24.049371 116.267886 5.207771 144.208457 65.1264l134.875429 289.236114c29.842286 63.985371 34.523429 147.924114 11.995428 213.869714-12.551314 36.746971-32.299886 63.049143-55.793371 74.020572L781.165714 988.832914c-53.540571 24.9856-96.138971-3.510857-130.4576-26.389943z m397.136458-163.0208c8.660114-4.066743 23.434971-28.584229 29.666742-70.509714 6.524343-45.143771 0.2048-92.628114-17.261714-130.077257l-138.766628-297.545143c-11.322514-24.312686-36.191086-38.443886-53.277258-30.456686a25.161143 25.161143 0 0 0-9.508571 7.811658l48.508343 104.067657-0.117029 0.058514c6.904686 17.993143-0.760686 38.034286-17.6128 46.021486-16.939886 7.899429-37.4784 0.702171-46.665143-16.062172l-0.058514 0.029257-42.101028-90.258285-13.750858-24.458972c-12.170971-21.796571-35.2256-33.499429-51.375542-25.951085-7.138743 3.306057-12.668343 10.708114-15.36 20.041142l52.458057 112.552229c8.543086 18.432 1.053257 40.053029-16.735086 48.362057-17.788343 8.221257-39.146057 0.058514-47.776914-18.285714l-46.138515-99.006172-7.840914-10.4448c-12.960914-17.378743-33.060571-25.629257-46.665143-19.309714-9.274514 4.330057-15.506286 15.213714-16.7936 28.8768l51.024457 112.084114 19.602286 41.984c7.606857 16.296229 0.877714 35.693714-14.862628 43.037258l-6.992458 3.2768c-15.798857 7.3728-34.903771 0-42.510628-16.296229l-156.233143-335.082057-5.675886-11.702857c-11.702857-25.073371-38.765714-37.156571-60.533028-27.0336-21.767314 10.152229-29.871543 38.736457-18.2272 63.751314l153.248914 324.929829c0.555886 0.965486 1.053257 1.960229 1.521371 2.954971l60.240458 129.199543c7.489829 16.735086 1.960229 36.2496-12.990172 45.816686a35.693714 35.693714 0 0 1-46.577371-7.7824l-29.140115-30.895543a48.362057 48.362057 0 0 0-36.981028-6.290286 47.104 47.104 0 0 0-29.842286 22.235429c-13.575314 23.376457-5.763657 54.0672 17.437257 68.608l236.7488 147.631542 0.731429 0.380343 2.925714 1.8432 3.627886 2.2528c2.282057 1.462857 4.622629 2.8672 6.612114 3.861943l1.4336 0.731429 1.345829 1.170285c38.034286 25.453714 49.883429 29.257143 66.179657 21.650286L1047.990857 799.597714l-0.117028-0.234057v0.058514z"
    fill="currentColor" p-id="10039"></path>
  <path
    d="M157.930057 681.545143l79.520914-22.791314a5.851429 5.851429 0 0 1 6.729143 8.484571l-75.424914 136.045714a5.851429 5.851429 0 0 1-7.957943 2.282057l-136.045714-75.424914a5.851429 5.851429 0 0 1 1.199543-10.737371l75.424914-21.650286A1121.543314 1121.543314 0 0 1 29.169371 166.619429c4.681143-44.295314 11.819886-87.712914 21.357715-130.135772 1.696914-16.091429 18.519771-27.501714 33.294628-25.921828 14.774857 1.550629 29.052343 15.506286 25.453715 32.095085a45.056 45.056 0 0 1-1.024 3.803429 1078.8864 1078.8864 0 0 0-20.8896 126.273828 1063.204571 1063.204571 0 0 0 70.568228 508.840229z"
    fill="currentColor" opacity=".9" p-id="10040"></path>
</svg>