<svg width="20" height="20" viewBox="0 0 20 20" fill="none" xmlns="http://www.w3.org/2000/svg">
<path fill-rule="evenodd" clip-rule="evenodd" d="M13.7421 3.55039L14.4492 2.84328C14.6444 2.64802 14.961 2.64802 15.1563 2.84329C15.3516 3.03855 15.3516 3.35513 15.1563 3.55039L14.4492 4.2575C14.2539 4.45276 13.9373 4.45276 13.7421 4.2575C13.5468 4.06224 13.5468 3.74565 13.7421 3.55039ZM5.49966 8.50006C5.49966 6.29092 7.29052 4.50006 9.49966 4.50006C11.7088 4.50006 13.4997 6.29092 13.4997 8.50006C13.4997 10.7092 11.7088 12.5001 9.49966 12.5001C7.29052 12.5001 5.49966 10.7092 5.49966 8.50006ZM9.49966 3.50006C6.73824 3.50006 4.49966 5.73864 4.49966 8.50006C4.49966 11.2615 6.73824 13.5001 9.49966 13.5001C12.2611 13.5001 14.4997 11.2615 14.4997 8.50006C14.4997 5.73864 12.2611 3.50006 9.49966 3.50006ZM14.3532 12.6465C14.158 12.4512 13.8414 12.4512 13.6461 12.6465C13.4508 12.8418 13.4508 13.1584 13.6461 13.3536L16.1461 15.8536C16.3414 16.0489 16.658 16.0489 16.8532 15.8536C17.0485 15.6584 17.0485 15.3418 16.8532 15.1465L14.3532 12.6465ZM15.8766 6.64646L15.3936 6.77587C15.1269 6.84734 14.9686 7.12151 15.0401 7.38824C15.1115 7.65497 15.3857 7.81327 15.6524 7.7418L16.1354 7.61239C16.4021 7.54091 16.5604 7.26675 16.4889 7.00001C16.4175 6.73328 16.1433 6.57499 15.8766 6.64646ZM3.84168 13.4499L4.54879 12.7428C4.74405 12.5476 5.06064 12.5476 5.2559 12.7428C5.45116 12.9381 5.45116 13.2547 5.2559 13.4499L4.54879 14.157C4.35353 14.3523 4.03695 14.3523 3.84168 14.157C3.64642 13.9618 3.64642 13.6452 3.84168 13.4499ZM2.8361 10.1401L2.35314 10.2695C2.0864 10.341 1.92811 10.6151 1.99958 10.8819C2.07105 11.1486 2.34522 11.3069 2.61196 11.2354L3.09492 11.106C3.36165 11.0346 3.51994 10.7604 3.44847 10.4937C3.377 10.2269 3.10283 10.0686 2.8361 10.1401Z" fill="currentColor"/>
</svg>
