<svg width="20" height="20" viewBox="0 0 20 20" fill="none" xmlns="http://www.w3.org/2000/svg">
<path fill-rule="evenodd" clip-rule="evenodd" d="M8.5002 2.5C7.25756 2.5 6.2502 3.50736 6.2502 4.75V5.01178C6.08859 5.01718 5.93777 5.02506 5.79713 5.03655C5.33387 5.0744 4.91547 5.15514 4.52473 5.35423C3.9132 5.66582 3.41602 6.163 3.10443 6.77453C2.90534 7.16527 2.8246 7.58367 2.78675 8.04693C2.76552 8.30682 2.75662 8.6015 2.75289 8.93477C2.74942 8.97407 2.74911 9.01319 2.75179 9.05182C2.75019 9.25942 2.7502 9.48139 2.7502 9.71858V9.75V11V12.25V12.2814C2.75019 12.9548 2.75018 13.5055 2.78675 13.9531C2.8246 14.4163 2.90534 14.8347 3.10443 15.2255C3.41602 15.837 3.9132 16.3342 4.52473 16.6458C4.91547 16.8449 5.33387 16.9256 5.79713 16.9634C6.24468 17 6.79537 17 7.46873 17H7.46876H7.5002H12.5002H12.5316H12.5317C13.205 17 13.7557 17 14.2033 16.9634C14.6665 16.9256 15.0849 16.8449 15.4757 16.6458C16.0872 16.3342 16.5844 15.837 16.896 15.2255C17.0951 14.8347 17.1758 14.4163 17.2136 13.9531C17.2502 13.5055 17.2502 12.9548 17.2502 12.2815V12.2814V12.25V11.1663L17.2502 11.1354C17.2502 10.7951 17.2502 10.4914 17.2281 10.2437C17.2048 9.98417 17.1514 9.69275 16.9822 9.42321C16.7474 9.04949 16.3802 8.77824 15.954 8.66381C15.6466 8.58128 15.3523 8.61596 15.0974 8.67008C14.8542 8.72172 14.5639 8.81107 14.2387 8.91113L14.2387 8.91115L14.2387 8.91116L14.2091 8.92025L10.956 9.92121C10.4938 10.0634 10.3493 10.105 10.2087 10.1219C10.0702 10.1385 9.93022 10.1385 9.79175 10.1219C9.65112 10.105 9.50663 10.0634 9.04442 9.92121L4.26481 8.45056C4.26909 8.34995 4.27462 8.25659 4.28177 8.16908C4.31204 7.79858 4.36755 7.59956 4.44094 7.45552C4.60872 7.12623 4.87643 6.85852 5.20572 6.69074C5.34975 6.61735 5.54878 6.56184 5.91928 6.53157C6.29853 6.50058 6.78776 6.5 7.5002 6.5H13.0002C13.4144 6.5 13.7502 6.16421 13.7502 5.75V4.75C13.7502 3.50736 12.7428 2.5 11.5002 2.5H8.5002ZM12.2502 5V4.75C12.2502 4.33579 11.9144 4 11.5002 4H8.5002C8.08599 4 7.7502 4.33579 7.7502 4.75V5H12.2502ZM16.692 4.01863C16.6261 3.84055 16.3743 3.84055 16.3084 4.01863L16.0643 4.67812C15.9124 5.0887 15.5887 5.41242 15.1781 5.56434L14.5186 5.80838C14.3405 5.87427 14.3405 6.12615 14.5186 6.19204L15.1781 6.43608C15.5887 6.588 15.9124 6.91172 16.0643 7.3223L16.3084 7.98179C16.3743 8.15987 16.6261 8.15987 16.692 7.98179L16.9361 7.3223C17.088 6.91172 17.4117 6.588 17.8223 6.43608L18.4818 6.19204C18.6599 6.12615 18.6599 5.87427 18.4818 5.80838L17.8223 5.56434C17.4117 5.41242 17.088 5.0887 16.9361 4.67812L16.692 4.01863ZM4.2502 10.0155V11V12.25C4.2502 12.9624 4.25078 13.4517 4.28177 13.8309C4.31204 14.2014 4.36755 14.4004 4.44094 14.5445C4.60872 14.8738 4.87643 15.1415 5.20572 15.3093C5.34975 15.3827 5.54878 15.4382 5.91928 15.4684C6.29853 15.4994 6.78776 15.5 7.5002 15.5H12.5002C13.2126 15.5 13.7019 15.4994 14.0811 15.4684C14.4516 15.4382 14.6506 15.3827 14.7947 15.3093C15.124 15.1415 15.3917 14.8738 15.5595 14.5445C15.6329 14.4004 15.6884 14.2014 15.7186 13.8309C15.7496 13.4517 15.7502 12.9624 15.7502 12.25V11.1663C15.7502 10.7855 15.7495 10.55 15.734 10.3775C15.7246 10.2717 15.7119 10.2269 15.7078 10.2146C15.6756 10.1666 15.6277 10.1313 15.5723 10.1146C15.5594 10.1143 15.5129 10.1153 15.409 10.1374C15.2395 10.1734 15.0142 10.2419 14.6502 10.3539L11.3971 11.3549L11.3405 11.3723C10.9579 11.4902 10.6783 11.5763 10.3873 11.6112C10.1302 11.642 9.87023 11.642 9.61307 11.6112C9.3221 11.5763 9.0425 11.4902 8.65987 11.3723L8.60329 11.3549L4.2502 10.0155Z" fill="#1A2029"/>
</svg>
