<svg width="20" height="20" viewBox="0 0 20 20" fill="none" xmlns="http://www.w3.org/2000/svg">
<path d="M3.00016 5.00002C3.5006 4.49997 16.5002 4.50002 17.0002 5.00002C17.5002 5.50002 17.5002 14.5 17.0002 15C16.5002 15.5 3.50016 15.5 3.00016 15C2.50016 14.5001 2.49973 5.50007 3.00016 5.00002Z" stroke="currentColor"/>
<path fill-rule="evenodd" clip-rule="evenodd" d="M4.69922 9.2C4.69922 9.08954 4.78876 9 4.89922 9H5.49922C5.60968 9 5.69922 9.08954 5.69922 9.2V9.8C5.69922 9.91046 5.60968 10 5.49922 10H4.89922C4.78876 10 4.69922 9.91046 4.69922 9.8V9.2ZM7.09961 9.2C7.09961 9.08954 7.18915 9 7.29961 9H7.89961C8.01007 9 8.09961 9.08954 8.09961 9.2V9.8C8.09961 9.91046 8.01007 10 7.89961 10H7.29961C7.18915 10 7.09961 9.91046 7.09961 9.8V9.2ZM10.5 9.2C10.5 9.08954 10.4105 9 10.3 9H9.7C9.58954 9 9.5 9.08954 9.5 9.2V9.8C9.5 9.91046 9.58954 10 9.7 10H10.3C10.4105 10 10.5 9.91046 10.5 9.8V9.2ZM11.9004 9.2C11.9004 9.08954 11.9899 9 12.1004 9H12.7004C12.8108 9 12.9004 9.08954 12.9004 9.2V9.8C12.9004 9.91046 12.8108 10 12.7004 10H12.1004C11.9899 10 11.9004 9.91046 11.9004 9.8V9.2ZM15.3009 9.2C15.3009 9.08954 15.2114 9 15.1009 9H14.5009C14.3905 9 14.3009 9.08954 14.3009 9.2V9.8C14.3009 9.91046 14.3905 10 14.5009 10H15.1009C15.2114 10 15.3009 9.91046 15.3009 9.8V9.2Z" fill="currentColor"/>
<path fill-rule="evenodd" clip-rule="evenodd" d="M4.69922 7.2C4.69922 7.08954 4.78876 7 4.89922 7H5.49922C5.60968 7 5.69922 7.08954 5.69922 7.2V7.8C5.69922 7.91046 5.60968 8 5.49922 8H4.89922C4.78876 8 4.69922 7.91046 4.69922 7.8V7.2ZM7.09961 7.2C7.09961 7.08954 7.18915 7 7.29961 7H7.89961C8.01007 7 8.09961 7.08954 8.09961 7.2V7.8C8.09961 7.91046 8.01007 8 7.89961 8H7.29961C7.18915 8 7.09961 7.91046 7.09961 7.8V7.2ZM10.5 7.2C10.5 7.08954 10.4105 7 10.3 7H9.7C9.58954 7 9.5 7.08954 9.5 7.2V7.8C9.5 7.91046 9.58954 8 9.7 8H10.3C10.4105 8 10.5 7.91046 10.5 7.8V7.2ZM11.9004 7.2C11.9004 7.08954 11.9899 7 12.1004 7H12.7004C12.8108 7 12.9004 7.08954 12.9004 7.2V7.8C12.9004 7.91046 12.8108 8 12.7004 8H12.1004C11.9899 8 11.9004 7.91046 11.9004 7.8V7.2ZM15.3009 7.2C15.3009 7.08954 15.2114 7 15.1009 7H14.5009C14.3905 7 14.3009 7.08954 14.3009 7.2V7.8C14.3009 7.91046 14.3905 8 14.5009 8H15.1009C15.2114 8 15.3009 7.91046 15.3009 7.8V7.2Z" fill="currentColor"/>
<path d="M6 12.2C6 12.0895 6.08954 12 6.2 12H13.8C13.9105 12 14 12.0895 14 12.2V12.8C14 12.9105 13.9105 13 13.8 13H6.2C6.08954 13 6 12.9105 6 12.8V12.2Z" fill="currentColor"/>
</svg>