<svg width="16" height="16" viewBox="0 0 16 16" fill="none" xmlns="http://www.w3.org/2000/svg">
<path fill-rule="evenodd" clip-rule="evenodd" d="M4.41745 1.55029C2.42002 1.55029 0.800781 3.16953 0.800781 5.16696V10.8336C0.800781 12.8311 2.42002 14.4503 4.41745 14.4503H11.5841C13.5815 14.4503 15.2008 12.8311 15.2008 10.8336V5.16696C15.2008 3.16953 13.5815 1.55029 11.5841 1.55029H4.41745ZM2.20078 5.16696C2.20078 3.94273 3.19322 2.95029 4.41745 2.95029H11.5841C12.8083 2.95029 13.8008 3.94273 13.8008 5.16696V10.8336C13.8008 12.0579 12.8083 13.0503 11.5841 13.0503H4.41745C3.19322 13.0503 2.20078 12.0579 2.20078 10.8336V5.16696ZM7.56184 5.72832V10.2722H6.28585V8.55748H5.08298V10.2722H3.80078V5.72832H5.08298V7.41817H6.28585V5.72832H7.56184ZM6.48585 7.61817H4.88318V7.61836H6.48605V5.92852H7.36184V5.92832H6.48585V7.61817ZM4.00098 5.92852H4.88298V5.92832H4.00078V10.0722H4.00098V5.92852ZM6.48585 10.0722V8.35767H6.48605V10.0722H6.48585ZM8.29492 5.72832H10.2531C10.7012 5.72832 11.0678 5.77215 11.3401 5.87073C11.8375 6.05205 12.1798 6.3919 12.3494 6.88178L12.3499 6.88324C12.4692 7.23674 12.5281 7.61261 12.5281 8.00957C12.5281 8.40157 12.4715 8.77435 12.3571 9.12679C12.2383 9.50096 12.0359 9.79366 11.7413 9.98514L11.7391 9.98656C11.5599 10.0997 11.3626 10.1769 11.1489 10.2187L11.1455 10.2194C10.941 10.2558 10.6406 10.2722 10.2531 10.2722H8.29492V5.72832ZM8.49512 5.92852V10.0722H8.49492V5.92832H10.2531C10.6921 5.92832 11.0318 5.97181 11.272 6.05879C11.4928 6.13925 11.677 6.25312 11.8248 6.4004C11.6771 6.25322 11.4929 6.13941 11.2722 6.05898C11.032 5.972 10.6923 5.92852 10.2533 5.92852H8.49512ZM11.272 8.62462C11.33 8.42996 11.359 8.22287 11.359 8.00335C11.359 7.75899 11.3258 7.53533 11.2596 7.33238C11.1969 7.1406 11.1158 6.99505 11.0162 6.89573C11.1159 6.99505 11.1971 7.14067 11.2598 7.33258C11.326 7.53553 11.3592 7.75918 11.3592 8.00355C11.3592 8.22306 11.3302 8.43015 11.2722 8.62481C11.2183 8.81948 11.1459 8.97065 11.0547 9.07834C10.9056 9.24815 10.6385 9.33306 10.2533 9.33306H9.37732V9.33286H10.2531C10.6383 9.33286 10.9054 9.24796 11.0545 9.07815C11.1457 8.97046 11.2181 8.81928 11.272 8.62462ZM10.9031 8.9475C10.9688 8.86926 11.0303 8.74814 11.0792 8.5713L11.0803 8.56751C11.1323 8.39281 11.159 8.20509 11.159 8.00335C11.159 7.77708 11.1283 7.57471 11.0694 7.39446C11.0096 7.2111 10.9374 7.09506 10.8641 7.02689C10.7598 6.93433 10.5706 6.86763 10.2531 6.86763H9.57712V9.13286H10.2531C10.6179 9.13286 10.8112 9.05103 10.9031 8.9475Z" fill="url(#paint0_linear_4041_26152)"/>
<defs>
<linearGradient id="paint0_linear_4041_26152" x1="14.0008" y1="12.0109" x2="3.1552" y2="1.44079" gradientUnits="userSpaceOnUse">
<stop stop-color="#A36B17"/>
<stop offset="1" stop-color="#D38518"/>
</linearGradient>
</defs>
</svg>
