<svg width="16" height="16" viewBox="0 0 16 16" fill="none" xmlns="http://www.w3.org/2000/svg">
<path fill-rule="evenodd" clip-rule="evenodd" d="M7.50637 2.32521C7.53762 2.02076 7.36746 1.73131 7.08624 1.61054C6.80502 1.48978 6.47795 1.56571 6.2787 1.79802L1.1677 7.75693C1.025 7.92331 0.968468 8.14692 1.01496 8.36112C1.06144 8.57532 1.20558 8.75539 1.40441 8.84764L3.70867 9.91677L3.36092 13.6815C3.33289 13.985 3.5044 14.2717 3.78502 14.3905C4.06564 14.5094 4.39089 14.433 4.58929 14.2017L9.70028 8.24275C9.83343 8.08751 9.89203 7.88181 9.86068 7.67971C9.82932 7.47761 9.71115 7.29933 9.53723 7.19173L7.15798 5.71983L7.50637 2.32521ZM4.74573 8.85459L2.83217 7.96674L5.88536 4.40703L5.72053 6.01301C5.69316 6.27975 5.82057 6.5387 6.0486 6.67977L8.10519 7.95206L4.95708 11.6224L5.14814 9.55395C5.17537 9.25919 5.01424 8.97917 4.74573 8.85459ZM10.5213 4.07425C10.1347 4.07425 9.8213 4.38766 9.8213 4.77425C9.8213 5.16085 10.1347 5.47425 10.5213 5.47425H14.302C14.6886 5.47425 15.002 5.16085 15.002 4.77425C15.002 4.38766 14.6886 4.07425 14.302 4.07425H10.5213ZM11.7109 7.92464C11.7109 7.53805 12.0243 7.22465 12.4109 7.22465H14.3013C14.6879 7.22465 15.0013 7.53805 15.0013 7.92464C15.0013 8.31124 14.6879 8.62465 14.3013 8.62465L12.4109 8.62464C12.0243 8.62464 11.7109 8.31124 11.7109 7.92464ZM9.89044 11.0054C9.50384 11.0054 9.19044 11.3188 9.19044 11.7054C9.19044 12.092 9.50384 12.4054 9.89044 12.4054H14.3012C14.6878 12.4054 15.0012 12.092 15.0012 11.7054C15.0012 11.3188 14.6878 11.0054 14.3012 11.0054H9.89044Z" fill="url(#paint0_linear_4041_26144)"/>
<defs>
<linearGradient id="paint0_linear_4041_26144" x1="13.8351" y1="12.008" x2="3.00766" y2="1.74045" gradientUnits="userSpaceOnUse">
<stop stop-color="#A36B17"/>
<stop offset="1" stop-color="#D38518"/>
</linearGradient>
</defs>
</svg>
