<svg width="24" height="24" viewBox="0 0 24 24" fill="none" xmlns="http://www.w3.org/2000/svg">
<rect width="24" height="24" rx="12" fill="url(#paint0_linear_4041_26178)"/>
<path fill-rule="evenodd" clip-rule="evenodd" d="M10.7563 16.3959L10.7563 16.3959L7.59192 10.9855L7.59191 10.9855C7.06418 10.0831 7.70562 8.9 8.83564 8.9H9.20314L11.4694 12.8489C11.5916 13.0617 11.8162 13.1951 12.0616 13.2003C12.3069 13.2056 12.537 13.082 12.6682 12.8746L15.1816 8.90009C16.3009 8.91207 16.9331 10.0877 16.4081 10.9855L16.4081 10.9855L13.2437 16.3959L13.2437 16.3959C12.6946 17.3347 11.3054 17.3347 10.7563 16.3959ZM13.5252 8.9H10.8173L12.1056 11.1448L13.5252 8.9ZM17.6166 11.6923L14.4522 17.1027C13.3626 18.9658 10.6374 18.9658 9.54779 17.1027L6.38343 11.6923C5.29378 9.82914 6.65634 7.5 8.83564 7.5H15.1644C17.3437 7.5 18.7062 9.82914 17.6166 11.6923Z" fill="#C8A069"/>
<path fill-rule="evenodd" clip-rule="evenodd" d="M10.7563 16.3959L10.7563 16.3959L7.59192 10.9855L7.59191 10.9855C7.06418 10.0831 7.70562 8.9 8.83564 8.9H9.20314L11.4694 12.8489C11.5916 13.0617 11.8162 13.1951 12.0616 13.2003C12.3069 13.2056 12.537 13.082 12.6682 12.8746L15.1816 8.90009C16.3009 8.91207 16.9331 10.0877 16.4081 10.9855L16.4081 10.9855L13.2437 16.3959L13.2437 16.3959C12.6946 17.3347 11.3054 17.3347 10.7563 16.3959ZM13.5252 8.9H10.8173L12.1056 11.1448L13.5252 8.9ZM17.6166 11.6923L14.4522 17.1027C13.3626 18.9658 10.6374 18.9658 9.54779 17.1027L6.38343 11.6923C5.29378 9.82914 6.65634 7.5 8.83564 7.5H15.1644C17.3437 7.5 18.7062 9.82914 17.6166 11.6923Z" fill="url(#paint1_linear_4041_26178)"/>
<defs>
<linearGradient id="paint0_linear_4041_26178" x1="-2.47934" y1="-5.09668e-07" x2="24.8138" y2="18.1827" gradientUnits="userSpaceOnUse">
<stop stop-color="#FFF9EE"/>
<stop offset="1" stop-color="#FCE1A9"/>
</linearGradient>
<linearGradient id="paint1_linear_4041_26178" x1="4.76033" y1="7.5" x2="15.1958" y2="16.2548" gradientUnits="userSpaceOnUse">
<stop offset="0.184217" stop-color="#D38518"/>
<stop offset="1" stop-color="#9F6917"/>
</linearGradient>
</defs>
</svg>
