<svg width="16" height="16" viewBox="0 0 16 16" fill="none" xmlns="http://www.w3.org/2000/svg">
<path fill-rule="evenodd" clip-rule="evenodd" d="M3.02369 2.63379C1.6272 2.63379 0.495117 3.76587 0.495117 5.16237V10.8385C0.495117 12.235 1.6272 13.3671 3.0237 13.3671H8.69987C9.92628 13.3671 10.9488 12.494 11.1796 11.3355L12.5622 12.0266L12.5623 12.0267C12.8725 12.1817 13.2172 12.2549 13.5636 12.2393C13.91 12.2237 14.2467 12.1198 14.5417 11.9375C14.8367 11.7553 15.0803 11.5007 15.2493 11.1978C15.4183 10.8948 15.507 10.5535 15.5072 10.2069V10.2065V5.69069V5.69032C15.507 5.34355 15.4182 5.00258 15.2493 4.69975L14.638 5.04083L15.2493 4.69975C15.0803 4.39692 14.8367 4.1423 14.5417 3.96004L14.1764 4.55137L14.5417 3.96004C14.2467 3.77778 13.9101 3.67391 13.5636 3.65831C13.2172 3.64271 12.8725 3.71588 12.5623 3.87089L12.5622 3.87094L11.1592 4.57229C10.8934 3.46042 9.89319 2.63379 8.69987 2.63379H3.02369ZM1.89512 5.16237C1.89512 4.53907 2.4004 4.03379 3.02369 4.03379H8.69987C9.32317 4.03379 9.82845 4.53907 9.82845 5.16237V5.6702C9.82845 5.9128 9.95406 6.13809 10.1604 6.26564C10.3668 6.39319 10.6245 6.4048 10.8414 6.29633L13.1881 5.12324L13.1882 5.12319C13.285 5.07485 13.3926 5.05203 13.5006 5.05689C13.6087 5.06176 13.7138 5.09418 13.8059 5.15106C13.898 5.20794 13.974 5.28741 14.0267 5.38192C14.0794 5.47642 14.1071 5.58284 14.1072 5.69106V10.2062C14.1071 10.3146 14.0793 10.4213 14.0267 10.5157C13.974 10.6102 13.898 10.6896 13.8059 10.7465C13.7138 10.8034 13.6087 10.8358 13.5006 10.8407C13.3926 10.8455 13.285 10.8227 13.1882 10.7744L13.1881 10.7743L10.8414 9.60125C10.6245 9.49277 10.3668 9.50438 10.1604 9.63193C9.95406 9.75948 9.82845 9.98478 9.82845 10.2274V10.8385C9.82845 11.4618 9.32317 11.9671 8.69987 11.9671H3.0237C2.4004 11.9671 1.89512 11.4618 1.89512 10.8385V5.16237ZM5.09117 5.30083C5.00246 5.11682 4.74041 5.11682 4.6517 5.30083L4.20183 6.23403C4.17787 6.28374 4.13775 6.32386 4.08803 6.34783L3.15483 6.7977C2.97083 6.8864 2.97083 7.14846 3.15483 7.23717L4.08803 7.68703C4.13775 7.711 4.17787 7.75112 4.20183 7.80084L4.6517 8.73403C4.74041 8.91804 5.00246 8.91804 5.09117 8.73403L5.54104 7.80084C5.565 7.75112 5.60512 7.711 5.65484 7.68703L6.58804 7.23717C6.77205 7.14846 6.77205 6.8864 6.58804 6.7977L5.65484 6.34783C5.60512 6.32386 5.565 6.28374 5.54104 6.23403L5.09117 5.30083Z" fill="url(#paint0_linear_4041_26161)"/>
<defs>
<linearGradient id="paint0_linear_4041_26161" x1="14.2562" y1="11.3374" x2="5.40641" y2="0.530755" gradientUnits="userSpaceOnUse">
<stop stop-color="#A36B17"/>
<stop offset="1" stop-color="#D38518"/>
</linearGradient>
</defs>
</svg>
