<svg t="1761789742686" class="icon" viewBox="0 0 1024 1024" version="1.1"
  xmlns="http://www.w3.org/2000/svg" p-id="72087" width="20" height="20">
  <path
    d="M52.224328 565.393882C51.931757 818.248558 259.072181 1023.560412 515.071998 1023.999269h1.243427c255.999817 0.365714 463.798526-204.43414 464.16424-457.361959V565.393882c-0.219428-253.147248-207.871852-458.312815-464.091097-458.605387C261.120179 106.788495 52.224328 311.588349 52.224328 565.393882z m408.429423 97.865073a36.644545 36.644545 0 0 1-18.50513-30.573693 44.251397 44.251397 0 0 1-3.14514-13.750847v-198.948429a38.034259 38.034259 0 0 1 37.961115-38.107402h0.731429a38.034259 38.034259 0 0 1 38.6194 38.180545v186.514152l153.234177 74.898232a37.522259 37.522259 0 0 1 13.897133 51.931392 38.399973 38.399973 0 0 1-52.589677 13.82399l-170.203307-84.114226v0.146286zM47.543189 203.044426a39.570257 39.570257 0 0 0 55.734817 0 601.087571 601.087571 0 0 1 201.142714-128.365622 39.131401 39.131401 0 0 0 23.186269-49.005679v-1.462857A41.252542 41.252542 0 0 0 275.017312 2.779427 694.125218 694.125218 0 0 0 47.543189 148.041037c-14.628561 15.433132-14.628561 39.497115 0 55.003389 0-1.462856 0-1.462856 0 0z m679.204086-122.294769a619.665843 619.665843 0 0 1 194.998718 129.901621 37.741687 37.741687 0 0 0 54.125676 0 38.473115 38.473115 0 0 0 0-55.003389A671.74352 671.74352 0 0 0 754.614684 8.777137a40.228543 40.228543 0 0 0-51.126821 22.96684c-6.582852 19.8217 3.65714 41.252542 23.259412 48.932537z"
    fill="currentColor" p-id="72088"></path>
</svg>