<svg width="20" height="20" viewBox="0 0 20 20" fill="none" xmlns="http://www.w3.org/2000/svg">
  <path
    d="M4.5 4.03749C4.5 3.99728 4.52792 3.96954 4.56007 3.96521C5.63969 3.81967 8.21907 3.5 10 3.5C11.7809 3.5 14.3603 3.81967 15.4399 3.96521C15.4721 3.96954 15.5 3.99728 15.5 4.03749C15.5 4.08051 15.4651 4.11538 15.4221 4.11538H15.25C14.5596 4.11538 14 4.67503 14 5.36538V6.21983C14 7.32424 13.3295 8.31807 12.3055 8.73163L12.0774 8.82372C10.9831 9.26567 10.8995 10.783 11.9386 11.3425L12.7145 11.7603C13.5063 12.1866 14 13.0132 14 13.9125V14.6346C14 15.325 14.5596 15.8846 15.25 15.8846H15.4221C15.4651 15.8846 15.5 15.9195 15.5 15.9625C15.5 16.0027 15.4721 16.0305 15.4399 16.0348C14.3603 16.1803 11.7809 16.5 10 16.5C8.21907 16.5 5.63969 16.1803 4.56007 16.0348C4.52792 16.0305 4.5 16.0027 4.5 15.9625C4.5 15.9195 4.53487 15.8846 4.57789 15.8846H4.75C5.44036 15.8846 6 15.325 6 14.6346V13.9125C6 13.0132 6.49373 12.1866 7.28546 11.7603L8.06138 11.3425C9.10055 10.783 9.01692 9.26567 7.92255 8.82372L7.73532 9.28734L7.92255 8.82372L7.69451 8.73163C6.67046 8.31807 6 7.32424 6 6.21983V5.36538C6 4.67503 5.44036 4.11538 4.75 4.11538H4.57789C4.53487 4.11538 4.5 4.08051 4.5 4.03749Z"
    stroke="currentColor" />
</svg>